{
.appVersion = "3337";
.formatVersion = 3;
DisplayStrings = (
"Zalando Beta v.3
 
A B C D E F G H I J K L M N O P Q R S T U V W X Y Z Å Ä Ö
 
a b c d e f g h i j k l m n o p q r s t u v w x y z å ä ö 

Numbers
0123456789
/zero.tf/one.tf/two.tf/three.tf/four.tf/five.tf/six.tf/seven.tf/eight.tf/nine.tf 

H⁰¹²³⁴⁵⁶⁷⁸⁹H₀₁₂₃₄₅₆₇₈₉
/zero.numr/one.numr/two.numr/three.numr/four.numr/five.numr/six.numr/seven.numr/eight.numr/nine.numr/zero.dnom/one.dnom/two.dnom/three.dnom/four.dnom/five.dnom/six.dnom/seven.dnom/eight.dnom/nine.dnom 
⁄  ½ ⅓ ⅔ ¼ ¾   /one.numr ⁄/eight.dnom       
 
Punctuation & Symbols
. , : ; … ! ¡ ? ¿ @ [] () {} // /backslash  - – — _ · • *   # & ¶ § © ® ™ ° | ¦ † ‡       

Quotation
‚ „ “ ” ‘ ’ «» ‹› \" '

Currency
¤   ₿ ¢ $ €       £  ¥

Math
+ − × ÷ = ≠ ≈ ~ ¬ > < ≥ ≤ ± ^ ° ∅ ∞ ∫ ∏ ∑ √ ∂   % ‰ Δ Π Ω        ∆
 
Arrows
↑↗→↘↓↙←↖  
    

Marks
̇̈̊/dieresiscomb.case/ringcomb.case ̀́̋̂̌̆̃̄̒
̶̵̸̧̨̦/slashlongcomb.case ̷/caroncomb.alt 

"
);
axes = (
{
name = Weight;
tag = wght;
},
{
name = Width;
tag = wdth;
},
{
name = Italic;
tag = ital;
}
);
classes = (
{
automatic = 1;
code = "A Aacute Abreve Acircumflex Adieresis Agrave Amacron Aogonek Aring Atilde AE B C Cacute Ccaron Ccedilla Ccircumflex Cdotaccent D Dcaron Dcroat Eth E Eacute Ecaron Ecircumflex Edieresis Edotaccent Egrave Emacron Eogonek F G Gbreve Gcircumflex Gcommaaccent Gdotaccent H Hbar I Iacute Ibreve Icircumflex Idieresis Idotaccent Igrave Imacron Iogonek Itilde J Jcircumflex K Kcommaaccent L Lacute Lcaron Lcommaaccent Ldot Lslash M N Nacute Ncaron Ncommaaccent Ntilde Eng O Oacute Obreve Ocircumflex Odieresis Ograve Ohungarumlaut Omacron Oslash Otilde OE P Thorn Q R Racute Rcaron Rcommaaccent S Sacute Scaron Scedilla Scircumflex Scommaaccent Germandbls T Tbar Tcaron Tcedilla Tcommaaccent U Uacute Ubreve Ucircumflex Udieresis Ugrave Uhungarumlaut Umacron Uogonek Uring V W Wacute Wcircumflex Wdieresis Wgrave X Y Yacute Ycircumflex Ydieresis Ygrave Z Zacute Zcaron Zdotaccent";
name = Uppercase;
}
);

glyphs = (
{
glyphname = A;
kernLeft = A;
kernRight = A;
lastChange = "2024-12-06 10:39:41 +0000";
layers = (
{
anchors = (
{
name = bottom;
pos = (413,0);
},
{
name = ogonek;
pos = (821,0);
},
{
name = top;
pos = (413,714);
}
);
guides = (
{
angle = 62.9135;
pos = (6,0);
}
);
layerId = m007;
shapes = (
{
closed = 1;
nodes = (
(77,0,l),
(429,693,l),
(394,693,l),
(744,0,l),
(821,0,l),
(456,714,l),
(371,714,l),
(6,0,l)
);
},
{
closed = 1;
nodes = (
(664,196,l),
(664,253,l),
(159,253,l),
(159,196,l)
);
}
);
width = 827;
},
{
anchors = (
{
name = bottom;
pos = (425,0);
},
{
name = ogonek;
pos = (837,2);
},
{
name = top;
pos = (425,714);
}
);
layerId = "7DF63F5B-BA78-420A-94D8-89AFC26E7780";
shapes = (
{
closed = 1;
nodes = (
(105,0,l),
(440,673,l),
(402,673,l),
(735,0,l),
(846,0,l),
(485,714,l),
(365,714,l),
(4,0,l)
);
},
{
closed = 1;
nodes = (
(672,183,l),
(672,262,l),
(170,262,l),
(170,183,l)
);
}
);
width = 850;
},
{
anchors = (
{
name = bottom;
pos = (324,0);
},
{
name = ogonek;
pos = (630,0);
},
{
name = top;
pos = (324,714);
}
);
layerId = "CF630257-B204-4765-8982-527F59E4E5D4";
shapes = (
{
closed = 1;
nodes = (
(78,0,l),
(340,708,l),
(306,708,l),
(563,0,l),
(630,0,l),
(360,714,l),
(287,714,l),
(18,0,l)
);
},
{
closed = 1;
nodes = (
(508,203,l),
(508,256,l),
(134,256,l),
(134,203,l)
);
}
);
width = 648;
},
{
anchors = (
{
name = bottom;
pos = (233,0);
},
{
name = ogonek;
pos = (449,0);
},
{
name = top;
pos = (233,714);
}
);
layerId = "89792DEA-715D-4C6B-9843-C33DBACDCF53";
shapes = (
{
closed = 1;
nodes = (
(71,0,l),
(240,668,l),
(223,668,l),
(390,0,l),
(450,0,l),
(268,714,l),
(198,714,l),
(16,0,l)
);
},
{
closed = 1;
nodes = (
(366,205,l),
(366,253,l),
(98,253,l),
(98,205,l)
);
}
);
width = 466;
},
{
anchors = (
{
name = bottom;
pos = (241,0);
},
{
name = ogonek;
pos = (473,0);
},
{
name = top;
pos = (241,714);
}
);
layerId = "F5B2086A-EC1C-45D9-9613-A3504CEE232E";
shapes = (
{
closed = 1;
nodes = (
(94,0,l),
(255,663,l),
(228,663,l),
(386,0,l),
(472,0,l),
(291,714,l),
(195,714,l),
(13,0,l)
);
},
{
closed = 1;
nodes = (
(380,191,l),
(380,258,l),
(107,258,l),
(107,191,l)
);
}
);
width = 485;
},
{
anchors = (
{
name = bottom;
pos = (336,0);
},
{
name = ogonek;
pos = (663,0);
},
{
name = top;
pos = (338,714);
}
);
layerId = "FEA946D2-303E-4050-8628-E645DE71E218";
shapes = (
{
closed = 1;
nodes = (
(107,0,l),
(351,672,l),
(320,672,l),
(561,0,l),
(663,0,l),
(397,714,l),
(281,714,l),
(14,0,l)
);
},
{
closed = 1;
nodes = (
(533,187,l),
(533,265,l),
(158,265,l),
(158,187,l)
);
}
);
width = 677;
},
{
anchors = (
{
name = bottom;
pos = (283,0);
},
{
name = ogonek;
pos = (569,0);
},
{
name = top;
pos = (282,714);
}
);
layerId = "F74FB5BD-F4A6-4696-AECE-814F0CF1BFBE";
shapes = (
{
closed = 1;
nodes = (
(186,0,l),
(315,641,l),
(257,641,l),
(371,0,l),
(570,0,l),
(390,714,l),
(185,714,l),
(6,0,l)
);
},
{
closed = 1;
nodes = (
(424,126,l),
(424,266,l),
(143,266,l),
(143,126,l)
);
}
);
width = 576;
},
{
anchors = (
{
name = bottom;
pos = (368,0);
},
{
name = ogonek;
pos = (739,0);
},
{
name = top;
pos = (375,714);
}
);
layerId = "3E78BF7E-2ACA-4E8F-B7F7-8733FDFDD1D6";
shapes = (
{
closed = 1;
nodes = (
(202,0,l),
(379,566,l),
(354,566,l),
(529,0,l),
(739,0,l),
(491,714,l),
(259,714,l),
(11,0,l)
);
},
{
closed = 1;
nodes = (
(527,132,l),
(527,276,l),
(208,276,l),
(208,132,l)
);
}
);
width = 749;
},
{
anchors = (
{
name = bottom;
pos = (487,0);
},
{
name = ogonek;
pos = (959,0);
},
{
name = top;
pos = (483,714);
}
);
layerId = "CEA8704A-49A9-4D73-A586-1E9554ACC001";
shapes = (
{
closed = 1;
nodes = (
(231,0,l),
(503,597,l),
(447,597,l),
(718,0,l),
(959,0,l),
(615,714,l),
(353,714,l),
(8,0,l)
);
},
{
closed = 1;
nodes = (
(720,138,l),
(720,298,l),
(227,298,l),
(227,138,l)
);
}
);
width = 967;
}
);
unicode = 65;
},
{
glyphname = Aring;
kernLeft = A;
kernRight = A;
lastChange = "2024-12-06 10:52:06 +0000";
layers = (
{
layerId = m007;
shapes = (
{
closed = 1;
nodes = (
(77,0,l),
(425,685,l),
(397,685,l),
(744,0,l),
(821,0,l),
(471,685,l),
(504,701,o),
(525,733,o),
(525,773,cs),
(525,833,o),
(478,874,o),
(413,874,cs),
(348,874,o),
(300,833,o),
(300,773,cs),
(300,733,o),
(322,701,o),
(356,684,c),
(6,0,l)
);
},
{
closed = 1;
nodes = (
(664,196,l),
(664,253,l),
(159,253,l),
(159,196,l)
);
},
{
closed = 1;
nodes = (
(375,714,o),
(349,735,o),
(349,772,cs),
(349,808,o),
(375,832,o),
(413,832,cs),
(451,832,o),
(476,808,o),
(476,772,cs),
(476,735,o),
(451,714,o),
(413,714,cs)
);
}
);
width = 827;
},
{
layerId = "7DF63F5B-BA78-420A-94D8-89AFC26E7780";
shapes = (
{
closed = 1;
nodes = (
(105,0,l),
(440,672,l),
(402,673,l),
(735,0,l),
(846,0,l),
(500,684,l),
(530,704,o),
(548,735,o),
(548,774,cs),
(548,840,o),
(496,885,o),
(426,885,cs),
(356,885,o),
(304,840,o),
(304,774,cs),
(304,736,o),
(322,705,o),
(351,685,c),
(4,0,l)
);
},
{
closed = 1;
nodes = (
(672,183,l),
(672,262,l),
(170,262,l),
(170,183,l)
);
},
{
closed = 1;
nodes = (
(390,716,o),
(363,738,o),
(363,774,cs),
(363,810,o),
(390,834,o),
(426,834,cs),
(463,834,o),
(489,810,o),
(489,774,cs),
(489,738,o),
(463,716,o),
(426,716,cs)
);
}
);
width = 850;
},
{
layerId = "CF630257-B204-4765-8982-527F59E4E5D4";
shapes = (
{
closed = 1;
nodes = (
(78,0,l),
(332,687,l),
(314,687,l),
(563,0,l),
(630,0,l),
(370,686,l),
(401,702,o),
(423,734,o),
(423,773,cs),
(423,830,o),
(377,870,o),
(324,870,cs),
(271,870,o),
(224,830,o),
(224,773,cs),
(224,734,o),
(246,703,o),
(277,687,c),
(18,0,l)
);
},
{
closed = 1;
nodes = (
(508,203,l),
(508,256,l),
(134,256,l),
(134,203,l)
);
},
{
closed = 1;
nodes = (
(293,716,o),
(268,737,o),
(268,772,cs),
(268,805,o),
(293,829,o),
(324,829,cs),
(353,829,o),
(379,805,o),
(379,772,cs),
(379,737,o),
(353,716,o),
(324,716,cs)
);
}
);
width = 648;
},
{
guides = (
{
pos = (334,870);
}
);
layerId = "89792DEA-715D-4C6B-9843-C33DBACDCF53";
shapes = (
{
closed = 1;
nodes = (
(71,0,l),
(237,659,l),
(225,659,l),
(390,0,l),
(450,0,l),
(275,685,l),
(305,700,o),
(325,732,o),
(325,773,cs),
(325,831,o),
(285,870,o),
(233,870,cs),
(181,870,o),
(141,831,o),
(141,773,cs),
(141,732,o),
(161,700,o),
(191,685,c),
(16,0,l)
);
},
{
closed = 1;
nodes = (
(366,205,l),
(366,253,l),
(98,253,l),
(98,205,l)
);
},
{
closed = 1;
nodes = (
(202,711,o),
(183,735,o),
(183,773,cs),
(183,810,o),
(202,833,o),
(233,833,cs),
(263,833,o),
(283,810,o),
(283,773,cs),
(283,735,o),
(263,711,o),
(233,711,cs)
);
}
);
width = 466;
},
{
guides = (
{
pos = (349,881);
}
);
layerId = "F5B2086A-EC1C-45D9-9613-A3504CEE232E";
shapes = (
{
closed = 1;
nodes = (
(94,0,l),
(250,644,l),
(232,644,l),
(386,0,l),
(472,0,l),
(299,681,l),
(327,700,o),
(345,732,o),
(345,773,cs),
(345,838,o),
(299,881,o),
(241,881,cs),
(183,881,o),
(137,838,o),
(137,773,cs),
(137,731,o),
(157,697,o),
(186,679,c),
(13,0,l)
);
},
{
closed = 1;
nodes = (
(380,191,l),
(380,258,l),
(107,258,l),
(107,191,l)
);
},
{
closed = 1;
nodes = (
(210,713,o),
(189,733,o),
(189,771,cs),
(189,811,o),
(210,831,o),
(241,831,cs),
(270,831,o),
(293,811,o),
(293,771,cs),
(293,733,o),
(270,713,o),
(241,713,cs)
);
}
);
width = 485;
},
{
layerId = "FEA946D2-303E-4050-8628-E645DE71E218";
shapes = (
{
closed = 1;
nodes = (
(107,0,l),
(349,668,l),
(321,668,l),
(561,0,l),
(663,0,l),
(407,687,l),
(433,706,o),
(450,736,o),
(450,772,cs),
(450,838,o),
(397,881,o),
(338,881,cs),
(280,881,o),
(226,838,o),
(226,772,cs),
(226,735,o),
(244,705,o),
(270,686,c),
(14,0,l)
);
},
{
closed = 1;
nodes = (
(533,187,l),
(533,265,l),
(158,265,l),
(158,187,l)
);
},
{
closed = 1;
nodes = (
(304,714,o),
(280,742,o),
(280,772,cs),
(280,803,o),
(304,831,o),
(338,831,cs),
(370,831,o),
(396,803,o),
(396,772,cs),
(396,742,o),
(370,714,o),
(338,714,cs)
);
}
);
width = 677;
},
{
layerId = "F74FB5BD-F4A6-4696-AECE-814F0CF1BFBE";
shapes = (
{
closed = 1;
nodes = (
(186,0,l),
(301,572,l),
(269,572,l),
(371,0,l),
(570,0,l),
(391,711,l),
(404,731,o),
(411,755,o),
(411,785,cs),
(411,864,o),
(356,911,o),
(286,911,cs),
(217,911,o),
(162,864,o),
(162,785,cs),
(162,754,o),
(170,729,o),
(183,709,c),
(6,0,l)
);
},
{
closed = 1;
nodes = (
(424,126,l),
(424,266,l),
(143,266,l),
(143,126,l)
);
},
{
closed = 1;
nodes = (
(257,723,o),
(236,744,o),
(236,785,cs),
(236,825,o),
(257,847,o),
(286,847,cs),
(316,847,o),
(336,825,o),
(336,785,cs),
(336,744,o),
(316,723,o),
(286,723,cs)
);
}
);
width = 576;
},
{
layerId = "3E78BF7E-2ACA-4E8F-B7F7-8733FDFDD1D6";
shapes = (
{
closed = 1;
nodes = (
(202,0,l),
(392,606,l),
(340,607,l),
(529,0,l),
(739,0,l),
(488,714,l),
(500,734,o),
(508,758,o),
(508,785,cs),
(508,860,o),
(445,911,o),
(375,911,cs),
(305,911,o),
(242,860,o),
(242,785,cs),
(242,758,o),
(250,734,o),
(262,714,c),
(11,0,l)
);
},
{
closed = 1;
nodes = (
(527,132,l),
(527,276,l),
(208,276,l),
(208,132,l)
);
},
{
closed = 1;
nodes = (
(344,725,o),
(317,750,o),
(317,785,cs),
(317,820,o),
(344,842,o),
(375,842,cs),
(408,842,o),
(432,820,o),
(432,785,cs),
(432,750,o),
(408,725,o),
(375,725,cs)
);
}
);
width = 749;
},
{
layerId = "CEA8704A-49A9-4D73-A586-1E9554ACC001";
shapes = (
{
closed = 1;
nodes = (
(231,0,l),
(516,611,l),
(434,611,l),
(718,0,l),
(959,0,l),
(598,714,l),
(618,736,o),
(629,766,o),
(629,800,cs),
(629,877,o),
(567,931,o),
(483,931,cs),
(399,931,o),
(337,877,o),
(337,800,cs),
(337,766,o),
(348,736,o),
(368,714,c),
(8,0,l)
);
},
{
closed = 1;
nodes = (
(720,138,l),
(720,298,l),
(227,298,l),
(227,138,l)
);
},
{
closed = 1;
nodes = (
(447,743,o),
(421,764,o),
(421,800,cs),
(421,833,o),
(447,856,o),
(483,856,cs),
(518,856,o),
(544,833,o),
(544,800,cs),
(544,764,o),
(518,743,o),
(483,743,cs)
);
}
);
width = 967;
}
);
metricLeft = A;
metricRight = A;
unicode = 197;
},
{
glyphname = AE;
kernRight = E;
lastChange = "2024-12-06 10:39:41 +0000";
layers = (
{
background = {
shapes = (
{
closed = 1;
nodes = (
(1181,0,l),
(1181,57,l),
(626,57,l),
(626,340,l),
(1140,340,l),
(1140,396,l),
(626,396,l),
(626,657,l),
(1181,657,l),
(1181,714,l),
(557,714,l),
(557,0,l)
);
}
);
};
layerId = m007;
shapes = (
{
closed = 1;
nodes = (
(73,0,l),
(571,672,l),
(557,676,l),
(557,0,l),
(1181,0,l),
(1181,57,l),
(626,57,l),
(626,340,l),
(1140,340,l),
(1140,396,l),
(626,396,l),
(626,657,l),
(1181,657,l),
(1181,714,l),
(527,714,l),
(-4,0,l)
);
},
{
closed = 1;
nodes = (
(589,194,l),
(589,251,l),
(214,251,l),
(201,194,l)
);
}
);
width = 1244;
},
{
background = {
shapes = (
{
closed = 1;
nodes = (
(1220,0,l),
(1220,80,l),
(675,80,l),
(675,327,l),
(1179,327,l),
(1179,405,l),
(675,405,l),
(675,634,l),
(1220,634,l),
(1220,714,l),
(576,714,l),
(576,0,l)
);
}
);
};
layerId = "7DF63F5B-BA78-420A-94D8-89AFC26E7780";
shapes = (
{
closed = 1;
nodes = (
(106,0,l),
(599,662,l),
(576,668,l),
(576,0,l),
(1219,0,l),
(1219,80,l),
(676,80,l),
(676,327,l),
(1178,327,l),
(1178,405,l),
(676,405,l),
(676,634,l),
(1219,634,l),
(1219,714,l),
(528,714,l),
(-6,0,l)
);
},
{
closed = 1;
nodes = (
(617,182,l),
(617,261,l),
(236,261,l),
(215,182,l)
);
}
);
width = 1276;
},
{
layerId = "CF630257-B204-4765-8982-527F59E4E5D4";
shapes = (
{
closed = 1;
nodes = (
(72,0,l),
(449,689,l),
(435,691,l),
(435,0,l),
(890,0,l),
(890,53,l),
(496,53,l),
(496,356,l),
(856,356,l),
(856,406,l),
(496,406,l),
(496,661,l),
(890,661,l),
(890,714,l),
(401,714,l),
(8,0,l)
);
},
{
closed = 1;
nodes = (
(447,203,l),
(447,256,l),
(187,256,l),
(161,203,l)
);
}
);
width = 954;
},
{
layerId = "89792DEA-715D-4C6B-9843-C33DBACDCF53";
shapes = (
{
closed = 1;
nodes = (
(64,0,l),
(360,682,l),
(350,684,l),
(350,0,l),
(676,0,l),
(676,48,l),
(408,48,l),
(408,356,l),
(639,356,l),
(639,403,l),
(408,403,l),
(408,666,l),
(676,666,l),
(676,714,l),
(318,714,l),
(6,0,l)
);
},
{
closed = 1;
nodes = (
(385,204,l),
(385,252,l),
(141,252,l),
(136,204,l)
);
}
);
width = 721;
},
{
layerId = "F5B2086A-EC1C-45D9-9613-A3504CEE232E";
shapes = (
{
closed = 1;
nodes = (
(88,0,l),
(362,659,l),
(351,661,l),
(351,0,l),
(695,0,l),
(695,67,l),
(435,67,l),
(435,343,l),
(658,343,l),
(658,407,l),
(435,407,l),
(435,647,l),
(695,647,l),
(695,714,l),
(303,714,l),
(3,0,l)
);
},
{
closed = 1;
nodes = (
(392,191,l),
(392,257,l),
(147,257,l),
(139,191,l)
);
}
);
width = 733;
},
{
layerId = "FEA946D2-303E-4050-8628-E645DE71E218";
shapes = (
{
closed = 1;
nodes = (
(104,0,l),
(478,661,l),
(458,666,l),
(458,0,l),
(939,0,l),
(939,79,l),
(552,79,l),
(552,336,l),
(906,336,l),
(906,412,l),
(552,412,l),
(552,635,l),
(939,635,l),
(939,714,l),
(409,714,l),
(4,0,l)
);
},
{
closed = 1;
nodes = (
(478,187,l),
(478,265,l),
(223,265,l),
(181,187,l)
);
}
);
width = 995;
},
{
layerId = "F74FB5BD-F4A6-4696-AECE-814F0CF1BFBE";
shapes = (
{
closed = 1;
nodes = (
(182,0,l),
(412,597,l),
(393,601,l),
(393,0,l),
(805,0,l),
(805,153,l),
(588,153,l),
(588,281,l),
(767,281,l),
(767,431,l),
(588,431,l),
(588,561,l),
(805,561,l),
(805,714,l),
(288,714,l),
(-4,0,l)
);
},
{
closed = 1;
nodes = (
(453,127,l),
(453,279,l),
(156,279,l),
(136,127,l)
);
}
);
width = 830;
},
{
layerId = "3E78BF7E-2ACA-4E8F-B7F7-8733FDFDD1D6";
shapes = (
{
closed = 1;
nodes = (
(211,0,l),
(569,609,l),
(527,621,l),
(527,0,l),
(1065,0,l),
(1065,159,l),
(727,159,l),
(727,279,l),
(1027,279,l),
(1027,433,l),
(727,433,l),
(727,555,l),
(1065,555,l),
(1065,714,l),
(429,714,l),
(1,0,l)
);
},
{
closed = 1;
nodes = (
(622,132,l),
(622,276,l),
(269,276,l),
(206,132,l)
);
}
);
width = 1104;
},
{
layerId = "CEA8704A-49A9-4D73-A586-1E9554ACC001";
shapes = (
{
closed = 1;
nodes = (
(250,0,l),
(718,619,l),
(665,638,l),
(665,0,l),
(1390,0,l),
(1389,167,l),
(887,167,l),
(887,278,l),
(1350,278,l),
(1350,437,l),
(887,437,l),
(887,547,l),
(1389,547,l),
(1389,714,l),
(550,714,l),
(-2,0,l)
);
},
{
closed = 1;
nodes = (
(743,132,l),
(743,300,l),
(335,300,l),
(288,132,l)
);
}
);
width = 1431;
}
);
metricLeft = "=A-10";
metricRight = E;
unicode = 198;
},
{
glyphname = B;
kernLeft = H;
lastChange = "2024-12-06 10:39:41 +0000";
layers = (
{
layerId = m007;
shapes = (
{
closed = 1;
nodes = (
(533,0,ls),
(689,0,o),
(769,86,o),
(769,198,cs),
(769,307,o),
(685,368,o),
(585,376,c),
(685,392,o),
(730,460,o),
(730,544,cs),
(730,653,o),
(647,714,o),
(532,714,cs),
(82,714,l),
(82,0,l)
);
},
{
closed = 1;
nodes = (
(151,345,l),
(529,345,ls),
(628,345,o),
(696,293,o),
(696,201,cs),
(696,112,o),
(624,57,o),
(524,57,cs),
(151,57,l)
);
},
{
closed = 1;
nodes = (
(151,657,l),
(511,657,ls),
(614,657,o),
(661,609,o),
(661,537,cs),
(661,459,o),
(611,402,o),
(523,402,cs),
(151,402,l)
);
}
);
width = 822;
},
{
layerId = "7DF63F5B-BA78-420A-94D8-89AFC26E7780";
shapes = (
{
closed = 1;
nodes = (
(549,0,ls),
(704,0,o),
(788,82,o),
(788,197,cs),
(788,300,o),
(711,364,o),
(605,374,c),
(706,393,o),
(752,458,o),
(752,543,cs),
(752,653,o),
(667,714,o),
(548,714,cs),
(75,714,l),
(75,0,l)
);
},
{
closed = 1;
nodes = (
(174,334,l),
(539,334,ls),
(624,334,o),
(683,288,o),
(683,206,cs),
(683,126,o),
(621,80,o),
(534,80,cs),
(174,80,l)
);
},
{
closed = 1;
nodes = (
(174,634,l),
(520,634,ls),
(609,634,o),
(651,593,o),
(651,527,cs),
(651,459,o),
(607,409,o),
(530,409,cs),
(174,409,l)
);
}
);
width = 834;
},
{
guides = (
{
pos = (228,356);
}
);
layerId = "CF630257-B204-4765-8982-527F59E4E5D4";
shapes = (
{
closed = 1;
nodes = (
(364,0,ls),
(523,0,o),
(599,86,o),
(599,199,cs),
(599,308,o),
(515,365,o),
(428,375,c),
(519,402,o),
(560,468,o),
(560,544,cs),
(560,655,o),
(476,714,o),
(365,714,cs),
(90,714,l),
(90,0,l)
);
},
{
closed = 1;
nodes = (
(151,347,l),
(363,347,ls),
(466,347,o),
(536,284,o),
(536,198,cs),
(536,102,o),
(459,53,o),
(360,53,cs),
(151,53,l)
);
},
{
closed = 1;
nodes = (
(151,661,l),
(347,661,ls),
(449,661,o),
(498,613,o),
(498,538,cs),
(498,459,o),
(449,399,o),
(359,399,cs),
(151,399,l)
);
}
);
width = 653;
},
{
layerId = "89792DEA-715D-4C6B-9843-C33DBACDCF53";
shapes = (
{
closed = 1;
nodes = (
(245,0,ls),
(367,0,o),
(448,77,o),
(448,199,cs),
(448,297,o),
(391,365,o),
(293,376,c),
(379,392,o),
(417,462,o),
(417,545,cs),
(417,642,o),
(353,714,o),
(242,714,cs),
(82,714,l),
(82,0,l)
);
},
{
closed = 1;
nodes = (
(140,349,l),
(245,349,ls),
(337,349,o),
(388,283,o),
(388,200,cs),
(388,108,o),
(329,48,o),
(234,48,cs),
(140,48,l)
);
},
{
closed = 1;
nodes = (
(140,666,l),
(230,666,ls),
(318,666,o),
(358,607,o),
(358,537,cs),
(358,466,o),
(317,397,o),
(232,397,cs),
(140,397,l)
);
}
);
width = 488;
},
{
layerId = "F5B2086A-EC1C-45D9-9613-A3504CEE232E";
shapes = (
{
closed = 1;
nodes = (
(259,0,ls),
(380,0,o),
(464,78,o),
(464,200,cs),
(464,290,o),
(415,363,o),
(306,376,c),
(395,393,o),
(435,460,o),
(435,545,cs),
(435,645,o),
(366,714,o),
(252,714,cs),
(74,714,l),
(74,0,l)
);
},
{
closed = 1;
nodes = (
(158,340,l),
(252,340,ls),
(330,340,o),
(376,289,o),
(376,206,cs),
(376,121,o),
(325,67,o),
(244,67,cs),
(158,67,l)
);
},
{
closed = 1;
nodes = (
(158,647,l),
(241,647,ls),
(315,647,o),
(350,597,o),
(350,530,cs),
(350,463,o),
(311,407,o),
(240,407,cs),
(158,407,l)
);
}
);
width = 498;
},
{
layerId = "FEA946D2-303E-4050-8628-E645DE71E218";
shapes = (
{
closed = 1;
nodes = (
(388,0,ls),
(532,0,o),
(620,90,o),
(620,198,cs),
(620,290,o),
(557,358,o),
(446,374,c),
(532,397,o),
(586,462,o),
(584,544,cs),
(583,655,o),
(498,714,o),
(386,714,cs),
(84,714,l),
(84,0,l)
);
},
{
closed = 1;
nodes = (
(178,332,l),
(378,332,ls),
(462,332,o),
(522,282,o),
(522,208,cs),
(522,121,o),
(455,79,o),
(374,79,cs),
(178,79,l)
);
},
{
closed = 1;
nodes = (
(178,635,l),
(367,635,ls),
(449,635,o),
(489,593,o),
(489,528,cs),
(489,464,o),
(441,408,o),
(363,408,cs),
(178,408,l)
);
}
);
width = 670;
},
{
layerId = "F74FB5BD-F4A6-4696-AECE-814F0CF1BFBE";
shapes = (
{
closed = 1;
nodes = (
(295,0,ls),
(429,0,o),
(524,70,o),
(524,203,cs),
(524,276,o),
(479,360,o),
(355,377,c),
(450,403,o),
(496,459,o),
(496,542,cs),
(496,653,o),
(411,714,o),
(276,714,cs),
(37,714,l),
(37,0,l)
);
},
{
closed = 1;
nodes = (
(232,300,l),
(266,300,ls),
(295,300,o),
(324,281,o),
(324,223,cs),
(324,165,o),
(295,146,o),
(267,146,cs),
(232,146,l)
);
},
{
closed = 1;
nodes = (
(232,568,l),
(261,568,ls),
(286,568,o),
(307,549,o),
(307,504,cs),
(307,457,o),
(287,440,o),
(261,440,cs),
(232,440,l)
);
}
);
width = 536;
},
{
layerId = "3E78BF7E-2ACA-4E8F-B7F7-8733FDFDD1D6";
shapes = (
{
closed = 1;
nodes = (
(409,0,ls),
(564,0,o),
(662,63,o),
(662,198,cs),
(662,273,o),
(612,349,o),
(498,369,c),
(582,397,o),
(634,448,o),
(634,539,cs),
(634,647,o),
(548,714,o),
(410,714,cs),
(54,714,l),
(54,0,l)
);
},
{
closed = 1;
nodes = (
(255,292,l),
(393,292,ls),
(420,292,o),
(456,270,o),
(456,224,cs),
(456,179,o),
(421,154,o),
(393,154,cs),
(255,154,l)
);
},
{
closed = 1;
nodes = (
(255,560,l),
(374,560,ls),
(413,560,o),
(435,531,o),
(435,497,cs),
(435,463,o),
(413,435,o),
(374,435,cs),
(255,435,l)
);
}
);
width = 687;
},
{
layerId = "CEA8704A-49A9-4D73-A586-1E9554ACC001";
shapes = (
{
closed = 1;
nodes = (
(618,0,ls),
(773,0,o),
(873,65,o),
(873,194,cs),
(873,271,o),
(826,356,o),
(682,368,c),
(793,386,o),
(845,451,o),
(845,538,cs),
(845,653,o),
(755,714,o),
(619,714,cs),
(57,714,l),
(57,0,l)
);
},
{
closed = 1;
nodes = (
(279,288,l),
(585,288,ls),
(615,288,o),
(643,266,o),
(643,225,cs),
(643,184,o),
(615,165,o),
(586,165,cs),
(279,165,l)
);
},
{
closed = 1;
nodes = (
(279,549,l),
(566,549,ls),
(600,549,o),
(621,525,o),
(621,493,cs),
(621,460,o),
(600,437,o),
(565,437,cs),
(279,437,l)
);
}
);
width = 900;
}
);
metricLeft = H;
unicode = 66;
},
{
glyphname = C;
kernLeft = O;
kernRight = C;
lastChange = "2024-12-06 10:39:41 +0000";
layers = (
{
anchors = (
{
name = bottom;
pos = (478,0);
},
{
name = top;
pos = (478,714);
}
);
guides = (
{
pos = (801,472);
},
{
pos = (795,228);
}
);
layerId = m007;
shapes = (
{
closed = 1;
nodes = (
(681,-14,o),
(843,79,o),
(874,221,c),
(797,221,l),
(765,118,o),
(645,44,o),
(478,44,cs),
(250,44,o),
(119,167,o),
(119,357,cs),
(119,547,o),
(250,670,o),
(478,670,cs),
(646,670,o),
(767,596,o),
(797,493,c),
(874,493,l),
(844,636,o),
(682,728,o),
(478,728,cs),
(218,728,o),
(46,583,o),
(46,357,cs),
(46,132,o),
(218,-14,o),
(478,-14,cs)
);
}
);
width = 920;
},
{
anchors = (
{
name = bottom;
pos = (477,0);
},
{
name = top;
pos = (478,714);
}
);
layerId = "7DF63F5B-BA78-420A-94D8-89AFC26E7780";
shapes = (
{
closed = 1;
nodes = (
(692,-14,o),
(855,81,o),
(884,228,c),
(775,228,l),
(745,134,o),
(634,66,o),
(478,66,cs),
(268,66,o),
(145,180,o),
(145,357,cs),
(145,534,o),
(268,648,o),
(478,648,cs),
(635,648,o),
(748,580,o),
(776,486,c),
(884,486,l),
(856,634,o),
(693,728,o),
(478,728,cs),
(214,728,o),
(40,583,o),
(40,357,cs),
(40,131,o),
(214,-14,o),
(478,-14,cs)
);
}
);
width = 924;
},
{
anchors = (
{
name = bottom;
pos = (364,0);
},
{
name = top;
pos = (364,714);
}
);
background = {
shapes = (
{
closed = 1;
nodes = (
(532,-13,o),
(642,67,o),
(669,213,c),
(574,213,l),
(560,140,o),
(496,65,o),
(377,65,cs),
(237,65,o),
(149,189,o),
(149,357,cs),
(149,527,o),
(235,649,o),
(377,649,cs),
(489,649,o),
(550,576,o),
(567,505,c),
(662,505,l),
(643,630,o),
(540,727,o),
(377,727,cs),
(187,727,o),
(54,579,o),
(54,357,cs),
(54,134,o),
(184,-13,o),
(377,-13,cs)
);
}
);
};
layerId = "CF630257-B204-4765-8982-527F59E4E5D4";
shapes = (
{
closed = 1;
nodes = (
(504,-12,o),
(613,70,o),
(646,206,c),
(584,206,l),
(566,141,o),
(496,42,o),
(364,42,cs),
(209,42,o),
(118,183,o),
(118,357,cs),
(118,533,o),
(205,672,o),
(364,672,cs),
(487,672,o),
(561,582,o),
(579,512,c),
(641,512,l),
(619,640,o),
(503,726,o),
(364,726,cs),
(178,726,o),
(54,578,o),
(54,357,cs),
(54,138,o),
(174,-12,o),
(364,-12,cs)
);
}
);
width = 700;
},
{
anchors = (
{
name = bottom;
pos = (263,0);
},
{
name = top;
pos = (263,714);
}
);
guides = (
{
pos = (440,202);
},
{
pos = (428,515);
}
);
layerId = "89792DEA-715D-4C6B-9843-C33DBACDCF53";
shapes = (
{
closed = 1;
nodes = (
(395,-12,o),
(456,90,o),
(470,202,c),
(408,202,l),
(399,134,o),
(362,38,o),
(263,38,cs),
(149,38,o),
(105,182,o),
(105,358,cs),
(105,534,o),
(148,676,o),
(263,676,cs),
(360,676,o),
(398,584,o),
(407,515,c),
(469,515,l),
(457,625,o),
(395,726,o),
(263,726,cs),
(112,726,o),
(43,577,o),
(43,358,cs),
(43,139,o),
(111,-12,o),
(263,-12,cs)
);
}
);
width = 513;
},
{
anchors = (
{
name = bottom;
pos = (269,0);
},
{
name = top;
pos = (269,714);
}
);
layerId = "F5B2086A-EC1C-45D9-9613-A3504CEE232E";
shapes = (
{
closed = 1;
nodes = (
(407,-12,o),
(472,86,o),
(485,210,c),
(397,210,l),
(390,143,o),
(360,56,o),
(273,56,cs),
(169,56,o),
(128,184,o),
(128,358,cs),
(128,532,o),
(168,658,o),
(273,658,cs),
(359,658,o),
(388,574,o),
(396,507,c),
(484,507,l),
(473,627,o),
(409,726,o),
(269,726,cs),
(116,726,o),
(40,587,o),
(40,358,cs),
(40,129,o),
(116,-12,o),
(269,-12,cs)
);
}
);
width = 525;
},
{
anchors = (
{
name = bottom;
pos = (374,0);
},
{
name = top;
pos = (374,714);
}
);
layerId = "FEA946D2-303E-4050-8628-E645DE71E218";
shapes = (
{
closed = 1;
nodes = (
(531,-13,o),
(641,67,o),
(668,214,c),
(570,214,l),
(556,140,o),
(493,67,o),
(374,67,cs),
(236,67,o),
(150,190,o),
(150,357,cs),
(150,527,o),
(234,648,o),
(374,648,cs),
(486,648,o),
(546,575,o),
(563,504,c),
(661,504,l),
(647,630,o),
(539,727,o),
(374,727,cs),
(185,727,o),
(52,579,o),
(52,357,cs),
(52,134,o),
(182,-13,o),
(374,-13,cs)
);
}
);
width = 720;
},
{
anchors = (
{
name = bottom;
pos = (283,0);
},
{
name = top;
pos = (283,714);
}
);
layerId = "F74FB5BD-F4A6-4696-AECE-814F0CF1BFBE";
shapes = (
{
closed = 1;
nodes = (
(442,-13,o),
(538,74,o),
(549,239,c),
(350,239,l),
(344,184,o),
(330,140,o),
(289,140,cs),
(240,140,o),
(216,192,o),
(216,358,cs),
(216,524,o),
(240,574,o),
(289,574,cs),
(331,574,o),
(346,532,o),
(348,480,c),
(547,480,l),
(542,633,o),
(450,727,o),
(283,727,cs),
(125,727,o),
(15,625,o),
(15,358,cs),
(15,91,o),
(125,-13,o),
(283,-13,cs)
);
}
);
width = 564;
},
{
anchors = (
{
name = bottom;
pos = (385,0);
},
{
name = top;
pos = (385,714);
}
);
layerId = "3E78BF7E-2ACA-4E8F-B7F7-8733FDFDD1D6";
shapes = (
{
closed = 1;
nodes = (
(567,-13,o),
(698,73,o),
(725,253,c),
(517,253,l),
(493,166,o),
(445,148,o),
(389,148,cs),
(303,148,o),
(242,216,o),
(242,357,cs),
(242,499,o),
(303,566,o),
(389,566,cs),
(445,566,o),
(499,541,o),
(512,465,c),
(719,465,l),
(712,599,o),
(603,727,o),
(385,727,cs),
(184,727,o),
(34,589,o),
(34,357,cs),
(34,128,o),
(184,-13,o),
(385,-13,cs)
);
}
);
width = 759;
},
{
anchors = (
{
name = bottom;
pos = (488,0);
},
{
name = top;
pos = (488,714);
}
);
layerId = "CEA8704A-49A9-4D73-A586-1E9554ACC001";
shapes = (
{
closed = 1;
nodes = (
(758,-14,o),
(919,84,o),
(942,261,c),
(706,261,l),
(684,194,o),
(612,153,o),
(488,153,cs),
(344,153,o),
(251,229,o),
(251,357,cs),
(251,485,o),
(344,561,o),
(488,561,cs),
(612,561,o),
(684,519,o),
(706,453,c),
(942,453,l),
(920,627,o),
(757,728,o),
(488,728,cs),
(200,728,o),
(20,585,o),
(20,357,cs),
(20,129,o),
(200,-14,o),
(488,-14,cs)
);
}
);
width = 962;
}
);
metricLeft = O;
metricRight = O;
unicode = 67;
},
{
glyphname = D;
kernLeft = H;
kernRight = O;
lastChange = "2024-12-06 10:39:41 +0000";
layers = (
{
anchors = (
{
name = bottom;
pos = (455,0);
},
{
name = center;
pos = (224,357);
},
{
name = top;
pos = (436,714);
}
);
layerId = m007;
shapes = (
{
closed = 1;
nodes = (
(526,0,ls),
(727,0,o),
(868,143,o),
(868,357,cs),
(868,571,o),
(727,714,o),
(526,714,cs),
(82,714,l),
(82,0,l)
);
},
{
closed = 1;
nodes = (
(151,657,l),
(517,657,ls),
(684,657,o),
(795,542,o),
(795,357,cs),
(795,172,o),
(684,57,o),
(517,57,cs),
(151,57,l)
);
}
);
width = 914;
},
{
anchors = (
{
name = bottom;
pos = (452,0);
},
{
name = center;
pos = (213,357);
},
{
name = top;
pos = (437,714);
}
);
layerId = "7DF63F5B-BA78-420A-94D8-89AFC26E7780";
shapes = (
{
closed = 1;
nodes = (
(529,0,ls),
(733,0,o),
(881,140,o),
(881,357,cs),
(881,574,o),
(733,714,o),
(529,714,cs),
(75,714,l),
(75,0,l)
);
},
{
closed = 1;
nodes = (
(174,634,l),
(516,634,ls),
(667,634,o),
(776,532,o),
(776,357,cs),
(776,182,o),
(667,80,o),
(516,80,cs),
(174,80,l)
);
}
);
width = 921;
},
{
anchors = (
{
name = bottom;
pos = (331,0);
},
{
name = center;
pos = (168,357);
},
{
name = top;
pos = (331,714);
}
);
layerId = "CF630257-B204-4765-8982-527F59E4E5D4";
shapes = (
{
closed = 1;
nodes = (
(320,0,ls),
(518,0,o),
(642,145,o),
(642,357,cs),
(642,568,o),
(518,714,o),
(320,714,cs),
(90,714,l),
(90,0,l)
);
},
{
closed = 1;
nodes = (
(151,661,l),
(312,661,ls),
(481,661,o),
(578,543,o),
(578,357,cs),
(578,172,o),
(481,53,o),
(312,53,cs),
(151,53,l)
);
}
);
width = 696;
},
{
anchors = (
{
name = bottom;
pos = (334,0);
},
{
name = center;
pos = (151,363);
},
{
name = top;
pos = (251,714);
}
);
layerId = "89792DEA-715D-4C6B-9843-C33DBACDCF53";
shapes = (
{
closed = 1;
nodes = (
(221,0,ls),
(398,0,o),
(478,144,o),
(478,357,cs),
(478,570,o),
(398,714,o),
(221,714,cs),
(82,714,l),
(82,0,l)
);
},
{
closed = 1;
nodes = (
(140,666,l),
(217,666,ls),
(354,666,o),
(417,550,o),
(417,357,cs),
(417,164,o),
(354,48,o),
(217,48,cs),
(140,48,l)
);
}
);
width = 521;
},
{
anchors = (
{
name = bottom;
pos = (344,0);
},
{
name = center;
pos = (149,363);
},
{
name = top;
pos = (255,714);
}
);
layerId = "F5B2086A-EC1C-45D9-9613-A3504CEE232E";
shapes = (
{
closed = 1;
nodes = (
(232,0,ls),
(410,0,o),
(496,144,o),
(496,357,cs),
(496,570,o),
(410,714,o),
(232,714,cs),
(74,714,l),
(74,0,l)
);
},
{
closed = 1;
nodes = (
(158,647,l),
(227,647,ls),
(348,647,o),
(408,541,o),
(408,357,cs),
(408,174,o),
(348,67,o),
(227,67,cs),
(158,67,l)
);
}
);
width = 536;
},
{
anchors = (
{
name = bottom;
pos = (358,0);
},
{
name = center;
pos = (170,357);
},
{
name = top;
pos = (334,714);
}
);
layerId = "FEA946D2-303E-4050-8628-E645DE71E218";
shapes = (
{
closed = 1;
nodes = (
(332,0,ls),
(535,0,o),
(666,152,o),
(666,357,cs),
(666,562,o),
(535,714,o),
(332,714,cs),
(84,714,l),
(84,0,l)
);
},
{
closed = 1;
nodes = (
(178,635,l),
(325,635,ls),
(474,635,o),
(568,526,o),
(568,357,cs),
(568,189,o),
(474,79,o),
(325,79,cs),
(178,79,l)
);
}
);
width = 718;
},
{
anchors = (
{
name = bottom;
pos = (349,0);
},
{
name = center;
pos = (142,363);
},
{
name = top;
pos = (261,714);
}
);
layerId = "F74FB5BD-F4A6-4696-AECE-814F0CF1BFBE";
shapes = (
{
closed = 1;
nodes = (
(266,0,ls),
(444,0,o),
(557,133,o),
(557,358,cs),
(557,582,o),
(444,714,o),
(266,714,cs),
(37,714,l),
(37,0,l)
);
},
{
closed = 1;
nodes = (
(232,561,l),
(259,561,ls),
(308,561,o),
(355,513,o),
(355,358,cs),
(355,203,o),
(308,153,o),
(259,153,cs),
(232,153,l)
);
}
);
width = 572;
},
{
anchors = (
{
name = bottom;
pos = (326,0);
},
{
name = center;
pos = (178,357);
},
{
name = top;
pos = (344,714);
}
);
layerId = "3E78BF7E-2ACA-4E8F-B7F7-8733FDFDD1D6";
shapes = (
{
closed = 1;
nodes = (
(364,0,ls),
(556,0,o),
(716,126,o),
(716,357,cs),
(716,587,o),
(556,714,o),
(364,714,cs),
(54,714,l),
(54,0,l)
);
},
{
closed = 1;
nodes = (
(255,555,l),
(347,555,ls),
(415,555,o),
(509,515,o),
(509,357,cs),
(509,200,o),
(415,159,o),
(347,159,cs),
(255,159,l)
);
}
);
width = 750;
},
{
anchors = (
{
name = bottom;
pos = (450,0);
},
{
name = center;
pos = (227,357);
},
{
name = top;
pos = (451,714);
}
);
layerId = "CEA8704A-49A9-4D73-A586-1E9554ACC001";
shapes = (
{
closed = 1;
nodes = (
(549,0,ls),
(765,0,o),
(940,125,o),
(940,357,cs),
(940,589,o),
(765,714,o),
(549,714,cs),
(57,714,l),
(57,0,l)
);
},
{
closed = 1;
nodes = (
(279,547,l),
(519,547,ls),
(605,547,o),
(711,498,o),
(711,357,cs),
(711,216,o),
(605,167,o),
(519,167,cs),
(279,167,l)
);
}
);
width = 960;
}
);
metricLeft = H;
metricRight = O;
unicode = 68;
},
{
glyphname = E;
kernLeft = H;
kernRight = E;
lastChange = "2024-12-06 10:39:41 +0000";
layers = (
{
anchors = (
{
name = bottom;
pos = (394,0);
},
{
name = ogonek;
pos = (706,0);
},
{
name = top;
pos = (394,714);
},
{
name = topleft;
pos = (19,714);
}
);
layerId = m007;
shapes = (
{
closed = 1;
nodes = (
(706,0,l),
(706,57,l),
(151,57,l),
(151,340,l),
(665,340,l),
(665,396,l),
(151,396,l),
(151,657,l),
(706,657,l),
(706,714,l),
(82,714,l),
(82,0,l)
);
}
);
width = 769;
},
{
anchors = (
{
name = bottom;
pos = (397,0);
},
{
name = ogonek;
pos = (718,0);
},
{
name = top;
pos = (397,714);
},
{
name = topleft;
pos = (18,714);
}
);
layerId = "7DF63F5B-BA78-420A-94D8-89AFC26E7780";
shapes = (
{
closed = 1;
nodes = (
(718,0,l),
(718,80,l),
(175,80,l),
(175,327,l),
(677,327,l),
(677,405,l),
(175,405,l),
(175,634,l),
(718,634,l),
(718,714,l),
(75,714,l),
(75,0,l)
);
}
);
width = 775;
},
{
anchors = (
{
name = bottom;
pos = (317,0);
},
{
name = ogonek;
pos = (545,0);
},
{
name = top;
pos = (317,714);
},
{
name = topleft;
pos = (37,714);
}
);
layerId = "CF630257-B204-4765-8982-527F59E4E5D4";
shapes = (
{
closed = 1;
nodes = (
(545,0,l),
(545,53,l),
(151,53,l),
(151,356,l),
(511,356,l),
(511,406,l),
(151,406,l),
(151,661,l),
(545,661,l),
(545,714,l),
(90,714,l),
(90,0,l)
);
}
);
width = 609;
},
{
anchors = (
{
name = bottom;
pos = (245,0);
},
{
name = ogonek;
pos = (408,0);
},
{
name = top;
pos = (245,714);
},
{
name = topleft;
pos = (14,714);
}
);
layerId = "89792DEA-715D-4C6B-9843-C33DBACDCF53";
shapes = (
{
closed = 1;
nodes = (
(408,0,l),
(408,48,l),
(140,48,l),
(140,356,l),
(371,356,l),
(371,403,l),
(140,403,l),
(140,666,l),
(408,666,l),
(408,714,l),
(82,714,l),
(82,0,l)
);
}
);
width = 453;
},
{
anchors = (
{
name = bottom;
pos = (247,0);
},
{
name = ogonek;
pos = (419,0);
},
{
name = top;
pos = (247,714);
},
{
name = topleft;
pos = (16,714);
}
);
layerId = "F5B2086A-EC1C-45D9-9613-A3504CEE232E";
shapes = (
{
closed = 1;
nodes = (
(419,0,l),
(419,67,l),
(158,67,l),
(158,343,l),
(382,343,l),
(382,407,l),
(158,407,l),
(158,647,l),
(419,647,l),
(419,714,l),
(74,714,l),
(74,0,l)
);
}
);
width = 457;
},
{
anchors = (
{
name = bottom;
pos = (323,0);
},
{
name = ogonek;
pos = (564,0);
},
{
name = top;
pos = (323,714);
},
{
name = topleft;
pos = (28,714);
}
);
layerId = "FEA946D2-303E-4050-8628-E645DE71E218";
shapes = (
{
closed = 1;
nodes = (
(564,0,l),
(564,79,l),
(178,79,l),
(178,336,l),
(531,336,l),
(531,412,l),
(178,412,l),
(178,635,l),
(564,635,l),
(564,714,l),
(84,714,l),
(84,0,l)
);
}
);
width = 620;
},
{
anchors = (
{
name = bottom;
pos = (243,0);
},
{
name = ogonek;
pos = (450,0);
},
{
name = top;
pos = (243,714);
},
{
name = topleft;
pos = (22,714);
}
);
layerId = "F74FB5BD-F4A6-4696-AECE-814F0CF1BFBE";
shapes = (
{
closed = 1;
nodes = (
(449,0,l),
(449,153,l),
(232,153,l),
(232,281,l),
(411,281,l),
(411,431,l),
(232,431,l),
(232,561,l),
(449,561,l),
(449,714,l),
(37,714,l),
(37,0,l)
);
}
);
width = 474;
},
{
anchors = (
{
name = bottom;
pos = (323,0);
},
{
name = ogonek;
pos = (594,0);
},
{
name = top;
pos = (323,714);
},
{
name = topleft;
pos = (-8,714);
}
);
layerId = "3E78BF7E-2ACA-4E8F-B7F7-8733FDFDD1D6";
shapes = (
{
closed = 1;
nodes = (
(593,0,l),
(593,159,l),
(255,159,l),
(255,279,l),
(555,279,l),
(555,433,l),
(255,433,l),
(255,555,l),
(593,555,l),
(593,714,l),
(54,714,l),
(54,0,l)
);
}
);
width = 632;
},
{
anchors = (
{
name = bottom;
pos = (419,0);
},
{
name = ogonek;
pos = (781,0);
},
{
name = top;
pos = (419,714);
},
{
name = topleft;
pos = (22,714);
}
);
layerId = "CEA8704A-49A9-4D73-A586-1E9554ACC001";
shapes = (
{
closed = 1;
nodes = (
(781,0,l),
(781,167,l),
(279,167,l),
(279,278,l),
(742,278,l),
(742,437,l),
(279,437,l),
(279,547,l),
(781,547,l),
(781,714,l),
(57,714,l),
(57,0,l)
);
}
);
width = 822;
}
);
metricLeft = H;
unicode = 69;
},
{
glyphname = F;
kernLeft = H;
kernRight = F;
lastChange = "2025-01-20 20:54:38 +0000";
layers = (
{
layerId = m007;
shapes = (
{
closed = 1;
nodes = (
(151,0,l),
(151,350,l),
(670,350,l),
(670,406,l),
(151,406,l),
(151,657,l),
(698,657,l),
(698,714,l),
(82,714,l),
(82,0,l)
);
}
);
width = 745;
},
{
layerId = "7DF63F5B-BA78-420A-94D8-89AFC26E7780";
shapes = (
{
closed = 1;
nodes = (
(174,0,l),
(174,334,l),
(681,334,l),
(681,411,l),
(174,411,l),
(174,634,l),
(712,634,l),
(712,714,l),
(75,714,l),
(75,0,l)
);
}
);
width = 754;
},
{
guides = (
{
angle = 180;
pos = (278,715);
}
);
layerId = "CF630257-B204-4765-8982-527F59E4E5D4";
shapes = (
{
closed = 1;
nodes = (
(151,0,l),
(151,356,l),
(514,356,l),
(514,406,l),
(151,406,l),
(151,661,l),
(542,661,l),
(542,714,l),
(90,714,l),
(90,0,l)
);
}
);
width = 582;
},
{
layerId = "89792DEA-715D-4C6B-9843-C33DBACDCF53";
shapes = (
{
closed = 1;
nodes = (
(140,0,l),
(140,357,l),
(374,357,l),
(374,403,l),
(140,403,l),
(140,666,l),
(402,666,l),
(402,714,l),
(82,714,l),
(82,0,l)
);
}
);
width = 435;
},
{
layerId = "F5B2086A-EC1C-45D9-9613-A3504CEE232E";
shapes = (
{
closed = 1;
nodes = (
(158,0,l),
(158,340,l),
(385,340,l),
(385,405,l),
(158,405,l),
(158,647,l),
(414,647,l),
(414,714,l),
(74,714,l),
(74,0,l)
);
}
);
width = 442;
},
{
layerId = "FEA946D2-303E-4050-8628-E645DE71E218";
shapes = (
{
closed = 1;
nodes = (
(178,0,l),
(178,334,l),
(533,334,l),
(533,410,l),
(178,410,l),
(178,635,l),
(560,635,l),
(560,714,l),
(84,714,l),
(84,0,l)
);
}
);
width = 595;
},
{
layerId = "F74FB5BD-F4A6-4696-AECE-814F0CF1BFBE";
shapes = (
{
closed = 1;
nodes = (
(232,0,l),
(232,271,l),
(409,271,l),
(409,420,l),
(232,420,l),
(232,561,l),
(449,561,l),
(449,714,l),
(37,714,l),
(37,0,l)
);
}
);
width = 463;
},
{
layerId = "3E78BF7E-2ACA-4E8F-B7F7-8733FDFDD1D6";
shapes = (
{
closed = 1;
nodes = (
(255,0,l),
(255,269,l),
(562,269,l),
(562,422,l),
(255,422,l),
(255,555,l),
(590,555,l),
(590,714,l),
(54,714,l),
(54,0,l)
);
}
);
width = 615;
},
{
layerId = "CEA8704A-49A9-4D73-A586-1E9554ACC001";
shapes = (
{
closed = 1;
nodes = (
(279,0,l),
(279,266,l),
(737,266,l),
(737,424,l),
(279,424,l),
(279,547,l),
(777,547,l),
(777,714,l),
(57,714,l),
(57,0,l)
);
}
);
width = 809;
}
);
metricLeft = H;
unicode = 70;
},
{
glyphname = G;
kernLeft = O;
kernRight = G;
lastChange = "2024-12-06 10:39:41 +0000";
layers = (
{
anchors = (
{
name = bottom;
pos = (478,0);
},
{
name = top;
pos = (478,714);
}
);
layerId = m007;
shapes = (
{
closed = 1;
nodes = (
(658,-14,o),
(758,72,o),
(802,167,c),
(802,0,l),
(869,0,l),
(869,359,l),
(453,359,l),
(453,302,l),
(842,302,l),
(807,317,l),
(803,158,o),
(683,43,o),
(478,43,cs),
(250,43,o),
(119,167,o),
(119,357,cs),
(119,547,o),
(250,671,o),
(478,671,cs),
(646,671,o),
(758,596,o),
(787,510,c),
(865,510,l),
(834,636,o),
(682,728,o),
(478,728,cs),
(218,728,o),
(46,583,o),
(46,357,cs),
(46,131,o),
(218,-14,o),
(460,-14,cs)
);
}
);
width = 949;
},
{
anchors = (
{
name = bottom;
pos = (478,0);
},
{
name = top;
pos = (478,714);
}
);
layerId = "7DF63F5B-BA78-420A-94D8-89AFC26E7780";
shapes = (
{
closed = 1;
nodes = (
(633,-14,o),
(733,65,o),
(782,156,c),
(784,0,l),
(878,0,l),
(878,367,l),
(463,367,l),
(463,288,l),
(825,288,l),
(786,321,l),
(781,167,o),
(665,66,o),
(478,66,cs),
(268,66,o),
(145,180,o),
(145,357,cs),
(145,534,o),
(268,648,o),
(478,648,cs),
(635,648,o),
(737,580,o),
(766,500,c),
(875,500,l),
(845,634,o),
(691,728,o),
(478,728,cs),
(214,728,o),
(40,583,o),
(40,357,cs),
(40,131,o),
(216,-14,o),
(452,-14,cs)
);
}
);
width = 949;
},
{
anchors = (
{
name = bottom;
pos = (377,0);
},
{
name = top;
pos = (377,714);
}
);
guides = (
{
angle = 180;
pos = (370,341);
},
{
angle = 180;
pos = (370,289);
}
);
layerId = "CF630257-B204-4765-8982-527F59E4E5D4";
shapes = (
{
closed = 1;
nodes = (
(479,-12,o),
(557,40,o),
(598,132,c),
(598,0,l),
(659,0,l),
(659,348,l),
(378,348,l),
(378,295,l),
(643,295,l),
(605,325,l),
(607,116,o),
(492,42,o),
(372,42,cs),
(212,42,o),
(118,176,o),
(118,357,cs),
(118,533,o),
(214,672,o),
(377,672,cs),
(506,672,o),
(576,583,o),
(590,525,c),
(654,525,l),
(632,645,o),
(521,726,o),
(377,726,cs),
(186,726,o),
(54,578,o),
(54,357,cs),
(54,138,o),
(178,-12,o),
(366,-12,cs)
);
}
);
width = 739;
},
{
anchors = (
{
name = bottom;
pos = (266,0);
},
{
name = top;
pos = (266,714);
}
);
guides = (
{
pos = (401,541);
}
);
layerId = "89792DEA-715D-4C6B-9843-C33DBACDCF53";
shapes = (
{
closed = 1;
nodes = (
(336,-12,o),
(387,32,o),
(412,122,c),
(412,0,l),
(470,0,l),
(470,356,l),
(267,356,l),
(267,308,l),
(448,308,l),
(416,319,l),
(416,151,o),
(359,38,o),
(266,38,cs),
(148,38,o),
(105,179,o),
(105,358,cs),
(105,537,o),
(147,676,o),
(266,676,cs),
(343,676,o),
(388,613,o),
(401,541,c),
(463,541,l),
(447,652,o),
(376,726,o),
(266,726,cs),
(111,726,o),
(43,580,o),
(43,358,cs),
(43,136,o),
(109,-12,o),
(257,-12,cs)
);
}
);
width = 540;
},
{
anchors = (
{
name = bottom;
pos = (270,0);
},
{
name = top;
pos = (271,714);
}
);
guides = (
{
angle = 180;
pos = (436,529);
}
);
layerId = "F5B2086A-EC1C-45D9-9613-A3504CEE232E";
shapes = (
{
closed = 1;
nodes = (
(332,-12,o),
(380,28,o),
(406,111,c),
(406,0,l),
(488,0,l),
(488,365,l),
(270,365,l),
(270,299,l),
(452,299,l),
(405,323,l),
(406,158,o),
(355,56,o),
(270,56,cs),
(167,56,o),
(128,182,o),
(128,358,cs),
(128,534,o),
(167,658,o),
(271,658,cs),
(340,658,o),
(380,598,o),
(392,529,c),
(479,529,l),
(465,653,o),
(389,726,o),
(271,726,cs),
(115,726,o),
(40,589,o),
(40,358,cs),
(40,128,o),
(114,-12,o),
(254,-12,cs)
);
}
);
width = 549;
},
{
anchors = (
{
name = bottom;
pos = (381,0);
},
{
name = top;
pos = (381,714);
}
);
guides = (
{
pos = (583,517);
}
);
layerId = "FEA946D2-303E-4050-8628-E645DE71E218";
shapes = (
{
closed = 1;
nodes = (
(482,-13,o),
(560,35,o),
(603,123,c),
(603,0,l),
(693,0,l),
(693,364,l),
(387,364,l),
(387,287,l),
(644,287,l),
(604,329,l),
(603,134,o),
(497,66,o),
(385,66,cs),
(244,66,o),
(150,189,o),
(150,357,cs),
(150,527,o),
(242,648,o),
(386,648,cs),
(500,648,o),
(567,580,o),
(582,517,c),
(679,517,l),
(659,638,o),
(557,727,o),
(386,727,cs),
(193,727,o),
(52,579,o),
(52,357,cs),
(52,134,o),
(193,-13,o),
(367,-13,cs)
);
}
);
width = 765;
},
{
anchors = (
{
name = bottom;
pos = (287,0);
},
{
name = top;
pos = (286,714);
}
);
layerId = "F74FB5BD-F4A6-4696-AECE-814F0CF1BFBE";
shapes = (
{
closed = 1;
nodes = (
(310,-13,o),
(355,16,o),
(381,71,c),
(381,0,l),
(543,0,l),
(543,392,l),
(288,392,l),
(288,259,l),
(464,259,l),
(358,333,l),
(355,176,o),
(331,140,o),
(285,140,cs),
(237,140,o),
(216,192,o),
(216,359,cs),
(216,526,o),
(238,574,o),
(288,574,cs),
(327,574,o),
(343,535,o),
(348,498,c),
(543,498,l),
(535,656,o),
(429,727,o),
(286,727,cs),
(130,727,o),
(15,624,o),
(15,358,cs),
(15,92,o),
(119,-13,o),
(239,-13,cs)
);
}
);
width = 577;
},
{
anchors = (
{
name = bottom;
pos = (388,0);
},
{
name = top;
pos = (388,714);
}
);
layerId = "3E78BF7E-2ACA-4E8F-B7F7-8733FDFDD1D6";
shapes = (
{
closed = 1;
nodes = (
(447,-13,o),
(514,25,o),
(554,104,c),
(554,0,l),
(721,0,l),
(721,392,l),
(391,392,l),
(391,247,l),
(575,247,l),
(522,325,l),
(511,176,o),
(448,148,o),
(382,148,cs),
(294,148,o),
(242,216,o),
(242,357,cs),
(242,501,o),
(299,566,o),
(392,566,cs),
(440,566,o),
(491,547,o),
(507,498,c),
(714,498,l),
(700,604,o),
(612,727,o),
(387,727,cs),
(188,727,o),
(34,588,o),
(34,357,cs),
(34,128,o),
(170,-13,o),
(346,-13,cs)
);
}
);
width = 771;
},
{
anchors = (
{
name = bottom;
pos = (490,0);
},
{
name = top;
pos = (490,714);
}
);
layerId = "CEA8704A-49A9-4D73-A586-1E9554ACC001";
shapes = (
{
closed = 1;
nodes = (
(554,-14,o),
(658,22,o),
(724,104,c),
(724,0,l),
(935,0,l),
(935,388,l),
(511,388,l),
(511,245,l),
(782,245,l),
(727,338,l),
(716,204,o),
(612,153,o),
(489,153,cs),
(344,153,o),
(251,229,o),
(251,357,cs),
(251,485,o),
(345,561,o),
(489,561,cs),
(611,561,o),
(674,519,o),
(697,479,c),
(933,479,l),
(911,627,o),
(745,728,o),
(490,728,cs),
(202,728,o),
(20,585,o),
(20,357,cs),
(20,129,o),
(212,-14,o),
(430,-14,cs)
);
}
);
width = 990;
}
);
metricLeft = O;
unicode = 71;
},
{
glyphname = H;
kernLeft = H;
kernRight = H;
lastChange = "2024-12-06 10:39:41 +0000";
layers = (
{
anchors = (
{
name = bottom;
pos = (435,0);
},
{
name = center;
pos = (435,538);
},
{
name = top;
pos = (435,714);
},
{
name = topleft;
pos = (12,714);
}
);
layerId = m007;
shapes = (
{
closed = 1;
nodes = (
(151,0,l),
(151,341,l),
(718,341,l),
(718,0,l),
(787,0,l),
(787,714,l),
(718,714,l),
(718,398,l),
(151,398,l),
(151,714,l),
(82,714,l),
(82,0,l)
);
}
);
width = 869;
},
{
anchors = (
{
name = bottom;
pos = (440,0);
},
{
name = center;
pos = (440,536);
},
{
name = top;
pos = (440,714);
},
{
name = topleft;
pos = (15,714);
}
);
layerId = "7DF63F5B-BA78-420A-94D8-89AFC26E7780";
shapes = (
{
closed = 1;
nodes = (
(175,0,l),
(175,327,l),
(704,327,l),
(704,0,l),
(804,0,l),
(804,714,l),
(704,714,l),
(704,407,l),
(175,407,l),
(175,714,l),
(75,714,l),
(75,0,l)
);
}
);
width = 879;
},
{
anchors = (
{
name = bottom;
pos = (350,0);
},
{
name = center;
pos = (350,543);
},
{
name = top;
pos = (350,714);
},
{
name = topleft;
pos = (25,714);
}
);
layerId = "CF630257-B204-4765-8982-527F59E4E5D4";
shapes = (
{
closed = 1;
nodes = (
(151,0,l),
(151,345,l),
(549,345,l),
(549,0,l),
(610,0,l),
(610,714,l),
(549,714,l),
(549,398,l),
(151,398,l),
(151,714,l),
(90,714,l),
(90,0,l)
);
}
);
width = 700;
},
{
anchors = (
{
name = bottom;
pos = (267,0);
},
{
name = center;
pos = (267,537);
},
{
name = top;
pos = (267,714);
},
{
name = topleft;
pos = (21,714);
}
);
layerId = "89792DEA-715D-4C6B-9843-C33DBACDCF53";
shapes = (
{
closed = 1;
nodes = (
(140,0,l),
(140,348,l),
(396,348,l),
(396,0,l),
(454,0,l),
(454,714,l),
(396,714,l),
(396,396,l),
(140,396,l),
(140,714,l),
(82,714,l),
(82,0,l)
);
}
);
width = 536;
},
{
anchors = (
{
name = bottom;
pos = (272,0);
},
{
name = center;
pos = (272,537);
},
{
name = top;
pos = (272,714);
},
{
name = topleft;
pos = (19,714);
}
);
layerId = "F5B2086A-EC1C-45D9-9613-A3504CEE232E";
shapes = (
{
closed = 1;
nodes = (
(158,0,l),
(158,338,l),
(387,338,l),
(387,0,l),
(470,0,l),
(470,714,l),
(387,714,l),
(387,404,l),
(158,404,l),
(158,714,l),
(74,714,l),
(74,0,l)
);
}
);
width = 544;
},
{
anchors = (
{
name = bottom;
pos = (357,0);
},
{
name = center;
pos = (357,541);
},
{
name = top;
pos = (357,714);
},
{
name = topleft;
pos = (26,714);
}
);
layerId = "FEA946D2-303E-4050-8628-E645DE71E218";
shapes = (
{
closed = 1;
nodes = (
(178,0,l),
(178,328,l),
(537,328,l),
(537,0,l),
(631,0,l),
(631,714,l),
(537,714,l),
(537,408,l),
(178,408,l),
(178,714,l),
(84,714,l),
(84,0,l)
);
}
);
width = 715;
},
{
anchors = (
{
name = bottom;
pos = (286,0);
},
{
name = center;
pos = (286,554);
},
{
name = top;
pos = (286,714);
},
{
name = topleft;
pos = (5,714);
}
);
layerId = "F74FB5BD-F4A6-4696-AECE-814F0CF1BFBE";
shapes = (
{
closed = 1;
nodes = (
(232,0,l),
(232,291,l),
(340,291,l),
(340,0,l),
(534,0,l),
(534,714,l),
(340,714,l),
(340,444,l),
(232,444,l),
(232,714,l),
(37,714,l),
(37,0,l)
);
}
);
width = 571;
},
{
anchors = (
{
name = bottom;
pos = (364,0);
},
{
name = center;
pos = (364,550);
},
{
name = top;
pos = (364,714);
},
{
name = topleft;
pos = (28,714);
}
);
layerId = "3E78BF7E-2ACA-4E8F-B7F7-8733FDFDD1D6";
shapes = (
{
closed = 1;
nodes = (
(255,0,l),
(255,273,l),
(473,273,l),
(473,0,l),
(673,0,l),
(673,714,l),
(473,714,l),
(473,437,l),
(255,437,l),
(255,714,l),
(54,714,l),
(54,0,l)
);
}
);
width = 728;
},
{
anchors = (
{
name = bottom;
pos = (465,0);
},
{
name = center;
pos = (465,559);
},
{
name = top;
pos = (465,714);
},
{
name = topleft;
pos = (32,714);
}
);
layerId = "CEA8704A-49A9-4D73-A586-1E9554ACC001";
shapes = (
{
closed = 1;
nodes = (
(279,0,l),
(279,271,l),
(652,271,l),
(652,0,l),
(873,0,l),
(873,714,l),
(652,714,l),
(652,439,l),
(279,439,l),
(279,714,l),
(57,714,l),
(57,0,l)
);
}
);
width = 931;
}
);
unicode = 72;
},
{
glyphname = I;
kernLeft = H;
kernRight = H;
lastChange = "2024-12-06 10:39:41 +0000";
layers = (
{
anchors = (
{
name = bottom;
pos = (116,0);
},
{
name = ogonek;
pos = (151,0);
},
{
name = top;
pos = (116,714);
},
{
name = topleft;
pos = (18,714);
}
);
layerId = m007;
shapes = (
{
closed = 1;
nodes = (
(151,0,l),
(151,714,l),
(82,714,l),
(82,0,l)
);
}
);
width = 233;
},
{
anchors = (
{
name = bottom;
pos = (125,0);
},
{
name = ogonek;
pos = (174,0);
},
{
name = top;
pos = (125,714);
},
{
name = topleft;
pos = (13,714);
}
);
layerId = "7DF63F5B-BA78-420A-94D8-89AFC26E7780";
shapes = (
{
closed = 1;
nodes = (
(174,0,l),
(174,714,l),
(75,714,l),
(75,0,l)
);
}
);
width = 249;
},
{
anchors = (
{
name = bottom;
pos = (120,0);
},
{
name = ogonek;
pos = (150,0);
},
{
name = top;
pos = (120,714);
},
{
name = topleft;
pos = (26,714);
}
);
layerId = "CF630257-B204-4765-8982-527F59E4E5D4";
shapes = (
{
closed = 1;
nodes = (
(151,0,l),
(151,714,l),
(90,714,l),
(90,0,l)
);
}
);
width = 241;
},
{
anchors = (
{
name = bottom;
pos = (111,0);
},
{
name = ogonek;
pos = (140,0);
},
{
name = top;
pos = (111,714);
},
{
name = topleft;
pos = (4,714);
}
);
layerId = "89792DEA-715D-4C6B-9843-C33DBACDCF53";
shapes = (
{
closed = 1;
nodes = (
(140,0,l),
(140,714,l),
(82,714,l),
(82,0,l)
);
}
);
width = 222;
},
{
anchors = (
{
name = bottom;
pos = (116,0);
},
{
name = ogonek;
pos = (158,0);
},
{
name = top;
pos = (116,714);
},
{
name = topleft;
pos = (2,714);
}
);
layerId = "F5B2086A-EC1C-45D9-9613-A3504CEE232E";
shapes = (
{
closed = 1;
nodes = (
(158,0,l),
(158,714,l),
(74,714,l),
(74,0,l)
);
}
);
width = 232;
},
{
anchors = (
{
name = bottom;
pos = (131,0);
},
{
name = ogonek;
pos = (177,0);
},
{
name = top;
pos = (131,714);
},
{
name = topleft;
pos = (19,714);
}
);
layerId = "FEA946D2-303E-4050-8628-E645DE71E218";
shapes = (
{
closed = 1;
nodes = (
(178,0,l),
(178,714,l),
(84,714,l),
(84,0,l)
);
}
);
width = 262;
},
{
anchors = (
{
name = bottom;
pos = (135,0);
},
{
name = ogonek;
pos = (232,0);
},
{
name = top;
pos = (135,714);
},
{
name = topleft;
pos = (-10,714);
}
);
layerId = "F74FB5BD-F4A6-4696-AECE-814F0CF1BFBE";
shapes = (
{
closed = 1;
nodes = (
(232,0,l),
(232,714,l),
(37,714,l),
(37,0,l)
);
}
);
width = 269;
},
{
anchors = (
{
name = bottom;
pos = (154,0);
},
{
name = ogonek;
pos = (255,0);
},
{
name = top;
pos = (154,714);
},
{
name = topleft;
pos = (-11,714);
}
);
layerId = "3E78BF7E-2ACA-4E8F-B7F7-8733FDFDD1D6";
shapes = (
{
closed = 1;
nodes = (
(255,0,l),
(255,714,l),
(54,714,l),
(54,0,l)
);
}
);
width = 310;
},
{
anchors = (
{
name = bottom;
pos = (168,0);
},
{
name = ogonek;
pos = (279,0);
},
{
name = top;
pos = (168,714);
},
{
name = topleft;
pos = (3,714);
}
);
layerId = "CEA8704A-49A9-4D73-A586-1E9554ACC001";
shapes = (
{
closed = 1;
nodes = (
(279,0,l),
(279,714,l),
(57,714,l),
(57,0,l)
);
}
);
width = 337;
}
);
metricLeft = H;
metricRight = H;
unicode = 73;
},
{
glyphname = J;
kernLeft = J;
kernRight = J;
lastChange = "2024-12-06 10:39:41 +0000";
layers = (
{
anchors = (
{
name = bottom;
pos = (255,0);
},
{
name = top;
pos = (379,714);
}
);
layerId = m007;
shapes = (
{
closed = 1;
nodes = (
(239,0,ls),
(342,0,o),
(414,65,o),
(414,161,cs),
(414,714,l),
(345,714,l),
(345,176,ls),
(345,104,o),
(296,57,o),
(221,57,cs),
(20,57,l),
(20,0,l)
);
}
);
width = 488;
},
{
anchors = (
{
name = bottom;
pos = (253,0);
},
{
name = top;
pos = (376,714);
}
);
layerId = "7DF63F5B-BA78-420A-94D8-89AFC26E7780";
shapes = (
{
closed = 1;
nodes = (
(225,0,ls),
(342,0,o),
(426,67,o),
(426,185,cs),
(426,714,l),
(326,714,l),
(326,199,ls),
(326,128,o),
(276,80,o),
(203,80,cs),
(12,80,l),
(12,0,l)
);
}
);
width = 494;
},
{
anchors = (
{
name = bottom;
pos = (242,0);
},
{
name = top;
pos = (298,714);
}
);
layerId = "CF630257-B204-4765-8982-527F59E4E5D4";
shapes = (
{
closed = 1;
nodes = (
(171,0,ls),
(267,0,o),
(328,63,o),
(328,161,cs),
(328,714,l),
(266,714,l),
(266,188,ls),
(266,100,o),
(231,53,o),
(156,53,cs),
(31,53,l),
(31,0,l)
);
}
);
width = 410;
},
{
anchors = (
{
name = bottom;
pos = (139,0);
},
{
name = top;
pos = (205,714);
}
);
layerId = "89792DEA-715D-4C6B-9843-C33DBACDCF53";
shapes = (
{
closed = 1;
nodes = (
(82,0,ls),
(179,0,o),
(234,46,o),
(234,138,cs),
(234,714,l),
(176,714,l),
(176,158,ls),
(176,83,o),
(152,48,o),
(70,48,cs),
(24,48,l),
(24,0,l)
);
}
);
width = 309;
},
{
anchors = (
{
name = bottom;
pos = (137,0);
},
{
name = top;
pos = (217,714);
}
);
layerId = "F5B2086A-EC1C-45D9-9613-A3504CEE232E";
shapes = (
{
closed = 1;
nodes = (
(86,0,ls),
(194,0,o),
(259,52,o),
(259,155,cs),
(259,714,l),
(175,714,l),
(175,170,ls),
(175,103,o),
(145,67,o),
(72,67,cs),
(22,67,l),
(22,0,l)
);
}
);
width = 327;
},
{
anchors = (
{
name = bottom;
pos = (247,0);
},
{
name = top;
pos = (314,714);
}
);
layerId = "FEA946D2-303E-4050-8628-E645DE71E218";
shapes = (
{
closed = 1;
nodes = (
(161,0,ls),
(280,0,o),
(361,69,o),
(361,187,cs),
(361,714,l),
(267,714,l),
(267,193,ls),
(267,119,o),
(213,80,o),
(151,80,cs),
(28,80,l),
(28,0,l)
);
}
);
width = 440;
},
{
anchors = (
{
name = bottom;
pos = (131,0);
},
{
name = top;
pos = (258,714);
}
);
layerId = "F74FB5BD-F4A6-4696-AECE-814F0CF1BFBE";
shapes = (
{
closed = 1;
nodes = (
(122,0,ls),
(262,0,o),
(355,74,o),
(355,211,cs),
(355,714,l),
(160,714,l),
(160,226,ls),
(160,182,o),
(128,153,o),
(85,153,cs),
(18,153,l),
(18,0,l)
);
}
);
width = 387;
},
{
anchors = (
{
name = bottom;
pos = (264,0);
},
{
name = top;
pos = (330,714);
}
);
layerId = "3E78BF7E-2ACA-4E8F-B7F7-8733FDFDD1D6";
shapes = (
{
closed = 1;
nodes = (
(193,0,ls),
(350,0,o),
(429,89,o),
(429,216,cs),
(429,714,l),
(230,714,l),
(230,246,ls),
(230,197,o),
(201,163,o),
(143,163,cs),
(22,163,l),
(22,0,l)
);
}
);
width = 481;
},
{
anchors = (
{
name = bottom;
pos = (281,0);
},
{
name = top;
pos = (403,714);
}
);
layerId = "CEA8704A-49A9-4D73-A586-1E9554ACC001";
shapes = (
{
closed = 1;
nodes = (
(248,0,ls),
(402,0,o),
(514,89,o),
(514,243,cs),
(514,714,l),
(292,714,l),
(292,275,ls),
(292,204,o),
(249,167,o),
(180,167,cs),
(7,167,l),
(7,0,l)
);
}
);
width = 565;
}
);
unicode = 74;
},
{
glyphname = K;
kernLeft = H;
kernRight = K;
lastChange = "2024-12-06 10:55:58 +0000";
layers = (
{
anchors = (
{
name = bottom;
pos = (405,0);
},
{
name = top;
pos = (378,714);
}
);
guides = (
{
angle = 41.1494;
pos = (573,555);
}
);
layerId = m007;
shapes = (
{
closed = 1;
nodes = (
(151,0,l),
(151,219,l),
(128,168,l),
(316,332,ls),
(379,387,o),
(442,377,o),
(488,308,cs),
(692,0,l),
(778,0,l),
(558,328,ls),
(518,389,o),
(479,416,o),
(418,420,c),
(754,714,l),
(656,714,l),
(128,253,l),
(151,242,l),
(151,714,l),
(82,714,l),
(82,0,l)
);
}
);
width = 791;
},
{
anchors = (
{
name = bottom;
pos = (415,0);
},
{
name = top;
pos = (390,714);
}
);
guides = (
{
angle = 41.2706;
pos = (596,553);
}
);
layerId = "7DF63F5B-BA78-420A-94D8-89AFC26E7780";
shapes = (
{
closed = 1;
nodes = (
(174,0,l),
(174,225,l),
(143,155,l),
(330,320,ls),
(392,374,o),
(452,365,o),
(496,297,cs),
(686,0,l),
(801,0,l),
(588,328,ls),
(552,383,o),
(506,417,o),
(447,422,c),
(778,714,l),
(647,714,l),
(143,269,l),
(174,255,l),
(174,714,l),
(75,714,l),
(75,0,l)
);
}
);
width = 811;
},
{
anchors = (
{
name = bottom;
pos = (336,0);
},
{
name = top;
pos = (334,714);
}
);
layerId = "CF630257-B204-4765-8982-527F59E4E5D4";
shapes = (
{
closed = 1;
nodes = (
(151,0,l),
(151,245,l),
(133,199,l),
(250,325,ls),
(284,361,o),
(321,359,o),
(349,317,cs),
(553,0,l),
(626,0,l),
(423,314,ls),
(400,351,o),
(371,395,o),
(313,395,c),
(608,714,l),
(529,714,l),
(133,279,l),
(151,272,l),
(151,714,l),
(90,714,l),
(90,0,l)
);
}
);
width = 650;
},
{
anchors = (
{
name = bottom;
pos = (275,0);
},
{
name = top;
pos = (239,714);
}
);
layerId = "89792DEA-715D-4C6B-9843-C33DBACDCF53";
shapes = (
{
closed = 1;
nodes = (
(140,0,l),
(140,267,l),
(125,220,l),
(200,328,ls),
(222,361,o),
(251,360,o),
(269,323,cs),
(426,0,l),
(491,0,l),
(328,330,ls),
(311,364,o),
(299,398,o),
(247,401,c),
(458,714,l),
(390,714,l),
(126,316,l),
(140,311,l),
(140,714,l),
(82,714,l),
(82,0,l)
);
}
);
width = 505;
},
{
anchors = (
{
name = bottom;
pos = (282,0);
},
{
name = top;
pos = (253,714);
}
);
layerId = "F5B2086A-EC1C-45D9-9613-A3504CEE232E";
shapes = (
{
closed = 1;
nodes = (
(158,0,l),
(158,257,l),
(138,189,l),
(208,296,ls),
(231,330,o),
(265,328,o),
(283,291,cs),
(415,0,l),
(508,0,l),
(366,305,ls),
(343,359,o),
(318,380,o),
(272,390,c),
(487,714,l),
(389,714,l),
(138,319,l),
(158,313,l),
(158,714,l),
(74,714,l),
(74,0,l)
);
}
);
width = 519;
},
{
anchors = (
{
name = bottom;
pos = (361,0);
},
{
name = top;
pos = (350,714);
}
);
layerId = "FEA946D2-303E-4050-8628-E645DE71E218";
shapes = (
{
closed = 1;
nodes = (
(178,0,l),
(178,251,l),
(150,180,l),
(269,309,ls),
(305,348,o),
(348,345,o),
(375,302,cs),
(570,0,l),
(683,0,l),
(473,325,ls),
(449,364,o),
(422,399,o),
(363,408,c),
(648,714,l),
(529,714,l),
(150,298,l),
(178,288,l),
(178,714,l),
(84,714,l),
(84,0,l)
);
}
);
width = 701;
},
{
anchors = (
{
name = bottom;
pos = (312,0);
},
{
name = top;
pos = (297,714);
}
);
layerId = "F74FB5BD-F4A6-4696-AECE-814F0CF1BFBE";
shapes = (
{
closed = 1;
nodes = (
(231,0,l),
(231,290,l),
(187,131,l),
(234,209,ls),
(257,248,o),
(296,246,o),
(315,202,cs),
(401,-1,l),
(615,-1,l),
(482,299,ls),
(459,352,o),
(436,383,o),
(378,407,c),
(598,714,l),
(376,714,l),
(187,403,l),
(231,391,l),
(231,714,l),
(37,714,l),
(37,0,l)
);
}
);
width = 617;
},
{
anchors = (
{
name = bottom;
pos = (373,0);
},
{
name = top;
pos = (378,714);
}
);
layerId = "3E78BF7E-2ACA-4E8F-B7F7-8733FDFDD1D6";
shapes = (
{
closed = 1;
nodes = (
(255,0,l),
(255,286,l),
(197,136,l),
(284,232,ls),
(307,257,o),
(339,257,o),
(359,228,cs),
(512,0,l),
(748,0,l),
(549,287,ls),
(511,342,o),
(482,375,o),
(428,399,c),
(717,714,l),
(471,714,l),
(200,386,l),
(255,367,l),
(255,714,l),
(54,714,l),
(54,0,l)
);
}
);
width = 754;
},
{
anchors = (
{
name = bottom;
pos = (455,0);
},
{
name = top;
pos = (443,714);
}
);
layerId = "CEA8704A-49A9-4D73-A586-1E9554ACC001";
shapes = (
{
closed = 1;
nodes = (
(279,0,l),
(279,261,l),
(207,100,l),
(381,255,ls),
(414,285,o),
(448,280,o),
(473,246,cs),
(652,0,l),
(920,0,l),
(694,306,ls),
(649,366,o),
(615,394,o),
(557,417,c),
(884,714,l),
(607,714,l),
(209,334,l),
(279,304,l),
(279,714,l),
(57,714,l),
(57,0,l)
);
}
);
width = 925;
}
);
metricLeft = H;
unicode = 75;
},
{
glyphname = L;
kernLeft = H;
kernRight = L;
lastChange = "2024-12-06 10:39:41 +0000";
layers = (
{
anchors = (
{
name = bottom;
pos = (394,0);
},
{
name = center;
pos = (150,357);
},
{
name = top;
pos = (118,714);
},
{
name = topright;
pos = (525,714);
}
);
layerId = m007;
shapes = (
{
closed = 1;
nodes = (
(681,0,l),
(681,57,l),
(151,57,l),
(151,714,l),
(82,714,l),
(82,0,l)
);
}
);
width = 713;
},
{
anchors = (
{
name = bottom;
pos = (402,0);
},
{
name = center;
pos = (155,357);
},
{
name = top;
pos = (126,714);
},
{
name = topright;
pos = (536,714);
}
);
layerId = "7DF63F5B-BA78-420A-94D8-89AFC26E7780";
shapes = (
{
closed = 1;
nodes = (
(692,0,l),
(692,80,l),
(174,80,l),
(174,714,l),
(75,714,l),
(75,0,l)
);
}
);
width = 718;
},
{
anchors = (
{
name = bottom;
pos = (305,0);
},
{
name = center;
pos = (143,357);
},
{
name = top;
pos = (124,714);
},
{
name = topright;
pos = (415,714);
}
);
layerId = "CF630257-B204-4765-8982-527F59E4E5D4";
shapes = (
{
closed = 1;
nodes = (
(513,0,l),
(513,53,l),
(151,53,l),
(151,714,l),
(90,714,l),
(90,0,l)
);
}
);
width = 538;
},
{
anchors = (
{
name = bottom;
pos = (235,0);
},
{
name = center;
pos = (129,363);
},
{
name = top;
pos = (111,714);
},
{
name = topright;
pos = (316,714);
}
);
layerId = "89792DEA-715D-4C6B-9843-C33DBACDCF53";
shapes = (
{
closed = 1;
nodes = (
(386,0,l),
(386,48,l),
(140,48,l),
(140,714,l),
(82,714,l),
(82,0,l)
);
}
);
width = 412;
},
{
anchors = (
{
name = bottom;
pos = (239,0);
},
{
name = center;
pos = (135,363);
},
{
name = top;
pos = (117,714);
},
{
name = topright;
pos = (318,714);
}
);
layerId = "F5B2086A-EC1C-45D9-9613-A3504CEE232E";
shapes = (
{
closed = 1;
nodes = (
(398,0,l),
(398,67,l),
(158,67,l),
(158,714,l),
(74,714,l),
(74,0,l)
);
}
);
width = 418;
},
{
anchors = (
{
name = bottom;
pos = (314,0);
},
{
name = center;
pos = (155,357);
},
{
name = top;
pos = (134,714);
},
{
name = topright;
pos = (429,714);
}
);
layerId = "FEA946D2-303E-4050-8628-E645DE71E218";
shapes = (
{
closed = 1;
nodes = (
(522,0,l),
(522,80,l),
(178,80,l),
(178,714,l),
(84,714,l),
(84,0,l)
);
}
);
width = 544;
},
{
anchors = (
{
name = bottom;
pos = (239,0);
},
{
name = center;
pos = (151,363);
},
{
name = top;
pos = (135,714);
},
{
name = topright;
pos = (320,714);
}
);
layerId = "F74FB5BD-F4A6-4696-AECE-814F0CF1BFBE";
shapes = (
{
closed = 1;
nodes = (
(433,0,l),
(433,153,l),
(232,153,l),
(232,714,l),
(37,714,l),
(37,0,l)
);
}
);
width = 447;
},
{
anchors = (
{
name = bottom;
pos = (313,0);
},
{
name = center;
pos = (175,357);
},
{
name = top;
pos = (154,714);
},
{
name = topright;
pos = (450,714);
}
);
layerId = "3E78BF7E-2ACA-4E8F-B7F7-8733FDFDD1D6";
shapes = (
{
closed = 1;
nodes = (
(540,0,l),
(540,163,l),
(255,163,l),
(255,714,l),
(54,714,l),
(54,0,l)
);
}
);
width = 560;
},
{
anchors = (
{
name = bottom;
pos = (425,0);
},
{
name = center;
pos = (187,357);
},
{
name = top;
pos = (168,714);
},
{
name = topright;
pos = (581,714);
}
);
layerId = "CEA8704A-49A9-4D73-A586-1E9554ACC001";
shapes = (
{
closed = 1;
nodes = (
(739,0,l),
(739,167,l),
(279,167,l),
(279,714,l),
(57,714,l),
(57,0,l)
);
}
);
width = 759;
}
);
metricLeft = H;
unicode = 76;
},
{
glyphname = M;
kernLeft = H;
kernRight = H;
lastChange = "2024-12-06 10:39:41 +0000";
layers = (
{
layerId = m007;
shapes = (
{
closed = 1;
nodes = (
(146,0,l),
(146,670,l),
(125,668,l),
(443,0,l),
(510,0,l),
(829,668,l),
(809,670,l),
(809,0,l),
(878,0,l),
(878,714,l),
(781,714,l),
(458,29,l),
(504,29,l),
(181,714,l),
(82,714,l),
(82,0,l)
);
}
);
width = 960;
},
{
layerId = "7DF63F5B-BA78-420A-94D8-89AFC26E7780";
shapes = (
{
closed = 1;
nodes = (
(167,0,l),
(167,652,l),
(142,649,l),
(443,0,l),
(534,0,l),
(836,649,l),
(811,652,l),
(811,0,l),
(909,0,l),
(909,714,l),
(771,714,l),
(467,52,l),
(520,52,l),
(218,714,l),
(75,714,l),
(75,0,l)
);
}
);
width = 984;
},
{
layerId = "CF630257-B204-4765-8982-527F59E4E5D4";
shapes = (
{
closed = 1;
nodes = (
(147,0,l),
(147,667,l),
(139,669,l),
(385,0,l),
(455,0,l),
(703,669,l),
(693,667,l),
(693,0,l),
(754,0,l),
(754,714,l),
(659,714,l),
(412,27,l),
(432,27,l),
(187,714,l),
(90,714,l),
(90,0,l)
);
}
);
width = 844;
},
{
layerId = "89792DEA-715D-4C6B-9843-C33DBACDCF53";
shapes = (
{
closed = 1;
nodes = (
(137,0,l),
(137,685,l),
(123,670,l),
(302,0,l),
(371,0,l),
(548,666,l),
(537,680,l),
(537,0,l),
(594,0,l),
(594,714,l),
(506,714,l),
(330,30,l),
(351,30,l),
(173,714,l),
(82,714,l),
(82,0,l)
);
}
);
width = 676;
},
{
layerId = "F5B2086A-EC1C-45D9-9613-A3504CEE232E";
shapes = (
{
closed = 1;
nodes = (
(152,0,l),
(152,654,l),
(143,641,l),
(305,0,l),
(395,0,l),
(559,639,l),
(548,652,l),
(548,0,l),
(631,0,l),
(631,714,l),
(503,714,l),
(343,69,l),
(366,69,l),
(204,714,l),
(74,714,l),
(74,0,l)
);
}
);
width = 705;
},
{
layerId = "FEA946D2-303E-4050-8628-E645DE71E218";
shapes = (
{
closed = 1;
nodes = (
(170,0,l),
(170,625,l),
(162,622,l),
(387,0,l),
(481,0,l),
(712,625,l),
(702,628,l),
(702,0,l),
(797,0,l),
(797,714,l),
(655,714,l),
(420,56,l),
(456,57,l),
(226,714,l),
(84,714,l),
(84,0,l)
);
}
);
width = 881;
},
{
layerId = "F74FB5BD-F4A6-4696-AECE-814F0CF1BFBE";
shapes = (
{
closed = 1;
nodes = (
(212,0,l),
(212,539,l),
(197,539,l),
(314,0,l),
(481,0,l),
(600,551,l),
(580,550,l),
(580,0,l),
(769,0,l),
(769,714,l),
(490,714,l),
(395,237,l),
(420,238,l),
(328,714,l),
(37,714,l),
(37,0,l)
);
}
);
width = 806;
},
{
layerId = "3E78BF7E-2ACA-4E8F-B7F7-8733FDFDD1D6";
shapes = (
{
closed = 1;
nodes = (
(233,0,l),
(233,526,l),
(203,521,l),
(357,0,l),
(501,0,l),
(672,554,l),
(629,559,l),
(629,0,l),
(828,0,l),
(828,714,l),
(570,714,l),
(411,181,l),
(469,182,l),
(322,714,l),
(54,714,l),
(54,0,l)
);
}
);
width = 883;
},
{
layerId = "CEA8704A-49A9-4D73-A586-1E9554ACC001";
shapes = (
{
closed = 1;
nodes = (
(257,0,l),
(257,580,l),
(214,573,l),
(446,0,l),
(627,0,l),
(859,573,l),
(815,580,l),
(815,0,l),
(1030,0,l),
(1030,714,l),
(730,714,l),
(509,146,l),
(591,146,l),
(373,714,l),
(57,714,l),
(57,0,l)
);
}
);
width = 1088;
}
);
metricLeft = H;
metricRight = H;
unicode = 77;
},
{
glyphname = N;
kernLeft = H;
kernRight = H;
lastChange = "2024-12-06 10:39:41 +0000";
layers = (
{
anchors = (
{
name = bottom;
pos = (435,0);
},
{
name = top;
pos = (435,714);
}
);
layerId = m007;
shapes = (
{
closed = 1;
nodes = (
(146,0,l),
(146,669,l),
(126,659,l),
(698,0,l),
(786,0,l),
(786,714,l),
(722,714,l),
(722,44,l),
(741,56,l),
(170,714,l),
(82,714,l),
(82,0,l)
);
}
);
width = 868;
},
{
anchors = (
{
name = bottom;
pos = (441,0);
},
{
name = top;
pos = (441,714);
}
);
layerId = "7DF63F5B-BA78-420A-94D8-89AFC26E7780";
shapes = (
{
closed = 1;
nodes = (
(167,0,l),
(167,640,l),
(142,628,l),
(684,0,l),
(805,0,l),
(805,714,l),
(713,714,l),
(713,71,l),
(741,84,l),
(196,714,l),
(75,714,l),
(75,0,l)
);
}
);
width = 880;
},
{
anchors = (
{
name = bottom;
pos = (354,0);
},
{
name = top;
pos = (354,714);
}
);
layerId = "CF630257-B204-4765-8982-527F59E4E5D4";
shapes = (
{
closed = 1;
nodes = (
(147,0,l),
(147,673,l),
(127,664,l),
(542,0,l),
(619,0,l),
(619,714,l),
(562,714,l),
(562,41,l),
(579,54,l),
(167,714,l),
(90,714,l),
(90,0,l)
);
}
);
width = 709;
},
{
anchors = (
{
name = bottom;
pos = (276,0);
},
{
name = top;
pos = (276,714);
}
);
layerId = "89792DEA-715D-4C6B-9843-C33DBACDCF53";
shapes = (
{
closed = 1;
nodes = (
(136,0,l),
(136,663,l),
(118,662,l),
(395,0,l),
(471,0,l),
(471,714,l),
(417,714,l),
(417,51,l),
(434,53,l),
(157,714,l),
(82,714,l),
(82,0,l)
);
}
);
width = 553;
},
{
anchors = (
{
name = bottom;
pos = (284,0);
},
{
name = top;
pos = (284,714);
}
);
layerId = "F5B2086A-EC1C-45D9-9613-A3504CEE232E";
shapes = (
{
closed = 1;
nodes = (
(152,0,l),
(152,634,l),
(128,622,l),
(391,0,l),
(492,0,l),
(492,714,l),
(414,714,l),
(414,80,l),
(438,91,l),
(176,714,l),
(74,714,l),
(74,0,l)
);
}
);
width = 566;
},
{
anchors = (
{
name = bottom;
pos = (365,0);
},
{
name = top;
pos = (365,714);
}
);
layerId = "FEA946D2-303E-4050-8628-E645DE71E218";
shapes = (
{
closed = 1;
nodes = (
(172,0,l),
(172,624,l),
(161,603,l),
(533,0,l),
(649,0,l),
(649,714,l),
(561,714,l),
(561,90,l),
(573,110,l),
(201,714,l),
(84,714,l),
(84,0,l)
);
}
);
width = 733;
},
{
anchors = (
{
name = bottom;
pos = (302,0);
},
{
name = top;
pos = (302,714);
}
);
layerId = "F74FB5BD-F4A6-4696-AECE-814F0CF1BFBE";
shapes = (
{
closed = 1;
nodes = (
(209,0,l),
(209,499,l),
(162,474,l),
(372,0,l),
(567,0,l),
(567,714,l),
(395,714,l),
(395,215,l),
(445,238,l),
(231,714,l),
(37,714,l),
(37,0,l)
);
}
);
width = 604;
},
{
anchors = (
{
name = bottom;
pos = (374,0);
},
{
name = top;
pos = (374,714);
}
);
layerId = "3E78BF7E-2ACA-4E8F-B7F7-8733FDFDD1D6";
shapes = (
{
closed = 1;
nodes = (
(233,0,l),
(233,456,l),
(210,454,l),
(503,0,l),
(695,0,l),
(695,714,l),
(516,714,l),
(516,258,l),
(554,252,l),
(254,714,l),
(54,714,l),
(54,0,l)
);
}
);
width = 750;
},
{
anchors = (
{
name = bottom;
pos = (470,0);
},
{
name = top;
pos = (470,714);
}
);
layerId = "CEA8704A-49A9-4D73-A586-1E9554ACC001";
shapes = (
{
closed = 1;
nodes = (
(257,0,l),
(257,523,l),
(209,506,l),
(635,0,l),
(882,0,l),
(882,714,l),
(682,714,l),
(682,181,l),
(743,193,l),
(305,714,l),
(57,714,l),
(57,0,l)
);
}
);
width = 940;
}
);
metricLeft = H;
metricRight = H;
unicode = 78;
},
{
glyphname = Eng;
kernLeft = H;
kernRight = H;
lastChange = "2024-12-06 10:39:41 +0000";
layers = (
{
layerId = m007;
shapes = (
{
closed = 1;
nodes = (
(610,-190,ls),
(713,-190,o),
(786,-123,o),
(786,-24,cs),
(786,714,l),
(722,714,l),
(722,113,l),
(170,714,l),
(82,714,l),
(82,0,l),
(146,0,l),
(146,638,l),
(722,10,l),
(722,-13,ls),
(722,-86,o),
(672,-133,o),
(598,-133,cs),
(459,-133,l),
(459,-190,l)
);
}
);
width = 868;
},
{
layerId = "7DF63F5B-BA78-420A-94D8-89AFC26E7780";
shapes = (
{
closed = 1;
nodes = (
(609,-190,ls),
(719,-190,o),
(800,-125,o),
(805,-20,c),
(805,714,l),
(713,714,l),
(713,166,l),
(196,714,l),
(75,714,l),
(75,0,l),
(167,0,l),
(167,601,l),
(713,22,l),
(713,-1,ls),
(713,-71,o),
(665,-110,o),
(592,-110,cs),
(438,-110,l),
(438,-190,l)
);
}
);
width = 880;
},
{
layerId = "CF630257-B204-4765-8982-527F59E4E5D4";
shapes = (
{
closed = 1;
nodes = (
(463,-190,ls),
(559,-190,o),
(619,-127,o),
(619,-29,cs),
(619,714,l),
(563,714,l),
(563,107,l),
(168,714,l),
(90,714,l),
(90,0,l),
(146,0,l),
(146,639,l),
(563,0,l),
(563,-22,ls),
(563,-90,o),
(526,-140,o),
(450,-140,cs),
(367,-140,l),
(367,-190,l)
);
}
);
width = 709;
},
{
layerId = "89792DEA-715D-4C6B-9843-C33DBACDCF53";
shapes = (
{
closed = 1;
nodes = (
(319,-190,ls),
(416,-190,o),
(471,-144,o),
(471,-52,cs),
(471,714,l),
(417,714,l),
(417,145,l),
(156,714,l),
(82,714,l),
(82,0,l),
(137,0,l),
(137,616,l),
(417,2,l),
(417,-15,ls),
(417,-107,o),
(391,-142,o),
(309,-142,cs),
(271,-142,l),
(271,-190,l)
);
}
);
width = 553;
},
{
layerId = "F5B2086A-EC1C-45D9-9613-A3504CEE232E";
shapes = (
{
closed = 1;
nodes = (
(319,-190,ls),
(426,-190,o),
(492,-139,o),
(492,-35,cs),
(492,714,l),
(414,714,l),
(414,210,l),
(177,714,l),
(74,714,l),
(74,0,l),
(152,0,l),
(152,565,l),
(414,7,l),
(414,-23,ls),
(414,-89,o),
(379,-122,o),
(306,-122,cs),
(265,-122,l),
(265,-190,l)
);
}
);
width = 566;
},
{
layerId = "FEA946D2-303E-4050-8628-E645DE71E218";
shapes = (
{
closed = 1;
nodes = (
(448,-190,ls),
(564,-190,o),
(647,-125,o),
(647,0,cs),
(647,714,l),
(561,714,l),
(561,184,l),
(201,714,l),
(84,714,l),
(84,0,l),
(168,0,l),
(168,598,l),
(561,18,l),
(561,-8,ls),
(561,-77,o),
(507,-113,o),
(442,-113,cs),
(363,-113,l),
(363,-190,l)
);
}
);
width = 731;
},
{
layerId = "F74FB5BD-F4A6-4696-AECE-814F0CF1BFBE";
shapes = (
{
closed = 1;
nodes = (
(319,-190,ls),
(465,-190,o),
(551,-115,o),
(551,20,cs),
(551,714,l),
(389,714,l),
(389,407,l),
(226,714,l),
(37,714,l),
(37,0,l),
(200,0,l),
(200,409,l),
(389,51,l),
(389,25,ls),
(389,-17,o),
(357,-45,o),
(310,-45,cs),
(253,-45,l),
(253,-190,l)
);
}
);
width = 588;
},
{
layerId = "3E78BF7E-2ACA-4E8F-B7F7-8733FDFDD1D6";
shapes = (
{
closed = 1;
nodes = (
(456,-190,ls),
(613,-190,o),
(693,-101,o),
(693,26,cs),
(693,714,l),
(516,714,l),
(516,379,l),
(253,714,l),
(54,714,l),
(54,0,l),
(230,0,l),
(230,441,l),
(516,78,l),
(516,42,ls),
(516,3,o),
(489,-31,o),
(431,-31,cs),
(350,-31,l),
(350,-190,l)
);
}
);
width = 748;
},
{
layerId = "CEA8704A-49A9-4D73-A586-1E9554ACC001";
shapes = (
{
closed = 1;
nodes = (
(629,-190,ls),
(783,-190,o),
(882,-113,o),
(882,30,cs),
(882,714,l),
(682,714,l),
(682,365,l),
(305,714,l),
(57,714,l),
(57,0,l),
(257,0,l),
(257,461,l),
(682,67,l),
(682,43,ls),
(682,4,o),
(660,-29,o),
(610,-29,cs),
(449,-29,l),
(449,-190,l)
);
}
);
width = 940;
}
);
metricLeft = H;
metricRight = H;
unicode = 330;
},
{
glyphname = O;
kernLeft = O;
kernRight = O;
lastChange = "2024-12-06 10:39:41 +0000";
layers = (
{
anchors = (
{
name = bottom;
pos = (478,0);
},
{
name = center;
pos = (478,357);
},
{
name = ogonek;
pos = (595,0);
},
{
name = top;
pos = (478,714);
},
{
name = topleft;
pos = (0,714);
},
{
name = topright;
pos = (759,714);
}
);
layerId = m007;
shapes = (
{
closed = 1;
nodes = (
(738,-14,o),
(911,131,o),
(911,357,cs),
(911,583,o),
(738,728,o),
(478,728,cs),
(218,728,o),
(46,583,o),
(46,357,cs),
(46,131,o),
(218,-14,o),
(478,-14,cs)
);
},
{
closed = 1;
nodes = (
(250,44,o),
(119,169,o),
(119,357,cs),
(119,545,o),
(250,670,o),
(478,670,cs),
(707,670,o),
(837,545,o),
(837,357,cs),
(837,169,o),
(707,44,o),
(478,44,cs)
);
}
);
width = 957;
},
{
anchors = (
{
name = bottom;
pos = (477,0);
},
{
name = center;
pos = (477,357);
},
{
name = ogonek;
pos = (585,0);
},
{
name = top;
pos = (477,714);
},
{
name = topleft;
pos = (-1,714);
},
{
name = topright;
pos = (752,714);
}
);
layerId = "7DF63F5B-BA78-420A-94D8-89AFC26E7780";
shapes = (
{
closed = 1;
nodes = (
(740,-14,o),
(915,131,o),
(915,357,cs),
(915,583,o),
(740,728,o),
(477,728,cs),
(214,728,o),
(40,583,o),
(40,357,cs),
(40,131,o),
(214,-14,o),
(477,-14,cs)
);
},
{
closed = 1;
nodes = (
(268,66,o),
(144,184,o),
(144,357,cs),
(144,530,o),
(268,648,o),
(477,648,cs),
(686,648,o),
(811,530,o),
(811,357,cs),
(811,184,o),
(686,66,o),
(477,66,cs)
);
}
);
width = 955;
},
{
anchors = (
{
name = bottom;
pos = (385,0);
},
{
name = center;
pos = (385,357);
},
{
name = ogonek;
pos = (466,0);
},
{
name = top;
pos = (385,714);
},
{
name = topleft;
pos = (21,714);
},
{
name = topright;
pos = (749,714);
}
);
layerId = "CF630257-B204-4765-8982-527F59E4E5D4";
shapes = (
{
closed = 1;
nodes = (
(581,-12,o),
(715,130,o),
(715,357,cs),
(715,587,o),
(581,726,o),
(385,726,cs),
(189,726,o),
(54,588,o),
(54,357,cs),
(54,129,o),
(189,-12,o),
(385,-12,cs)
);
},
{
closed = 1;
nodes = (
(216,42,o),
(118,170,o),
(118,357,cs),
(118,546,o),
(216,672,o),
(385,672,cs),
(553,672,o),
(652,546,o),
(652,357,cs),
(652,170,o),
(553,42,o),
(385,42,cs)
);
}
);
width = 769;
},
{
anchors = (
{
name = bottom;
pos = (268,0);
},
{
name = center;
pos = (268,358);
},
{
name = ogonek;
pos = (326,0);
},
{
name = top;
pos = (268,714);
},
{
name = topleft;
pos = (17,714);
},
{
name = topright;
pos = (522,714);
}
);
layerId = "89792DEA-715D-4C6B-9843-C33DBACDCF53";
shapes = (
{
closed = 1;
nodes = (
(426,-12,o),
(494,134,o),
(494,358,cs),
(494,582,o),
(426,726,o),
(268,726,cs),
(111,726,o),
(43,582,o),
(43,358,cs),
(43,134,o),
(111,-12,o),
(268,-12,cs)
);
},
{
closed = 1;
nodes = (
(147,38,o),
(105,176,o),
(105,358,cs),
(105,540,o),
(147,676,o),
(268,676,cs),
(391,676,o),
(432,540,o),
(432,358,cs),
(432,176,o),
(391,38,o),
(268,38,cs)
);
}
);
width = 537;
},
{
anchors = (
{
name = bottom;
pos = (273,0);
},
{
name = center;
pos = (273,358);
},
{
name = ogonek;
pos = (381,2);
},
{
name = top;
pos = (273,714);
},
{
name = topleft;
pos = (17,714);
},
{
name = topright;
pos = (530,714);
}
);
layerId = "F5B2086A-EC1C-45D9-9613-A3504CEE232E";
shapes = (
{
closed = 1;
nodes = (
(431,-12,o),
(507,124,o),
(507,358,cs),
(507,592,o),
(431,726,o),
(273,726,cs),
(114,726,o),
(40,592,o),
(40,358,cs),
(40,124,o),
(114,-12,o),
(273,-12,cs)
);
},
{
closed = 1;
nodes = (
(166,56,o),
(128,161,o),
(128,358,cs),
(128,554,o),
(166,658,o),
(273,658,cs),
(380,658,o),
(419,554,o),
(419,358,cs),
(419,161,o),
(380,56,o),
(273,56,cs)
);
}
);
width = 547;
},
{
anchors = (
{
name = bottom;
pos = (388,0);
},
{
name = center;
pos = (388,357);
},
{
name = ogonek;
pos = (679,9);
},
{
name = top;
pos = (388,714);
},
{
name = topleft;
pos = (24,714);
},
{
name = topright;
pos = (752,714);
}
);
layerId = "FEA946D2-303E-4050-8628-E645DE71E218";
shapes = (
{
closed = 1;
nodes = (
(588,-13,o),
(723,128,o),
(723,357,cs),
(723,587,o),
(588,727,o),
(388,727,cs),
(187,727,o),
(52,587,o),
(52,357,cs),
(52,128,o),
(187,-13,o),
(388,-13,cs)
);
},
{
closed = 1;
nodes = (
(237,67,o),
(150,175,o),
(150,357,cs),
(150,539,o),
(237,647,o),
(388,647,cs),
(538,647,o),
(625,539,o),
(625,357,cs),
(625,175,o),
(538,67,o),
(388,67,cs)
);
}
);
width = 775;
},
{
anchors = (
{
name = bottom;
pos = (287,0);
},
{
name = center;
pos = (287,357);
},
{
name = ogonek;
pos = (388,9);
},
{
name = top;
pos = (287,714);
},
{
name = topleft;
pos = (13,714);
},
{
name = topright;
pos = (560,714);
}
);
layerId = "F74FB5BD-F4A6-4696-AECE-814F0CF1BFBE";
shapes = (
{
closed = 1;
nodes = (
(449,-13,o),
(558,92,o),
(558,358,cs),
(558,624,o),
(449,727,o),
(287,727,cs),
(125,727,o),
(15,624,o),
(15,358,cs),
(15,92,o),
(125,-13,o),
(287,-13,cs)
);
},
{
closed = 1;
nodes = (
(239,140,o),
(216,182,o),
(216,358,cs),
(216,535,o),
(239,574,o),
(287,574,cs),
(336,574,o),
(356,535,o),
(356,358,cs),
(356,182,o),
(336,140,o),
(287,140,cs)
);
}
);
width = 573;
},
{
anchors = (
{
name = bottom;
pos = (390,0);
},
{
name = center;
pos = (390,357);
},
{
name = ogonek;
pos = (478,0);
},
{
name = top;
pos = (390,714);
},
{
name = topleft;
pos = (26,714);
},
{
name = topright;
pos = (754,714);
}
);
layerId = "3E78BF7E-2ACA-4E8F-B7F7-8733FDFDD1D6";
shapes = (
{
closed = 1;
nodes = (
(602,-13,o),
(746,129,o),
(746,357,cs),
(746,588,o),
(602,727,o),
(390,727,cs),
(179,727,o),
(34,588,o),
(34,357,cs),
(34,129,o),
(179,-13,o),
(390,-13,cs)
);
},
{
closed = 1;
nodes = (
(301,148,o),
(242,210,o),
(242,357,cs),
(242,504,o),
(301,566,o),
(390,566,cs),
(479,566,o),
(539,504,o),
(539,357,cs),
(539,210,o),
(479,148,o),
(390,148,cs)
);
}
);
width = 780;
},
{
anchors = (
{
name = bottom;
pos = (489,0);
},
{
name = center;
pos = (489,357);
},
{
name = ogonek;
pos = (694,11);
},
{
name = top;
pos = (489,714);
},
{
name = topleft;
pos = (14,714);
},
{
name = topright;
pos = (742,714);
}
);
layerId = "CEA8704A-49A9-4D73-A586-1E9554ACC001";
shapes = (
{
closed = 1;
nodes = (
(775,-14,o),
(957,129,o),
(957,357,cs),
(957,585,o),
(775,728,o),
(489,728,cs),
(202,728,o),
(20,585,o),
(20,357,cs),
(20,129,o),
(202,-14,o),
(489,-14,cs)
);
},
{
closed = 1;
nodes = (
(346,153,o),
(251,227,o),
(251,357,cs),
(251,487,o),
(346,561,o),
(489,561,cs),
(631,561,o),
(726,487,o),
(726,357,cs),
(726,227,o),
(631,153,o),
(489,153,cs)
);
}
);
width = 977;
}
);
unicode = 79;
},
{
glyphname = OE;
kernLeft = O;
kernRight = E;
lastChange = "2024-12-06 10:39:41 +0000";
layers = (
{
layerId = m007;
shapes = (
{
closed = 1;
nodes = (
(641,-14,o),
(769,47,o),
(837,149,c),
(837,0,l),
(1462,0,l),
(1462,57,l),
(907,57,l),
(907,340,l),
(1421,340,l),
(1421,396,l),
(907,396,l),
(907,657,l),
(1462,657,l),
(1462,714,l),
(837,714,l),
(837,565,l),
(769,667,o),
(641,728,o),
(486,728,cs),
(216,728,o),
(46,583,o),
(46,357,cs),
(46,132,o),
(216,-14,o),
(486,-14,cs)
);
},
{
closed = 1;
nodes = (
(250,44,o),
(119,169,o),
(119,357,cs),
(119,545,o),
(250,670,o),
(478,670,cs),
(707,670,o),
(837,545,o),
(837,357,cs),
(837,169,o),
(707,44,o),
(478,44,cs)
);
}
);
width = 1525;
},
{
layerId = "7DF63F5B-BA78-420A-94D8-89AFC26E7780";
shapes = (
{
closed = 1;
nodes = (
(628,-14,o),
(748,40,o),
(811,124,c),
(811,0,l),
(1453,0,l),
(1453,80,l),
(911,80,l),
(911,327,l),
(1413,327,l),
(1413,405,l),
(911,405,l),
(911,634,l),
(1453,634,l),
(1453,714,l),
(811,714,l),
(811,590,l),
(748,674,o),
(628,728,o),
(477,728,cs),
(212,728,o),
(40,583,o),
(40,357,cs),
(40,131,o),
(212,-14,o),
(477,-14,cs)
);
},
{
closed = 1;
nodes = (
(268,66,o),
(144,184,o),
(144,357,cs),
(144,530,o),
(268,648,o),
(477,648,cs),
(686,648,o),
(811,530,o),
(811,357,cs),
(811,184,o),
(686,66,o),
(477,66,cs)
);
}
);
width = 1510;
},
{
layerId = "CF630257-B204-4765-8982-527F59E4E5D4";
shapes = (
{
closed = 1;
nodes = (
(513,-12,o),
(603,47,o),
(651,138,c),
(651,0,l),
(1106,0,l),
(1106,50,l),
(711,50,l),
(711,357,l),
(1072,357,l),
(1072,404,l),
(711,404,l),
(711,664,l),
(1106,664,l),
(1106,714,l),
(651,714,l),
(651,576,l),
(603,666,o),
(513,726,o),
(384,726,cs),
(189,726,o),
(54,588,o),
(54,357,cs),
(54,128,o),
(189,-12,o),
(385,-12,cs)
);
},
{
closed = 1;
nodes = (
(216,39,o),
(118,171,o),
(118,357,cs),
(118,544,o),
(216,675,o),
(385,675,cs),
(568,675,o),
(652,544,o),
(652,357,cs),
(652,170,o),
(568,39,o),
(385,39,cs)
);
}
);
width = 1170;
},
{
layerId = "89792DEA-715D-4C6B-9843-C33DBACDCF53";
shapes = (
{
closed = 1;
nodes = (
(342,-12,o),
(401,24,o),
(431,87,c),
(431,0,l),
(758,0,l),
(758,48,l),
(490,48,l),
(490,357,l),
(721,357,l),
(721,402,l),
(490,402,l),
(490,666,l),
(758,666,l),
(758,714,l),
(431,714,l),
(431,627,l),
(401,689,o),
(342,726,o),
(269,726,cs),
(112,726,o),
(43,582,o),
(43,358,cs),
(43,134,o),
(111,-12,o),
(269,-12,cs)
);
},
{
closed = 1;
nodes = (
(147,38,o),
(105,177,o),
(105,358,cs),
(105,539,o),
(147,676,o),
(268,676,cs),
(394,676,o),
(432,539,o),
(432,358,cs),
(432,176,o),
(394,38,o),
(268,38,cs)
);
}
);
width = 803;
},
{
layerId = "F5B2086A-EC1C-45D9-9613-A3504CEE232E";
shapes = (
{
closed = 1;
nodes = (
(334,-12,o),
(388,15,o),
(419,67,c),
(419,0,l),
(763,0,l),
(763,67,l),
(503,67,l),
(503,343,l),
(726,343,l),
(726,407,l),
(503,407,l),
(503,647,l),
(763,647,l),
(763,714,l),
(419,714,l),
(419,647,l),
(388,699,o),
(335,726,o),
(271,726,cs),
(114,726,o),
(40,590,o),
(40,358,cs),
(40,125,o),
(114,-12,o),
(271,-12,cs)
);
},
{
closed = 1;
nodes = (
(166,56,o),
(128,177,o),
(128,358,cs),
(128,538,o),
(166,658,o),
(273,658,cs),
(380,658,o),
(419,538,o),
(419,358,cs),
(419,177,o),
(380,56,o),
(273,56,cs)
);
}
);
width = 801;
},
{
layerId = "FEA946D2-303E-4050-8628-E645DE71E218";
shapes = (
{
closed = 1;
nodes = (
(499,-13,o),
(581,36,o),
(626,109,c),
(626,0,l),
(1106,0,l),
(1106,76,l),
(720,76,l),
(720,337,l),
(1074,337,l),
(1074,409,l),
(720,409,l),
(720,638,l),
(1106,638,l),
(1106,714,l),
(626,714,l),
(626,606,l),
(582,677,o),
(500,727,o),
(384,727,cs),
(187,727,o),
(52,583,o),
(52,357,cs),
(52,131,o),
(187,-13,o),
(383,-13,cs)
);
},
{
closed = 1;
nodes = (
(237,63,o),
(150,181,o),
(150,357,cs),
(150,533,o),
(237,651,o),
(388,651,cs),
(538,651,o),
(625,533,o),
(625,357,cs),
(625,181,o),
(538,63,o),
(388,63,cs)
);
}
);
width = 1162;
},
{
layerId = "F74FB5BD-F4A6-4696-AECE-814F0CF1BFBE";
shapes = (
{
closed = 1;
nodes = (
(328,-13,o),
(382,10,o),
(411,45,c),
(411,0,l),
(823,0,l),
(823,153,l),
(607,153,l),
(607,281,l),
(785,281,l),
(785,431,l),
(607,431,l),
(607,561,l),
(823,561,l),
(823,714,l),
(411,714,l),
(411,669,l),
(382,704,o),
(328,727,o),
(266,727,cs),
(125,727,o),
(15,624,o),
(15,358,cs),
(15,92,o),
(125,-13,o),
(266,-13,cs)
);
},
{
closed = 1;
nodes = (
(238,140,o),
(216,190,o),
(216,358,cs),
(216,525,o),
(238,574,o),
(287,574,cs),
(336,574,o),
(356,525,o),
(356,358,cs),
(356,190,o),
(336,140,o),
(287,140,cs)
);
}
);
width = 848;
},
{
layerId = "3E78BF7E-2ACA-4E8F-B7F7-8733FDFDD1D6";
shapes = (
{
closed = 1;
nodes = (
(447,-13,o),
(505,7,o),
(541,39,c),
(541,0,l),
(1079,0,l),
(1079,159,l),
(741,159,l),
(741,279,l),
(1041,279,l),
(1041,433,l),
(741,433,l),
(741,555,l),
(1079,555,l),
(1079,714,l),
(541,714,l),
(541,675,l),
(505,707,o),
(447,727,o),
(368,727,cs),
(182,727,o),
(34,588,o),
(34,357,cs),
(34,126,o),
(182,-13,o),
(368,-13,cs)
);
},
{
closed = 1;
nodes = (
(301,146,o),
(242,210,o),
(242,357,cs),
(242,505,o),
(301,568,o),
(390,568,cs),
(479,568,o),
(539,505,o),
(539,357,cs),
(539,209,o),
(479,146,o),
(390,146,cs)
);
}
);
width = 1118;
},
{
layerId = "CEA8704A-49A9-4D73-A586-1E9554ACC001";
shapes = (
{
closed = 1;
nodes = (
(589,-14,o),
(665,6,o),
(727,47,c),
(727,0,l),
(1450,0,l),
(1450,167,l),
(949,167,l),
(949,278,l),
(1413,278,l),
(1413,437,l),
(949,437,l),
(949,547,l),
(1450,547,l),
(1450,714,l),
(727,714,l),
(727,667,l),
(665,708,o),
(589,728,o),
(471,728,cs),
(205,728,o),
(20,587,o),
(20,357,cs),
(20,128,o),
(205,-14,o),
(471,-14,cs)
);
},
{
closed = 1;
nodes = (
(346,153,o),
(251,227,o),
(251,357,cs),
(251,487,o),
(346,561,o),
(489,561,cs),
(631,561,o),
(727,484,o),
(727,357,cs),
(727,230,o),
(631,153,o),
(489,153,cs)
);
}
);
width = 1491;
}
);
metricLeft = O;
metricRight = E;
unicode = 338;
},
{
glyphname = P;
kernLeft = H;
kernRight = P;
lastChange = "2024-12-06 10:39:41 +0000";
layers = (
{
layerId = m007;
shapes = (
{
closed = 1;
nodes = (
(151,0,l),
(151,306,l),
(540,306,ls),
(666,306,o),
(763,372,o),
(763,508,cs),
(763,644,o),
(666,714,o),
(540,714,cs),
(82,714,l),
(82,0,l)
);
},
{
closed = 1;
nodes = (
(151,657,l),
(529,657,ls),
(633,657,o),
(690,599,o),
(690,508,cs),
(690,417,o),
(633,363,o),
(529,363,cs),
(151,363,l)
);
}
);
width = 811;
},
{
layerId = "7DF63F5B-BA78-420A-94D8-89AFC26E7780";
shapes = (
{
closed = 1;
nodes = (
(175,0,l),
(175,288,l),
(541,288,ls),
(677,288,o),
(776,361,o),
(776,501,cs),
(776,640,o),
(677,714,o),
(541,714,cs),
(75,714,l),
(75,0,l)
);
},
{
closed = 1;
nodes = (
(175,634,l),
(528,634,ls),
(620,634,o),
(671,583,o),
(671,501,cs),
(671,418,o),
(620,368,o),
(528,368,cs),
(175,368,l)
);
}
);
width = 818;
},
{
layerId = "CF630257-B204-4765-8982-527F59E4E5D4";
shapes = (
{
closed = 1;
nodes = (
(151,0,l),
(151,306,l),
(372,306,ls),
(495,306,o),
(591,375,o),
(591,509,cs),
(591,643,o),
(495,714,o),
(372,714,cs),
(90,714,l),
(90,0,l)
);
},
{
closed = 1;
nodes = (
(151,661,l),
(363,661,ls),
(471,661,o),
(527,600,o),
(527,509,cs),
(527,418,o),
(471,359,o),
(363,359,cs),
(151,359,l)
);
}
);
width = 629;
},
{
layerId = "89792DEA-715D-4C6B-9843-C33DBACDCF53";
shapes = (
{
closed = 1;
nodes = (
(140,0,l),
(140,316,l),
(247,316,ls),
(357,316,o),
(442,381,o),
(441,515,cs),
(440,648,o),
(357,714,o),
(247,714,cs),
(82,714,l),
(82,0,l)
);
},
{
closed = 1;
nodes = (
(140,666,l),
(240,666,ls),
(329,666,o),
(379,607,o),
(379,515,cs),
(379,422,o),
(329,363,o),
(240,363,cs),
(140,363,l)
);
}
);
width = 471;
},
{
layerId = "F5B2086A-EC1C-45D9-9613-A3504CEE232E";
shapes = (
{
closed = 1;
nodes = (
(158,0,l),
(158,299,l),
(257,299,ls),
(371,299,o),
(460,366,o),
(459,507,cs),
(459,648,o),
(371,714,o),
(257,714,cs),
(74,714,l),
(74,0,l)
);
},
{
closed = 1;
nodes = (
(158,648,l),
(248,648,ls),
(325,648,o),
(371,594,o),
(371,507,cs),
(371,420,o),
(325,366,o),
(248,366,cs),
(158,366,l)
);
}
);
width = 484;
},
{
layerId = "FEA946D2-303E-4050-8628-E645DE71E218";
shapes = (
{
closed = 1;
nodes = (
(178,0,l),
(178,282,l),
(393,282,ls),
(524,282,o),
(616,367,o),
(616,497,cs),
(616,628,o),
(524,714,o),
(393,714,cs),
(84,714,l),
(84,0,l)
);
},
{
closed = 1;
nodes = (
(178,635,l),
(375,635,ls),
(466,635,o),
(518,581,o),
(518,497,cs),
(518,414,o),
(466,360,o),
(375,360,cs),
(178,360,l)
);
}
);
width = 650;
},
{
layerId = "F74FB5BD-F4A6-4696-AECE-814F0CF1BFBE";
shapes = (
{
closed = 1;
nodes = (
(232,0,l),
(232,234,l),
(285,234,ls),
(409,234,o),
(530,292,o),
(529,473,cs),
(527,655,o),
(409,714,o),
(285,714,cs),
(37,714,l),
(37,0,l)
);
},
{
closed = 1;
nodes = (
(232,565,l),
(267,565,ls),
(299,565,o),
(329,540,o),
(329,473,cs),
(329,408,o),
(299,380,o),
(267,380,cs),
(232,380,l)
);
}
);
width = 547;
},
{
layerId = "3E78BF7E-2ACA-4E8F-B7F7-8733FDFDD1D6";
shapes = (
{
closed = 1;
nodes = (
(255,0,l),
(255,209,l),
(407,209,ls),
(558,209,o),
(674,297,o),
(674,462,cs),
(674,626,o),
(558,714,o),
(407,714,cs),
(54,714,l),
(54,0,l)
);
},
{
closed = 1;
nodes = (
(255,556,l),
(376,556,ls),
(426,556,o),
(468,523,o),
(468,462,cs),
(468,400,o),
(426,367,o),
(376,367,cs),
(255,367,l)
);
}
);
width = 697;
},
{
layerId = "CEA8704A-49A9-4D73-A586-1E9554ACC001";
shapes = (
{
closed = 1;
nodes = (
(279,0,l),
(279,217,l),
(552,217,ls),
(733,217,o),
(839,311,o),
(839,466,cs),
(839,620,o),
(733,714,o),
(552,714,cs),
(57,714,l),
(57,0,l)
);
},
{
closed = 1;
nodes = (
(279,547,l),
(532,547,ls),
(576,547,o),
(609,517,o),
(609,466,cs),
(609,415,o),
(576,386,o),
(532,386,cs),
(279,386,l)
);
}
);
width = 862;
}
);
metricLeft = H;
unicode = 80;
},
{
glyphname = Thorn;
kernLeft = H;
lastChange = "2024-12-06 10:39:41 +0000";
layers = (
{
layerId = m007;
shapes = (
{
closed = 1;
nodes = (
(540,156,ls),
(666,156,o),
(763,222,o),
(763,358,cs),
(763,494,o),
(666,564,o),
(540,564,cs),
(118,564,l),
(118,507,l),
(529,507,ls),
(633,507,o),
(690,449,o),
(690,358,cs),
(690,267,o),
(633,213,o),
(529,213,cs),
(118,213,l),
(118,156,l)
);
},
{
closed = 1;
nodes = (
(151,0,l),
(151,714,l),
(82,714,l),
(82,0,l)
);
}
);
width = 814;
},
{
background = {
shapes = (
{
closed = 1;
nodes = (
(540,156,ls),
(666,156,o),
(763,222,o),
(763,358,cs),
(763,494,o),
(666,564,o),
(540,564,cs),
(118,564,l),
(118,507,l),
(529,507,ls),
(633,507,o),
(690,449,o),
(690,358,cs),
(690,267,o),
(633,213,o),
(529,213,cs),
(118,213,l),
(118,156,l)
);
},
{
closed = 1;
nodes = (
(151,0,l),
(151,714,l),
(82,714,l),
(82,0,l)
);
}
);
};
layerId = "7DF63F5B-BA78-420A-94D8-89AFC26E7780";
shapes = (
{
closed = 1;
nodes = (
(541,147,ls),
(677,147,o),
(776,218,o),
(776,358,cs),
(776,497,o),
(677,572,o),
(541,572,cs),
(125,572,l),
(125,493,l),
(528,493,ls),
(620,493,o),
(671,441,o),
(671,358,cs),
(671,275,o),
(620,226,o),
(528,226,cs),
(125,226,l),
(125,147,l)
);
},
{
closed = 1;
nodes = (
(175,0,l),
(175,714,l),
(75,714,l),
(75,0,l)
);
}
);
width = 822;
},
{
layerId = "CF630257-B204-4765-8982-527F59E4E5D4";
shapes = (
{
closed = 1;
nodes = (
(372,154,ls),
(495,154,o),
(591,224,o),
(591,358,cs),
(591,492,o),
(495,564,o),
(372,564,cs),
(120,564,l),
(120,511,l),
(364,511,ls),
(471,511,o),
(527,449,o),
(527,358,cs),
(527,267,o),
(471,207,o),
(364,207,cs),
(120,207,l),
(120,154,l)
);
},
{
closed = 1;
nodes = (
(150,0,l),
(150,714,l),
(90,714,l),
(90,0,l)
);
}
);
width = 642;
},
{
layerId = "89792DEA-715D-4C6B-9843-C33DBACDCF53";
shapes = (
{
closed = 1;
nodes = (
(247,160,ls),
(357,160,o),
(442,226,o),
(441,359,cs),
(440,492,o),
(357,558,o),
(247,558,cs),
(119,558,l),
(119,511,l),
(240,511,ls),
(329,511,o),
(379,451,o),
(379,359,cs),
(379,266,o),
(329,207,o),
(240,207,cs),
(119,207,l),
(119,160,l)
);
},
{
closed = 1;
nodes = (
(140,0,l),
(140,714,l),
(82,714,l),
(82,0,l)
);
}
);
width = 483;
},
{
layerId = "F5B2086A-EC1C-45D9-9613-A3504CEE232E";
shapes = (
{
closed = 1;
nodes = (
(257,151,ls),
(371,151,o),
(460,218,o),
(459,359,cs),
(459,500,o),
(371,566,o),
(257,566,cs),
(122,566,l),
(122,500,l),
(248,500,ls),
(325,500,o),
(371,446,o),
(371,359,cs),
(371,272,o),
(325,218,o),
(248,218,cs),
(122,218,l),
(122,151,l)
);
},
{
closed = 1;
nodes = (
(158,0,l),
(158,714,l),
(74,714,l),
(74,0,l)
);
}
);
width = 497;
},
{
layerId = "FEA946D2-303E-4050-8628-E645DE71E218";
shapes = (
{
closed = 1;
nodes = (
(393,141,ls),
(524,141,o),
(616,227,o),
(616,358,cs),
(616,490,o),
(524,576,o),
(393,576,cs),
(133,576,l),
(133,497,l),
(375,497,ls),
(466,497,o),
(519,443,o),
(519,358,cs),
(519,274,o),
(466,220,o),
(375,220,cs),
(133,220,l),
(133,141,l)
);
},
{
closed = 1;
nodes = (
(177,0,l),
(177,714,l),
(84,714,l),
(84,0,l)
);
}
);
width = 661;
},
{
layerId = "F74FB5BD-F4A6-4696-AECE-814F0CF1BFBE";
shapes = (
{
closed = 1;
nodes = (
(285,118,ls),
(408,118,o),
(530,178,o),
(529,359,cs),
(527,541,o),
(408,600,o),
(285,600,cs),
(173,600,l),
(173,452,l),
(267,452,ls),
(299,452,o),
(329,424,o),
(329,359,cs),
(329,293,o),
(299,266,o),
(267,266,cs),
(173,266,l),
(173,118,l)
);
},
{
closed = 1;
nodes = (
(232,0,l),
(232,714,l),
(37,714,l),
(37,0,l)
);
}
);
width = 550;
},
{
layerId = "3E78BF7E-2ACA-4E8F-B7F7-8733FDFDD1D6";
shapes = (
{
closed = 1;
nodes = (
(407,106,ls),
(558,106,o),
(674,193,o),
(674,357,cs),
(674,522,o),
(558,611,o),
(407,611,cs),
(170,611,l),
(170,454,l),
(374,454,ls),
(424,454,o),
(468,417,o),
(468,357,cs),
(468,298,o),
(424,263,o),
(374,263,cs),
(170,263,l),
(170,106,l)
);
},
{
closed = 1;
nodes = (
(255,0,l),
(255,714,l),
(54,714,l),
(54,0,l)
);
}
);
width = 703;
},
{
layerId = "CEA8704A-49A9-4D73-A586-1E9554ACC001";
shapes = (
{
closed = 1;
nodes = (
(552,110,ls),
(733,110,o),
(839,204,o),
(839,358,cs),
(839,512,o),
(733,606,o),
(552,606,cs),
(173,606,l),
(173,439,l),
(532,439,ls),
(576,439,o),
(609,409,o),
(609,358,cs),
(609,307,o),
(576,277,o),
(532,277,cs),
(173,277,l),
(173,110,l)
);
},
{
closed = 1;
nodes = (
(279,0,l),
(279,714,l),
(57,714,l),
(57,0,l)
);
}
);
width = 868;
}
);
metricLeft = H;
unicode = 222;
},
{
glyphname = Q;
kernLeft = O;
lastChange = "2024-12-10 08:36:45 +0000";
layers = (
{
guides = (
{
angle = -45;
pos = (627,331);
},
{
angle = -45;
pos = (581,286);
}
);
layerId = m007;
shapes = (
{
closed = 1;
nodes = (
(989,0,l),
(989,57,l),
(973,57,ls),
(923,57,o),
(886,72,o),
(850,108,cs),
(627,331,l),
(581,286,l),
(806,61,ls),
(849,18,o),
(893,0,o),
(954,0,cs)
);
},
{
alignment = -1;
ref = O;
}
);
width = 1019;
},
{
background = {
shapes = (
{
closed = 1;
nodes = (
(989,0,l),
(989,57,l),
(946,57,ls),
(911,57,o),
(892,65,o),
(869,88,cs),
(627,331,l),
(581,286,l),
(824,43,ls),
(855,12,o),
(885,0,o),
(935,0,cs)
);
}
);
};
guides = (
{
angle = 90;
pos = (908,357);
},
{
angle = -65.1679;
pos = (465,184);
},
{
angle = -45;
pos = (565,287);
},
{
angle = -45;
pos = (627,348);
}
);
layerId = "7DF63F5B-BA78-420A-94D8-89AFC26E7780";
shapes = (
{
closed = 1;
nodes = (
(1008,0,l),
(1008,80,l),
(967,80,ls),
(916,80,o),
(880,95,o),
(844,131,cs),
(627,348,l),
(565,287,l),
(780,72,ls),
(831,21,o),
(881,0,o),
(953,0,cs)
);
},
{
alignment = -1;
ref = O;
}
);
width = 1033;
},
{
guides = (
{
angle = -45;
pos = (429,212);
},
{
angle = -45;
pos = (470,253);
}
);
layerId = "CF630257-B204-4765-8982-527F59E4E5D4";
shapes = (
{
closed = 1;
nodes = (
(777,0,l),
(777,53,l),
(743,53,ls),
(713,53,o),
(691,62,o),
(669,84,cs),
(480,273,l),
(439,232,l),
(620,51,ls),
(656,15,o),
(692,0,o),
(743,0,cs)
);
},
{
ref = O;
}
);
width = 807;
},
{
layerId = "89792DEA-715D-4C6B-9843-C33DBACDCF53";
shapes = (
{
closed = 1;
nodes = (
(523,0,l),
(523,47,l),
(506,47,ls),
(477,47,o),
(456,57,o),
(439,80,cs),
(314,246,l),
(273,215,l),
(396,50,ls),
(422,15,o),
(453,0,o),
(497,0,cs)
);
},
{
alignment = -1;
ref = O;
}
);
width = 548;
},
{
background = {
shapes = (
{
closed = 1;
nodes = (
(523,0,l),
(523,47,l),
(506,47,ls),
(477,47,o),
(456,57,o),
(439,80,cs),
(314,246,l),
(273,215,l),
(396,50,ls),
(422,15,o),
(453,0,o),
(497,0,cs)
);
}
);
};
layerId = "F5B2086A-EC1C-45D9-9613-A3504CEE232E";
shapes = (
{
closed = 1;
nodes = (
(539,0,l),
(539,62,l),
(508,62,ls),
(479,62,o),
(461,68,o),
(441,95,cs),
(315,259,l),
(259,217,l),
(388,45,ls),
(411,14,o),
(441,0,o),
(488,0,cs)
);
},
{
alignment = -1;
ref = O;
}
);
width = 559;
},
{
guides = (
{
angle = 270;
pos = (771,40);
},
{
angle = 270;
pos = (726,357);
}
);
layerId = "FEA946D2-303E-4050-8628-E645DE71E218";
shapes = (
{
closed = 1;
nodes = (
(788,0,l),
(788,80,l),
(737,80,ls),
(704,80,o),
(683,88,o),
(661,110,cs),
(478,293,l),
(418,233,l),
(595,56,ls),
(636,15,o),
(673,0,o),
(729,0,cs)
);
},
{
alignment = -1;
ref = O;
}
);
width = 813;
},
{
associatedMasterId = "F5B2086A-EC1C-45D9-9613-A3504CEE232E";
attr = {
axisRules = (
{
min = 700;
},
{
max = 90;
min = 50;
},
{
}
);
};
background = {
shapes = (
{
closed = 1;
nodes = (
(523,0,l),
(523,47,l),
(506,47,ls),
(477,47,o),
(456,57,o),
(439,80,cs),
(314,246,l),
(273,215,l),
(396,50,ls),
(422,15,o),
(453,0,o),
(497,0,cs)
);
}
);
};
layerId = "9EF87A49-E5DE-4B78-98AB-569DEA0B1F16";
name = "22 Nov 24 at 10:44";
shapes = (
{
closed = 1;
nodes = (
(547,0,l),
(547,62,l),
(516,62,ls),
(487,62,o),
(469,68,o),
(449,95,cs),
(433,115,l),
(382,63,l),
(396,45,ls),
(419,14,o),
(449,0,o),
(496,0,cs)
);
},
{
alignment = -1;
ref = O;
}
);
width = 567;
},
{
associatedMasterId = "FEA946D2-303E-4050-8628-E645DE71E218";
attr = {
axisRules = (
{
min = 700;
},
{
max = 90;
min = 50;
},
{
}
);
};
background = {
shapes = (
{
closed = 1;
nodes = (
(767,0,l),
(767,53,l),
(733,53,ls),
(703,53,o),
(681,62,o),
(659,84,cs),
(480,263,l),
(439,222,l),
(610,51,ls),
(646,15,o),
(682,0,o),
(733,0,cs)
);
}
);
};
guides = (
{
angle = 270;
pos = (779,40);
},
{
angle = 270;
pos = (726,357);
}
);
layerId = "C48D80E4-40D6-4662-B306-9F2ABDA1A9CB";
name = "22 Nov 24 at 10:44";
shapes = (
{
closed = 1;
nodes = (
(796,0,l),
(796,80,l),
(745,80,ls),
(712,80,o),
(691,88,o),
(669,110,cs),
(622,157,l),
(565,94,l),
(603,56,ls),
(644,15,o),
(681,0,o),
(737,0,cs)
);
},
{
alignment = -1;
ref = O;
}
);
width = 821;
},
{
layerId = "F74FB5BD-F4A6-4696-AECE-814F0CF1BFBE";
shapes = (
{
closed = 1;
nodes = (
(614,0,l),
(614,154,l),
(607,154,ls),
(581,154,o),
(557,161,o),
(536,179,cs),
(317,363,l),
(236,233,l),
(466,39,ls),
(499,11,o),
(542,0,o),
(585,0,cs)
);
},
{
alignment = -1;
ref = O;
}
);
width = 623;
},
{
layerId = "3E78BF7E-2ACA-4E8F-B7F7-8733FDFDD1D6";
shapes = (
{
closed = 1;
nodes = (
(795,0,l),
(795,144,l),
(755,144,ls),
(716,144,o),
(684,158,o),
(656,185,cs),
(472,370,l),
(355,253,l),
(532,76,ls),
(585,23,o),
(639,0,o),
(715,0,cs)
);
},
{
alignment = -1;
ref = O;
}
);
width = 814;
},
{
guides = (
{
angle = 138.8323;
pos = (827,202);
},
{
angle = 138.8323;
pos = (740,64);
}
);
layerId = "CEA8704A-49A9-4D73-A586-1E9554ACC001";
shapes = (
{
closed = 1;
nodes = (
(1016,0,l),
(1016,151,l),
(959,151,ls),
(913,151,o),
(865,169,o),
(827,202,cs),
(600,401,l),
(490,283,l),
(740,64,ls),
(796,15,o),
(845,0,o),
(912,0,cs)
);
},
{
alignment = -1;
ref = O;
}
);
width = 1036;
},
{
associatedMasterId = "F74FB5BD-F4A6-4696-AECE-814F0CF1BFBE";
attr = {
axisRules = (
{
min = 700;
},
{
max = 90;
min = 50;
},
{
}
);
};
layerId = "FF2F7E55-4B02-42DA-8FD4-BBFED13AC6AD";
name = "9 Dec 24 at 09:04";
shapes = (
{
closed = 1;
nodes = (
(624,0,l),
(624,154,l),
(617,154,ls),
(591,154,o),
(566,161,o),
(546,179,cs),
(468,245,l),
(387,115,l),
(476,39,ls),
(510,11,o),
(552,0,o),
(595,0,cs)
);
},
{
alignment = -1;
ref = O;
}
);
width = 633;
},
{
associatedMasterId = "3E78BF7E-2ACA-4E8F-B7F7-8733FDFDD1D6";
attr = {
axisRules = (
{
min = 700;
},
{
max = 90;
min = 50;
},
{
}
);
};
layerId = "D447F085-4DD3-4622-80C2-EFA4C6093B47";
name = "9 Dec 24 at 09:05";
shapes = (
{
closed = 1;
nodes = (
(805,0,l),
(805,144,l),
(765,144,ls),
(726,144,o),
(694,158,o),
(666,185,cs),
(606,246,l),
(494,124,l),
(542,76,ls),
(595,23,o),
(649,0,o),
(725,0,cs)
);
},
{
alignment = -1;
ref = O;
}
);
width = 824;
}
);
metricLeft = O;
unicode = 81;
},
{
glyphname = R;
kernLeft = H;
kernRight = R;
lastChange = "2024-12-06 10:39:41 +0000";
layers = (
{
anchors = (
{
name = bottom;
pos = (435,0);
},
{
name = top;
pos = (406,714);
}
);
layerId = m007;
shapes = (
{
closed = 1;
nodes = (
(151,0,l),
(151,311,l),
(580,311,ls),
(636,311,o),
(660,287,o),
(676,226,cs),
(736,0,l),
(808,0,l),
(746,227,ls),
(727,294,o),
(717,334,o),
(644,348,c),
(713,369,o),
(760,428,o),
(760,522,cs),
(760,641,o),
(673,714,o),
(547,714,cs),
(82,714,l),
(82,0,l)
);
},
{
closed = 1;
nodes = (
(151,657,l),
(529,657,ls),
(626,657,o),
(686,608,o),
(686,511,cs),
(686,418,o),
(626,368,o),
(529,368,cs),
(151,368,l)
);
}
);
width = 856;
},
{
anchors = (
{
name = bottom;
pos = (434,0);
},
{
name = top;
pos = (416,714);
}
);
layerId = "7DF63F5B-BA78-420A-94D8-89AFC26E7780";
shapes = (
{
closed = 1;
nodes = (
(174,0,l),
(174,298,l),
(559,298,ls),
(618,298,o),
(643,272,o),
(659,213,cs),
(718,0,l),
(821,0,l),
(759,220,ls),
(738,292,o),
(722,332,o),
(648,346,c),
(728,367,o),
(774,429,o),
(774,520,cs),
(774,642,o),
(684,714,o),
(552,714,cs),
(75,714,l),
(75,0,l)
);
},
{
closed = 1;
nodes = (
(174,634,l),
(530,634,ls),
(614,634,o),
(669,593,o),
(669,510,cs),
(669,420,o),
(614,377,o),
(530,377,cs),
(174,377,l)
);
}
);
width = 863;
},
{
anchors = (
{
name = bottom;
pos = (354,0);
},
{
name = top;
pos = (322,714);
}
);
layerId = "CF630257-B204-4765-8982-527F59E4E5D4";
shapes = (
{
closed = 1;
nodes = (
(151,0,l),
(151,315,l),
(401,315,ls),
(455,315,o),
(487,292,o),
(503,240,cs),
(576,0,l),
(643,0,l),
(570,234,ls),
(553,291,o),
(532,332,o),
(469,346,c),
(540,367,o),
(591,427,o),
(591,517,cs),
(591,649,o),
(502,714,o),
(390,714,cs),
(90,714,l),
(90,0,l)
);
},
{
closed = 1;
nodes = (
(151,661,l),
(384,661,ls),
(469,661,o),
(527,604,o),
(527,515,cs),
(527,424,o),
(469,368,o),
(384,368,cs),
(151,368,l)
);
}
);
width = 693;
},
{
anchors = (
{
name = bottom;
pos = (275,0);
},
{
name = top;
pos = (245,714);
}
);
layerId = "89792DEA-715D-4C6B-9843-C33DBACDCF53";
shapes = (
{
closed = 1;
nodes = (
(140,0,l),
(140,322,l),
(266,322,ls),
(322,322,o),
(349,300,o),
(363,247,cs),
(425,0,l),
(488,0,l),
(423,249,ls),
(410,298,o),
(390,338,o),
(327,354,c),
(402,381,o),
(440,453,o),
(439,533,cs),
(438,643,o),
(369,714,o),
(254,714,cs),
(82,714,l),
(82,0,l)
);
},
{
closed = 1;
nodes = (
(140,666,l),
(248,666,ls),
(324,666,o),
(377,614,o),
(377,520,cs),
(377,424,o),
(318,370,o),
(239,370,cs),
(140,370,l)
);
}
);
width = 518;
},
{
anchors = (
{
name = bottom;
pos = (282,0);
},
{
name = top;
pos = (251,714);
}
);
layerId = "F5B2086A-EC1C-45D9-9613-A3504CEE232E";
shapes = (
{
closed = 1;
nodes = (
(158,0,l),
(158,309,l),
(268,309,ls),
(319,309,o),
(346,287,o),
(357,238,cs),
(415,0,l),
(504,0,l),
(445,236,ls),
(430,291,o),
(412,332,o),
(346,350,c),
(421,376,o),
(459,446,o),
(459,530,cs),
(459,644,o),
(386,714,o),
(262,714,cs),
(74,714,l),
(74,0,l)
);
},
{
closed = 1;
nodes = (
(158,647,l),
(254,647,ls),
(322,647,o),
(371,602,o),
(371,515,cs),
(371,428,o),
(318,376,o),
(246,376,cs),
(158,376,l)
);
}
);
width = 530;
},
{
anchors = (
{
name = bottom;
pos = (370,0);
},
{
name = top;
pos = (332,714);
}
);
layerId = "FEA946D2-303E-4050-8628-E645DE71E218";
shapes = (
{
closed = 1;
nodes = (
(178,0,l),
(178,293,l),
(397,293,ls),
(446,293,o),
(477,269,o),
(492,222,cs),
(555,0,l),
(657,0,l),
(599,197,ls),
(580,258,o),
(575,306,o),
(497,332,c),
(567,356,o),
(616,426,o),
(616,516,cs),
(616,646,o),
(530,714,o),
(404,714,cs),
(84,714,l),
(84,0,l)
);
},
{
closed = 1;
nodes = (
(178,635,l),
(386,635,ls),
(468,635,o),
(518,584,o),
(518,507,cs),
(518,426,o),
(468,372,o),
(385,372,cs),
(178,372,l)
);
}
);
width = 705;
},
{
anchors = (
{
name = bottom;
pos = (305,0);
},
{
name = top;
pos = (268,714);
}
);
layerId = "F74FB5BD-F4A6-4696-AECE-814F0CF1BFBE";
shapes = (
{
closed = 1;
nodes = (
(232,0,l),
(232,259,l),
(266,259,ls),
(304,259,o),
(323,238,o),
(333,197,cs),
(373,0,l),
(576,0,l),
(527,205,ls),
(508,283,o),
(476,325,o),
(399,343,c),
(481,365,o),
(533,427,o),
(533,522,cs),
(533,652,o),
(436,714,o),
(286,714,cs),
(37,714,l),
(37,0,l)
);
},
{
closed = 1;
nodes = (
(232,562,l),
(275,562,ls),
(303,562,o),
(336,541,o),
(336,488,cs),
(336,431,o),
(304,411,o),
(276,411,cs),
(232,411,l)
);
}
);
width = 584;
},
{
anchors = (
{
name = bottom;
pos = (383,0);
},
{
name = top;
pos = (338,714);
}
);
layerId = "3E78BF7E-2ACA-4E8F-B7F7-8733FDFDD1D6";
shapes = (
{
closed = 1;
nodes = (
(255,0,l),
(255,248,l),
(353,248,ls),
(415,248,o),
(451,219,o),
(469,161,cs),
(517,0,l),
(727,0,l),
(674,177,ls),
(655,240,o),
(646,306,o),
(530,331,c),
(621,358,o),
(672,417,o),
(672,515,cs),
(672,642,o),
(580,714,o),
(430,714,cs),
(54,714,l),
(54,0,l)
);
},
{
closed = 1;
nodes = (
(255,558,l),
(393,558,ls),
(426,558,o),
(465,533,o),
(465,480,cs),
(465,427,o),
(426,405,o),
(393,405,cs),
(255,405,l)
);
}
);
width = 745;
},
{
anchors = (
{
name = bottom;
pos = (470,0);
},
{
name = top;
pos = (439,714);
}
);
layerId = "CEA8704A-49A9-4D73-A586-1E9554ACC001";
shapes = (
{
closed = 1;
nodes = (
(279,0,l),
(279,243,l),
(489,243,ls),
(559,243,o),
(592,211,o),
(608,157,cs),
(655,0,l),
(886,0,l),
(829,188,ls),
(802,282,o),
(753,319,o),
(673,328,c),
(800,354,o),
(847,431,o),
(847,518,cs),
(847,648,o),
(748,714,o),
(585,714,cs),
(57,714,l),
(57,0,l)
);
},
{
closed = 1;
nodes = (
(279,547,l),
(549,547,ls),
(580,547,o),
(617,530,o),
(617,478,cs),
(617,427,o),
(580,410,o),
(549,410,cs),
(279,410,l)
);
}
);
width = 908;
}
);
metricLeft = H;
unicode = 82;
},
{
glyphname = S;
kernLeft = S;
kernRight = S;
lastChange = "2024-12-09 15:14:29 +0000";
layers = (
{
anchors = (
{
name = bottom;
pos = (415,0);
},
{
name = top;
pos = (415,714);
}
);
layerId = m007;
shapes = (
{
closed = 1;
nodes = (
(654,-14,o),
(776,59,o),
(776,199,cs),
(776,311,o),
(686,364,o),
(561,380,cs),
(333,411,ls),
(212,427,o),
(148,464,o),
(148,538,cs),
(148,617,o),
(236,670,o),
(411,670,cs),
(597,670,o),
(662,606,o),
(673,526,c),
(745,526,l),
(740,628,o),
(661,728,o),
(413,728,cs),
(197,728,o),
(74,655,o),
(74,537,cs),
(74,406,o),
(189,367,o),
(316,350,cs),
(536,320,ls),
(661,303,o),
(703,253,o),
(703,194,cs),
(703,96,o),
(610,44,o),
(422,44,cs),
(205,44,o),
(134,122,o),
(119,213,c),
(48,213,l),
(54,95,o),
(151,-14,o),
(422,-14,cs)
);
}
);
width = 824;
},
{
anchors = (
{
name = bottom;
pos = (414,0);
},
{
name = top;
pos = (414,714);
}
);
layerId = "7DF63F5B-BA78-420A-94D8-89AFC26E7780";
shapes = (
{
closed = 1;
nodes = (
(661,-14,o),
(789,60,o),
(789,203,cs),
(789,319,o),
(698,373,o),
(565,391,cs),
(329,422,ls),
(227,436,o),
(169,468,o),
(169,532,cs),
(169,604,o),
(251,648,o),
(413,648,cs),
(580,648,o),
(644,596,o),
(655,524,c),
(758,524,l),
(752,631,o),
(663,728,o),
(415,728,cs),
(190,728,o),
(66,651,o),
(66,529,cs),
(66,395,o),
(184,355,o),
(316,337,cs),
(541,307,ls),
(647,293,o),
(685,251,o),
(685,198,cs),
(685,110,o),
(597,66,o),
(425,66,cs),
(233,66,o),
(160,132,o),
(145,214,c),
(42,214,l),
(49,93,o),
(152,-14,o),
(425,-14,cs)
);
}
);
width = 832;
},
{
anchors = (
{
name = bottom;
pos = (326,0);
},
{
name = top;
pos = (327,714);
}
);
layerId = "CF630257-B204-4765-8982-527F59E4E5D4";
shapes = (
{
closed = 1;
nodes = (
(474,-12,o),
(602,53,o),
(602,197,cs),
(602,319,o),
(510,362,o),
(418,383,cs),
(293,410,ls),
(201,430,o),
(138,459,o),
(138,543,cs),
(138,627,o),
(222,673,o),
(323,673,cs),
(439,673,o),
(499,620,o),
(510,532,c),
(573,532,l),
(569,635,o),
(500,726,o),
(327,726,cs),
(192,726,o),
(75,661,o),
(75,538,cs),
(75,403,o),
(185,373,o),
(265,355,cs),
(410,322,ls),
(502,302,o),
(539,256,o),
(539,196,cs),
(539,84,o),
(445,41,o),
(335,41,cs),
(194,41,o),
(126,110,o),
(113,202,c),
(50,202,l),
(55,92,o),
(147,-12,o),
(335,-12,cs)
);
}
);
width = 652;
},
{
anchors = (
{
name = bottom;
pos = (248,0);
},
{
name = top;
pos = (243,714);
}
);
layerId = "89792DEA-715D-4C6B-9843-C33DBACDCF53";
shapes = (
{
closed = 1;
nodes = (
(351,-12,o),
(431,49,o),
(431,173,cs),
(431,287,o),
(367,342,o),
(303,372,cs),
(221,412,ls),
(170,436,o),
(125,476,o),
(125,555,cs),
(125,627,o),
(171,676,o),
(241,676,cs),
(315,676,o),
(349,623,o),
(355,558,c),
(415,558,l),
(410,658,o),
(351,726,o),
(243,726,cs),
(143,726,o),
(65,663,o),
(65,556,cs),
(65,442,o),
(119,398,o),
(198,357,cs),
(274,321,ls),
(325,297,o),
(369,255,o),
(369,172,cs),
(369,83,o),
(321,38,o),
(249,38,cs),
(162,38,o),
(118,101,o),
(113,185,c),
(52,185,l),
(55,70,o),
(126,-12,o),
(248,-12,cs)
);
}
);
width = 483;
},
{
anchors = (
{
name = bottom;
pos = (251,0);
},
{
name = top;
pos = (243,714);
}
);
layerId = "F5B2086A-EC1C-45D9-9613-A3504CEE232E";
shapes = (
{
closed = 1;
nodes = (
(368,-12,o),
(446,56,o),
(446,179,cs),
(446,288,o),
(385,344,o),
(311,381,cs),
(223,425,ls),
(175,449,o),
(139,482,o),
(139,551,cs),
(139,616,o),
(177,658,o),
(239,658,cs),
(303,658,o),
(339,612,o),
(344,552,c),
(429,552,l),
(427,657,o),
(355,726,o),
(242,726,cs),
(132,726,o),
(52,657,o),
(52,552,cs),
(52,448,o),
(104,393,o),
(185,350,cs),
(264,312,ls),
(312,288,o),
(358,252,o),
(358,174,cs),
(358,100,o),
(312,56,o),
(247,56,cs),
(171,56,o),
(133,115,o),
(128,191,c),
(41,191,l),
(44,75,o),
(115,-12,o),
(245,-12,cs)
);
}
);
width = 487;
},
{
anchors = (
{
name = bottom;
pos = (336,0);
},
{
name = top;
pos = (336,714);
}
);
layerId = "FEA946D2-303E-4050-8628-E645DE71E218";
shapes = (
{
closed = 1;
nodes = (
(519,-13,o),
(627,68,o),
(627,201,cs),
(627,304,o),
(563,364,o),
(441,393,cs),
(288,427,ls),
(206,446,o),
(168,479,o),
(168,536,cs),
(168,605,o),
(234,651,o),
(332,651,cs),
(434,651,o),
(493,600,o),
(508,527,c),
(603,527,l),
(597,636,o),
(502,727,o),
(335,727,cs),
(178,727,o),
(70,647,o),
(70,530,cs),
(70,396,o),
(178,358,o),
(267,339,cs),
(415,305,ls),
(493,288,o),
(530,251,o),
(530,193,cs),
(530,105,o),
(451,64,o),
(344,64,cs),
(232,64,o),
(157,121,o),
(142,207,c),
(46,207,l),
(52,93,o),
(155,-13,o),
(344,-13,cs)
);
}
);
width = 673;
},
{
anchors = (
{
name = bottom;
pos = (266,0);
},
{
name = top;
pos = (266,714);
}
);
layerId = "F74FB5BD-F4A6-4696-AECE-814F0CF1BFBE";
shapes = (
{
closed = 1;
nodes = (
(413,-13,o),
(511,63,o),
(511,203,cs),
(511,297,o),
(468,362,o),
(367,414,cs),
(278,457,ls),
(251,473,o),
(221,491,o),
(221,532,cs),
(221,566,o),
(238,582,o),
(262,582,cs),
(290,582,o),
(305,558,o),
(304,516,c),
(501,516,l),
(499,649,o),
(416,727,o),
(263,727,cs),
(116,727,o),
(25,646,o),
(25,518,cs),
(25,410,o),
(84,352,o),
(179,304,cs),
(260,262,ls),
(296,243,o),
(313,223,o),
(313,186,cs),
(313,150,o),
(294,135,o),
(265,135,cs),
(238,135,o),
(213,158,o),
(211,221,c),
(14,221,l),
(16,83,o),
(99,-13,o),
(266,-13,cs)
);
}
);
width = 526;
},
{
anchors = (
{
name = bottom;
pos = (350,0);
},
{
name = top;
pos = (349,714);
}
);
layerId = "3E78BF7E-2ACA-4E8F-B7F7-8733FDFDD1D6";
shapes = (
{
closed = 1;
nodes = (
(519,-13,o),
(655,64,o),
(655,216,cs),
(655,346,o),
(571,406,o),
(451,431,cs),
(310,462,ls),
(268,471,o),
(252,489,o),
(252,519,cs),
(252,559,o),
(292,581,o),
(343,581,cs),
(401,581,o),
(436,558,o),
(439,516,c),
(639,516,l),
(630,646,o),
(515,727,o),
(347,727,cs),
(159,727,o),
(47,633,o),
(47,503,cs),
(47,355,o),
(154,315,o),
(283,285,cs),
(402,256,ls),
(434,249,o),
(450,231,o),
(450,202,cs),
(450,157,o),
(403,139,o),
(352,139,cs),
(294,139,o),
(238,159,o),
(229,218,c),
(31,218,l),
(34,78,o),
(161,-13,o),
(349,-13,cs)
);
}
);
width = 686;
},
{
anchors = (
{
name = bottom;
pos = (437,0);
},
{
name = top;
pos = (437,714);
}
);
layerId = "CEA8704A-49A9-4D73-A586-1E9554ACC001";
shapes = (
{
closed = 1;
nodes = (
(701,-14,o),
(854,62,o),
(854,220,cs),
(854,352,o),
(750,414,o),
(592,432,cs),
(326,464,ls),
(299,467,o),
(268,482,o),
(268,513,cs),
(268,550,o),
(319,576,o),
(427,576,cs),
(526,576,o),
(582,554,o),
(590,518,c),
(820,518,l),
(811,643,o),
(682,728,o),
(433,728,cs),
(171,728,o),
(38,633,o),
(38,501,cs),
(38,349,o),
(170,303,o),
(316,286,cs),
(572,255,ls),
(601,252,o),
(623,241,o),
(623,212,cs),
(623,168,o),
(553,138,o),
(449,138,cs),
(346,138,o),
(275,168,o),
(257,216,c),
(28,216,l),
(37,84,o),
(165,-14,o),
(449,-14,cs)
);
}
);
width = 880;
}
);
unicode = 83;
},
{
glyphname = Germandbls;
kernLeft = H;
kernRight = B;
lastChange = "2024-12-06 10:39:41 +0000";
layers = (
{
layerId = m007;
shapes = (
{
closed = 1;
nodes = (
(151,0,l),
(151,657,l),
(512,657,ls),
(606,657,o),
(655,608,o),
(655,538,cs),
(655,460,o),
(599,401,o),
(524,401,cs),
(348,401,l),
(348,345,l),
(547,345,ls),
(642,345,o),
(702,289,o),
(702,208,cs),
(702,100,o),
(626,57,o),
(500,57,cs),
(327,57,l),
(327,0,l),
(508,0,ls),
(690,0,o),
(775,78,o),
(775,205,cs),
(775,301,o),
(713,363,o),
(597,378,c),
(675,399,o),
(727,464,o),
(727,547,cs),
(727,654,o),
(653,714,o),
(524,714,cs),
(82,714,l),
(82,0,l)
);
}
);
width = 832;
},
{
layerId = "7DF63F5B-BA78-420A-94D8-89AFC26E7780";
shapes = (
{
closed = 1;
nodes = (
(175,0,l),
(175,634,l),
(528,634,ls),
(606,634,o),
(650,596,o),
(650,533,cs),
(650,462,o),
(606,411,o),
(533,411,cs),
(348,411,l),
(348,334,l),
(557,334,ls),
(646,334,o),
(697,283,o),
(697,211,cs),
(697,117,o),
(627,80,o),
(518,80,cs),
(323,80,l),
(323,0,l),
(532,0,ls),
(708,0,o),
(801,85,o),
(801,206,cs),
(801,301,o),
(736,362,o),
(629,381,c),
(701,406,o),
(752,463,o),
(751,550,cs),
(750,638,o),
(677,714,o),
(530,714,cs),
(75,714,l),
(75,0,l)
);
}
);
width = 852;
},
{
layerId = "CF630257-B204-4765-8982-527F59E4E5D4";
shapes = (
{
closed = 1;
nodes = (
(150,0,l),
(150,661,l),
(335,661,ls),
(421,661,o),
(474,618,o),
(474,537,cs),
(474,479,o),
(441,399,o),
(348,399,cs),
(273,399,l),
(273,347,l),
(361,347,ls),
(478,347,o),
(521,278,o),
(521,200,cs),
(521,85,o),
(438,53,o),
(334,53,cs),
(263,53,l),
(263,0,l),
(340,0,ls),
(492,0,o),
(585,70,o),
(585,200,cs),
(585,303,o),
(517,365,o),
(419,377,c),
(481,395,o),
(538,457,o),
(537,544,cs),
(536,655,o),
(453,714,o),
(335,714,cs),
(90,714,l),
(90,0,l)
);
}
);
width = 633;
},
{
layerId = "89792DEA-715D-4C6B-9843-C33DBACDCF53";
shapes = (
{
closed = 1;
nodes = (
(140,0,l),
(140,666,l),
(253,666,ls),
(326,666,o),
(374,620,o),
(374,544,cs),
(374,461,o),
(325,399,o),
(261,399,cs),
(223,399,l),
(223,348,l),
(266,348,ls),
(349,348,o),
(404,287,o),
(404,197,cs),
(404,95,o),
(343,48,o),
(265,48,cs),
(210,48,l),
(210,0,l),
(270,0,ls),
(393,0,o),
(465,77,o),
(465,196,cs),
(465,301,o),
(392,365,o),
(312,376,c),
(391,402,o),
(435,471,o),
(435,548,cs),
(435,645,o),
(364,714,o),
(262,714,cs),
(82,714,l),
(82,0,l)
);
}
);
width = 505;
},
{
layerId = "F5B2086A-EC1C-45D9-9613-A3504CEE232E";
shapes = (
{
closed = 1;
nodes = (
(158,0,l),
(158,647,l),
(267,647,ls),
(339,647,o),
(381,602,o),
(381,539,cs),
(381,465,o),
(335,407,o),
(274,407,cs),
(243,407,l),
(243,340,l),
(277,340,ls),
(363,340,o),
(411,285,o),
(411,206,cs),
(411,110,o),
(354,67,o),
(280,67,cs),
(225,67,l),
(225,0,l),
(291,0,ls),
(417,0,o),
(499,79,o),
(499,199,cs),
(499,303,o),
(432,361,o),
(350,378,c),
(425,405,o),
(468,473,o),
(468,549,cs),
(468,643,o),
(398,714,o),
(280,714,cs),
(74,714,l),
(74,0,l)
);
}
);
width = 535;
},
{
layerId = "FEA946D2-303E-4050-8628-E645DE71E218";
shapes = (
{
closed = 1;
nodes = (
(177,0,l),
(177,640,l),
(347,640,ls),
(420,640,o),
(467,597,o),
(467,530,cs),
(467,471,o),
(436,411,o),
(360,411,cs),
(282,411,l),
(282,336,l),
(373,336,ls),
(472,336,o),
(513,276,o),
(513,208,cs),
(513,107,o),
(441,75,o),
(358,75,cs),
(270,75,l),
(270,0,l),
(368,0,ls),
(513,0,o),
(611,75,o),
(611,200,cs),
(611,299,o),
(551,361,o),
(437,379,c),
(515,402,o),
(562,463,o),
(561,546,cs),
(560,648,o),
(493,714,o),
(359,714,cs),
(84,714,l),
(84,0,l)
);
}
);
width = 653;
},
{
layerId = "F74FB5BD-F4A6-4696-AECE-814F0CF1BFBE";
shapes = (
{
closed = 1;
nodes = (
(232,0,l),
(232,564,l),
(293,564,ls),
(330,564,o),
(349,541,o),
(349,505,cs),
(349,470,o),
(327,446,o),
(299,446,cs),
(286,446,l),
(286,301,l),
(308,301,ls),
(345,301,o),
(371,274,o),
(371,227,cs),
(371,179,o),
(345,152,o),
(310,152,cs),
(276,152,l),
(276,0,l),
(332,0,ls),
(461,0,o),
(572,66,o),
(572,216,cs),
(572,301,o),
(530,362,o),
(430,386,c),
(502,411,o),
(535,468,o),
(535,541,cs),
(535,634,o),
(466,714,o),
(324,714,cs),
(37,714,l),
(37,0,l)
);
}
);
width = 585;
},
{
layerId = "3E78BF7E-2ACA-4E8F-B7F7-8733FDFDD1D6";
shapes = (
{
closed = 1;
nodes = (
(255,0,l),
(255,568,l),
(352,568,ls),
(390,568,o),
(423,549,o),
(423,505,cs),
(423,462,o),
(394,442,o),
(356,442,cs),
(325,442,l),
(325,304,l),
(381,304,ls),
(426,304,o),
(455,275,o),
(455,229,cs),
(455,188,o),
(426,155,o),
(375,155,cs),
(323,155,l),
(323,0,l),
(403,0,ls),
(562,0,o),
(662,82,o),
(662,213,cs),
(662,287,o),
(619,362,o),
(497,383,c),
(588,411,o),
(611,484,o),
(611,547,cs),
(611,627,o),
(558,714,o),
(388,714,cs),
(54,714,l),
(54,0,l)
);
}
);
width = 687;
},
{
layerId = "CEA8704A-49A9-4D73-A586-1E9554ACC001";
shapes = (
{
closed = 1;
nodes = (
(279,0,l),
(279,547,l),
(585,547,ls),
(616,547,o),
(643,534,o),
(643,499,cs),
(643,465,o),
(622,449,o),
(583,449,cs),
(414,449,l),
(414,296,l),
(605,296,ls),
(646,296,o),
(671,271,o),
(671,235,cs),
(671,196,o),
(648,167,o),
(606,167,cs),
(386,167,l),
(386,0,l),
(647,0,ls),
(803,0,o),
(900,83,o),
(900,206,cs),
(900,296,o),
(848,354,o),
(737,379,c),
(818,406,o),
(857,465,o),
(856,544,cs),
(856,616,o),
(807,714,o),
(634,714,cs),
(57,714,l),
(57,0,l)
);
}
);
width = 924;
}
);
metricLeft = H;
unicode = 7838;
},
{
glyphname = T;
kernLeft = T;
kernRight = T;
lastChange = "2024-12-10 07:45:41 +0000";
layers = (
{
anchors = (
{
name = bottom;
pos = (384,0);
},
{
name = center;
pos = (384,365);
},
{
name = top;
pos = (384,714);
}
);
layerId = m007;
shapes = (
{
closed = 1;
nodes = (
(418,0,l),
(418,657,l),
(745,657,l),
(745,714,l),
(22,714,l),
(22,657,l),
(349,657,l),
(349,0,l)
);
}
);
width = 767;
},
{
anchors = (
{
name = bottom;
pos = (391,0);
},
{
name = center;
pos = (391,365);
},
{
name = top;
pos = (391,714);
}
);
layerId = "7DF63F5B-BA78-420A-94D8-89AFC26E7780";
shapes = (
{
closed = 1;
nodes = (
(441,0,l),
(441,634,l),
(761,634,l),
(761,714,l),
(20,714,l),
(20,634,l),
(341,634,l),
(341,0,l)
);
}
);
width = 781;
},
{
anchors = (
{
name = bottom;
pos = (301,0);
},
{
name = center;
pos = (302,365);
},
{
name = top;
pos = (302,714);
}
);
layerId = "CF630257-B204-4765-8982-527F59E4E5D4";
shapes = (
{
closed = 1;
nodes = (
(332,0,l),
(332,661,l),
(574,661,l),
(574,714,l),
(28,714,l),
(28,661,l),
(270,661,l),
(270,0,l)
);
}
);
width = 602;
},
{
anchors = (
{
name = bottom;
pos = (218,0);
},
{
name = center;
pos = (218,365);
},
{
name = top;
pos = (218,714);
}
);
layerId = "89792DEA-715D-4C6B-9843-C33DBACDCF53";
shapes = (
{
closed = 1;
nodes = (
(247,0,l),
(247,666,l),
(416,666,l),
(416,714,l),
(20,714,l),
(20,666,l),
(189,666,l),
(189,0,l)
);
}
);
width = 436;
},
{
anchors = (
{
name = bottom;
pos = (222,0);
},
{
name = center;
pos = (222,365);
},
{
name = top;
pos = (222,714);
}
);
layerId = "F5B2086A-EC1C-45D9-9613-A3504CEE232E";
shapes = (
{
closed = 1;
nodes = (
(264,0,l),
(264,647,l),
(427,647,l),
(427,714,l),
(16,714,l),
(16,647,l),
(181,647,l),
(181,0,l)
);
}
);
width = 443;
},
{
anchors = (
{
name = bottom;
pos = (308,0);
},
{
name = center;
pos = (308,365);
},
{
name = top;
pos = (308,714);
}
);
layerId = "FEA946D2-303E-4050-8628-E645DE71E218";
shapes = (
{
closed = 1;
nodes = (
(355,0,l),
(355,634,l),
(592,634,l),
(592,714,l),
(24,714,l),
(24,634,l),
(261,634,l),
(261,0,l)
);
}
);
width = 616;
},
{
anchors = (
{
name = bottom;
pos = (247,0);
},
{
name = center;
pos = (247,365);
},
{
name = top;
pos = (247,714);
}
);
layerId = "F74FB5BD-F4A6-4696-AECE-814F0CF1BFBE";
shapes = (
{
closed = 1;
nodes = (
(345,0,l),
(345,561,l),
(484,561,l),
(484,714,l),
(11,714,l),
(11,561,l),
(150,561,l),
(150,0,l)
);
}
);
width = 495;
},
{
anchors = (
{
name = bottom;
pos = (327,0);
},
{
name = center;
pos = (327,365);
},
{
name = top;
pos = (327,714);
}
);
layerId = "3E78BF7E-2ACA-4E8F-B7F7-8733FDFDD1D6";
shapes = (
{
closed = 1;
nodes = (
(427,0,l),
(427,551,l),
(632,551,l),
(632,714,l),
(23,714,l),
(23,551,l),
(228,551,l),
(228,0,l)
);
}
);
width = 655;
},
{
anchors = (
{
name = bottom;
pos = (426,0);
},
{
name = center;
pos = (426,365);
},
{
name = top;
pos = (426,714);
}
);
layerId = "CEA8704A-49A9-4D73-A586-1E9554ACC001";
shapes = (
{
closed = 1;
nodes = (
(537,0,l),
(537,549,l),
(830,549,l),
(830,714,l),
(22,714,l),
(22,549,l),
(316,549,l),
(316,0,l)
);
}
);
width = 852;
}
);
unicode = 84;
},
{
glyphname = U;
kernLeft = U;
kernRight = U;
lastChange = "2024-12-06 10:39:41 +0000";
layers = (
{
anchors = (
{
name = bottom;
pos = (422,0);
},
{
name = ogonek;
pos = (572,10);
},
{
name = top;
pos = (419,714);
},
{
name = topright;
pos = (827,714);
}
);
layerId = m007;
shapes = (
{
closed = 1;
nodes = (
(634,-14,o),
(767,109,o),
(767,309,cs),
(767,714,l),
(703,714,l),
(703,316,ls),
(703,150,o),
(609,44,o),
(425,44,cs),
(240,44,o),
(141,153,o),
(141,318,cs),
(141,714,l),
(71,714,l),
(71,308,ls),
(71,109,o),
(200,-14,o),
(425,-14,cs)
);
}
);
width = 838;
},
{
anchors = (
{
name = bottom;
pos = (424,0);
},
{
name = ogonek;
pos = (582,10);
},
{
name = top;
pos = (423,714);
},
{
name = topright;
pos = (837,714);
}
);
layerId = "7DF63F5B-BA78-420A-94D8-89AFC26E7780";
shapes = (
{
closed = 1;
nodes = (
(646,-14,o),
(781,107,o),
(781,312,cs),
(781,714,l),
(690,714,l),
(690,316,ls),
(690,163,o),
(600,64,o),
(429,64,cs),
(257,64,o),
(165,165,o),
(165,318,cs),
(165,714,l),
(65,714,l),
(65,311,ls),
(65,107,o),
(199,-14,o),
(428,-14,cs)
);
}
);
width = 847;
},
{
anchors = (
{
name = bottom;
pos = (343,0);
},
{
name = ogonek;
pos = (459,10);
},
{
name = top;
pos = (343,714);
},
{
name = topright;
pos = (671,714);
}
);
layerId = "CF630257-B204-4765-8982-527F59E4E5D4";
shapes = (
{
closed = 1;
nodes = (
(501,-12,o),
(602,92,o),
(602,261,cs),
(602,714,l),
(545,714,l),
(545,271,ls),
(545,123,o),
(467,42,o),
(344,42,cs),
(219,42,o),
(145,123,o),
(145,271,cs),
(145,714,l),
(84,714,l),
(84,261,ls),
(84,92,o),
(187,-12,o),
(344,-12,cs)
);
}
);
width = 686;
},
{
anchors = (
{
name = bottom;
pos = (264,0);
},
{
name = ogonek;
pos = (362,10);
},
{
name = top;
pos = (264,714);
},
{
name = topright;
pos = (606,714);
}
);
layerId = "89792DEA-715D-4C6B-9843-C33DBACDCF53";
shapes = (
{
closed = 1;
nodes = (
(386,-12,o),
(452,67,o),
(452,179,cs),
(452,714,l),
(397,714,l),
(397,193,ls),
(397,89,o),
(346,38,o),
(264,38,cs),
(182,38,o),
(132,95,o),
(132,193,cs),
(132,714,l),
(74,714,l),
(74,189,ls),
(74,67,o),
(143,-12,o),
(264,-12,cs)
);
}
);
width = 526;
},
{
anchors = (
{
name = bottom;
pos = (270,0);
},
{
name = ogonek;
pos = (375,10);
},
{
name = top;
pos = (270,714);
},
{
name = topright;
pos = (600,714);
}
);
layerId = "F5B2086A-EC1C-45D9-9613-A3504CEE232E";
shapes = (
{
closed = 1;
nodes = (
(396,-12,o),
(471,64,o),
(471,186,cs),
(471,714,l),
(393,714,l),
(393,195,ls),
(393,99,o),
(347,56,o),
(273,56,cs),
(201,56,o),
(153,104,o),
(153,195,cs),
(153,714,l),
(68,714,l),
(68,192,ls),
(68,64,o),
(145,-12,o),
(270,-12,cs)
);
}
);
width = 539;
},
{
anchors = (
{
name = bottom;
pos = (351,0);
},
{
name = ogonek;
pos = (480,10);
},
{
name = top;
pos = (351,714);
},
{
name = topright;
pos = (697,714);
}
);
layerId = "FEA946D2-303E-4050-8628-E645DE71E218";
shapes = (
{
closed = 1;
nodes = (
(514,-13,o),
(622,77,o),
(622,262,cs),
(622,714,l),
(535,714,l),
(535,270,ls),
(535,124,o),
(461,66,o),
(354,66,cs),
(248,66,o),
(172,124,o),
(172,270,cs),
(172,714,l),
(78,714,l),
(78,263,ls),
(78,75,o),
(193,-13,o),
(355,-13,cs)
);
}
);
width = 700;
},
{
anchors = (
{
name = bottom;
pos = (286,0);
},
{
name = ogonek;
pos = (403,10);
},
{
name = top;
pos = (289,713);
},
{
name = topright;
pos = (555,714);
}
);
layerId = "F74FB5BD-F4A6-4696-AECE-814F0CF1BFBE";
shapes = (
{
closed = 1;
nodes = (
(427,-13,o),
(525,65,o),
(525,207,cs),
(525,714,l),
(350,714,l),
(350,207,ls),
(350,161,o),
(325,140,o),
(290,140,cs),
(252,140,o),
(227,163,o),
(227,207,cs),
(227,714,l),
(33,714,l),
(33,205,ls),
(33,66,o),
(131,-13,o),
(281,-13,cs)
);
}
);
width = 558;
},
{
anchors = (
{
name = bottom;
pos = (357,0);
},
{
name = ogonek;
pos = (504,10);
},
{
name = top;
pos = (354,714);
},
{
name = topright;
pos = (745,714);
}
);
layerId = "3E78BF7E-2ACA-4E8F-B7F7-8733FDFDD1D6";
shapes = (
{
closed = 1;
nodes = (
(555,-13,o),
(656,89,o),
(656,262,cs),
(656,714,l),
(476,714,l),
(476,259,ls),
(476,186,o),
(427,148,o),
(361,148,cs),
(296,148,o),
(247,186,o),
(247,259,cs),
(247,714,l),
(47,714,l),
(47,255,ls),
(47,88,o),
(164,-13,o),
(353,-13,cs)
);
}
);
width = 703;
},
{
anchors = (
{
name = bottom;
pos = (455,0);
},
{
name = ogonek;
pos = (632,10);
},
{
name = top;
pos = (462,714);
},
{
name = topright;
pos = (889,714);
}
);
layerId = "CEA8704A-49A9-4D73-A586-1E9554ACC001";
shapes = (
{
closed = 1;
nodes = (
(704,-14,o),
(846,100,o),
(846,322,cs),
(846,714,l),
(647,714,l),
(647,318,ls),
(647,215,o),
(581,151,o),
(463,151,cs),
(345,151,o),
(271,215,o),
(271,318,cs),
(271,714,l),
(49,714,l),
(49,322,ls),
(49,100,o),
(207,-14,o),
(453,-14,cs)
);
}
);
width = 895;
}
);
unicode = 85;
},
{
glyphname = V;
lastChange = "2024-12-06 10:39:41 +0000";
layers = (
{
layerId = m007;
shapes = (
{
closed = 1;
nodes = (
(463,0,l),
(828,714,l),
(756,714,l),
(405,21,l),
(440,21,l),
(90,714,l),
(12,714,l),
(377,0,l)
);
}
);
width = 840;
},
{
layerId = "7DF63F5B-BA78-420A-94D8-89AFC26E7780";
shapes = (
{
closed = 1;
nodes = (
(492,0,l),
(854,714,l),
(753,714,l),
(416,41,l),
(456,41,l),
(121,714,l),
(10,714,l),
(371,0,l)
);
}
);
width = 864;
},
{
layerId = "CF630257-B204-4765-8982-527F59E4E5D4";
shapes = (
{
closed = 1;
nodes = (
(350,0,l),
(607,714,l),
(547,714,l),
(297,6,l),
(331,6,l),
(86,714,l),
(20,714,l),
(277,0,l)
);
}
);
width = 627;
},
{
layerId = "89792DEA-715D-4C6B-9843-C33DBACDCF53";
shapes = (
{
closed = 1;
nodes = (
(271,0,l),
(451,714,l),
(395,714,l),
(232,49,l),
(245,49,l),
(82,714,l),
(20,714,l),
(201,0,l)
);
}
);
width = 471;
},
{
layerId = "F5B2086A-EC1C-45D9-9613-A3504CEE232E";
shapes = (
{
closed = 1;
nodes = (
(295,0,l),
(473,714,l),
(394,714,l),
(238,52,l),
(256,52,l),
(103,714,l),
(16,714,l),
(195,0,l)
);
}
);
width = 489;
},
{
layerId = "FEA946D2-303E-4050-8628-E645DE71E218";
shapes = (
{
closed = 1;
nodes = (
(392,0,l),
(649,714,l),
(556,714,l),
(322,43,l),
(354,43,l),
(120,714,l),
(18,714,l),
(276,0,l)
);
}
);
width = 667;
},
{
layerId = "F74FB5BD-F4A6-4696-AECE-814F0CF1BFBE";
shapes = (
{
closed = 1;
nodes = (
(389,0,l),
(567,714,l),
(385,714,l),
(259,77,l),
(318,77,l),
(206,714,l),
(6,714,l),
(184,0,l)
);
}
);
width = 573;
},
{
layerId = "3E78BF7E-2ACA-4E8F-B7F7-8733FDFDD1D6";
shapes = (
{
closed = 1;
nodes = (
(477,0,l),
(716,714,l),
(524,714,l),
(356,148,l),
(386,148,l),
(220,714,l),
(10,714,l),
(250,0,l)
);
}
);
width = 727;
},
{
layerId = "CEA8704A-49A9-4D73-A586-1E9554ACC001";
shapes = (
{
closed = 1;
nodes = (
(622,0,l),
(969,714,l),
(747,714,l),
(473,117,l),
(535,117,l),
(262,714,l),
(14,714,l),
(361,0,l)
);
}
);
width = 983;
}
);
unicode = 86;
},
{
glyphname = W;
kernRight = W;
lastChange = "2024-12-06 10:39:41 +0000";
layers = (
{
anchors = (
{
name = bottom;
pos = (579,0);
},
{
name = top;
pos = (590,714);
}
);
layerId = m007;
shapes = (
{
closed = 1;
nodes = (
(356,0,l),
(597,662,l),
(579,662,l),
(819,0,l),
(901,0,l),
(1152,714,l),
(1084,714,l),
(848,30,l),
(878,30,l),
(634,714,l),
(550,714,l),
(304,30,l),
(333,30,l),
(99,714,l),
(26,714,l),
(273,0,l)
);
}
);
width = 1178;
},
{
anchors = (
{
name = bottom;
pos = (590,0);
},
{
name = top;
pos = (600,714);
}
);
layerId = "7DF63F5B-BA78-420A-94D8-89AFC26E7780";
shapes = (
{
closed = 1;
nodes = (
(378,0,l),
(606,640,l),
(582,640,l),
(811,0,l),
(926,0,l),
(1169,714,l),
(1075,714,l),
(857,54,l),
(889,55,l),
(659,714,l),
(542,714,l),
(310,55,l),
(342,55,l),
(125,714,l),
(21,714,l),
(262,0,l)
);
}
);
width = 1190;
},
{
anchors = (
{
name = bottom;
pos = (462,0);
},
{
name = top;
pos = (465,714);
}
);
layerId = "CF630257-B204-4765-8982-527F59E4E5D4";
shapes = (
{
closed = 1;
nodes = (
(293,0,l),
(473,664,l),
(452,664,l),
(633,0,l),
(696,0,l),
(900,714,l),
(842,714,l),
(651,19,l),
(685,18,l),
(496,714,l),
(433,714,l),
(246,18,l),
(279,19,l),
(88,714,l),
(24,714,l),
(228,0,l)
);
}
);
width = 924;
},
{
anchors = (
{
name = bottom;
pos = (352,0);
},
{
name = top;
pos = (355,714);
}
);
layerId = "89792DEA-715D-4C6B-9843-C33DBACDCF53";
shapes = (
{
closed = 1;
nodes = (
(233,0,l),
(365,681,l),
(345,681,l),
(471,0,l),
(539,0,l),
(680,714,l),
(623,714,l),
(499,41,l),
(517,41,l),
(394,714,l),
(320,714,l),
(191,38,l),
(209,38,l),
(85,714,l),
(26,714,l),
(165,0,l)
);
}
);
width = 706;
},
{
anchors = (
{
name = bottom;
pos = (366,0);
},
{
name = top;
pos = (372,714);
}
);
layerId = "F5B2086A-EC1C-45D9-9613-A3504CEE232E";
shapes = (
{
closed = 1;
nodes = (
(259,0,l),
(379,650,l),
(360,651,l),
(476,0,l),
(573,0,l),
(710,714,l),
(632,714,l),
(518,64,l),
(539,64,l),
(423,714,l),
(322,714,l),
(205,63,l),
(222,62,l),
(110,714,l),
(24,714,l),
(161,0,l)
);
}
);
width = 734;
},
{
anchors = (
{
name = bottom;
pos = (470,0);
},
{
name = top;
pos = (472,714);
}
);
layerId = "FEA946D2-303E-4050-8628-E645DE71E218";
shapes = (
{
closed = 1;
nodes = (
(314,0,l),
(478,622,l),
(459,623,l),
(624,0,l),
(722,0,l),
(914,714,l),
(825,714,l),
(659,55,l),
(696,55,l),
(520,714,l),
(426,714,l),
(254,55,l),
(287,55,l),
(118,714,l),
(20,714,l),
(216,0,l)
);
}
);
width = 934;
},
{
anchors = (
{
name = bottom;
pos = (436,0);
},
{
name = top;
pos = (437,714);
}
);
layerId = "F74FB5BD-F4A6-4696-AECE-814F0CF1BFBE";
shapes = (
{
closed = 1;
nodes = (
(367,0,l),
(443,550,l),
(425,550,l),
(505,0,l),
(735,0,l),
(864,714,l),
(676,714,l),
(610,150,l),
(635,151,l),
(545,714,l),
(337,714,l),
(254,144,l),
(279,143,l),
(207,714,l),
(9,714,l),
(137,0,l)
);
}
);
width = 873;
},
{
anchors = (
{
name = bottom;
pos = (499,0);
},
{
name = top;
pos = (498,714);
}
);
layerId = "3E78BF7E-2ACA-4E8F-B7F7-8733FDFDD1D6";
shapes = (
{
closed = 1;
nodes = (
(390,0,l),
(502,547,l),
(472,547,l),
(589,0,l),
(796,0,l),
(969,714,l),
(782,714,l),
(672,160,l),
(705,161,l),
(591,714,l),
(403,714,l),
(295,161,l),
(326,161,l),
(212,714,l),
(10,714,l),
(184,0,l)
);
}
);
width = 979;
},
{
anchors = (
{
name = bottom;
pos = (662,0);
},
{
name = top;
pos = (660,714);
}
);
layerId = "CEA8704A-49A9-4D73-A586-1E9554ACC001";
shapes = (
{
closed = 1;
nodes = (
(487,0,l),
(662,551,l),
(621,551,l),
(802,0,l),
(1057,0,l),
(1267,714,l),
(1067,714,l),
(924,154,l),
(961,155,l),
(782,714,l),
(532,714,l),
(359,155,l),
(396,155,l),
(249,714,l),
(20,714,l),
(232,0,l)
);
}
);
width = 1287;
}
);
unicode = 87;
},
{
glyphname = X;
lastChange = "2024-12-06 10:58:17 +0000";
layers = (
{
layerId = m007;
shapes = (
{
closed = 1;
nodes = (
(102,0,l),
(427,342,l),
(389,338,l),
(709,0,l),
(801,0,l),
(432,390,l),
(436,343,l),
(789,714,l),
(704,714,l),
(400,394,l),
(429,391,l),
(124,714,l),
(33,714,l),
(383,342,l),
(391,393,l),
(16,0,l)
);
}
);
width = 817;
},
{
layerId = "7DF63F5B-BA78-420A-94D8-89AFC26E7780";
shapes = (
{
closed = 1;
nodes = (
(137,0,l),
(453,338,l),
(390,334,l),
(698,0,l),
(828,0,l),
(461,395,l),
(463,339,l),
(818,714,l),
(698,714,l),
(403,400,l),
(456,397,l),
(163,714,l),
(33,714,l),
(381,339,l),
(393,399,l),
(16,0,l)
);
}
);
width = 844;
},
{
layerId = "CF630257-B204-4765-8982-527F59E4E5D4";
shapes = (
{
closed = 1;
nodes = (
(97,0,l),
(338,337,l),
(321,337,l),
(558,0,l),
(633,0,l),
(351,393,l),
(351,350,l),
(615,714,l),
(546,714,l),
(322,405,l),
(340,405,l),
(125,714,l),
(49,714,l),
(305,355,l),
(305,387,l),
(28,0,l)
);
}
);
width = 661;
},
{
layerId = "89792DEA-715D-4C6B-9843-C33DBACDCF53";
shapes = (
{
closed = 1;
nodes = (
(82,0,l),
(248,338,l),
(229,338,l),
(390,0,l),
(455,0,l),
(264,393,l),
(264,358,l),
(447,714,l),
(386,714,l),
(232,410,l),
(251,410,l),
(104,714,l),
(39,714,l),
(213,358,l),
(213,388,l),
(21,0,l)
);
}
);
width = 476;
},
{
layerId = "F5B2086A-EC1C-45D9-9613-A3504CEE232E";
shapes = (
{
closed = 1;
nodes = (
(107,0,l),
(258,322,l),
(237,322,l),
(389,0,l),
(479,0,l),
(288,393,l),
(288,348,l),
(473,714,l),
(388,714,l),
(246,426,l),
(265,426,l),
(124,714,l),
(34,714,l),
(215,352,l),
(215,399,l),
(20,0,l)
);
}
);
width = 499;
},
{
layerId = "FEA946D2-303E-4050-8628-E645DE71E218";
shapes = (
{
closed = 1;
nodes = (
(126,0,l),
(346,324,l),
(317,324,l),
(531,0,l),
(647,0,l),
(369,395,l),
(369,352,l),
(628,714,l),
(523,714,l),
(321,421,l),
(349,421,l),
(158,714,l),
(43,714,l),
(299,349,l),
(299,389,l),
(20,0,l)
);
}
);
width = 667;
},
{
layerId = "F74FB5BD-F4A6-4696-AECE-814F0CF1BFBE";
shapes = (
{
closed = 1;
nodes = (
(205,0,l),
(344,329,l),
(241,329,l),
(378,0,l),
(589,0,l),
(369,459,l),
(381,291,l),
(584,714,l),
(390,714,l),
(267,425,l),
(364,425,l),
(237,714,l),
(26,714,l),
(239,297,l),
(232,463,l),
(11,0,l)
);
}
);
width = 600;
},
{
layerId = "3E78BF7E-2ACA-4E8F-B7F7-8733FDFDD1D6";
shapes = (
{
closed = 1;
nodes = (
(223,0,l),
(443,351,l),
(289,340,l),
(504,0,l),
(732,0,l),
(457,408,l),
(453,333,l),
(710,714,l),
(503,714,l),
(309,398,l),
(450,400,l),
(263,714,l),
(35,714,l),
(286,339,l),
(296,410,l),
(16,0,l)
);
}
);
width = 749;
},
{
layerId = "CEA8704A-49A9-4D73-A586-1E9554ACC001";
shapes = (
{
closed = 1;
nodes = (
(265,0,l),
(546,320,l),
(393,314,l),
(655,0,l),
(934,0,l),
(569,414,l),
(561,324,l),
(921,714,l),
(672,714,l),
(414,424,l),
(558,420,l),
(311,714,l),
(32,714,l),
(373,327,l),
(399,421,l),
(16,0,l)
);
}
);
width = 950;
}
);
unicode = 88;
},
{
glyphname = Y;
kernLeft = Y;
kernRight = Y;
lastChange = "2024-12-10 07:45:49 +0000";
layers = (
{
anchors = (
{
name = bottom;
pos = (401,0);
},
{
name = top;
pos = (401,714);
},
{
name = topleft;
pos = (109,714);
}
);
layerId = m007;
shapes = (
{
closed = 1;
nodes = (
(430,0,l),
(430,276,l),
(782,714,l),
(702,714,l),
(380,309,l),
(419,309,l),
(96,714,l),
(9,714,l),
(361,276,l),
(361,0,l)
);
}
);
width = 792;
},
{
anchors = (
{
name = bottom;
pos = (402,0);
},
{
name = top;
pos = (402,714);
},
{
name = topleft;
pos = (99,714);
}
);
layerId = "7DF63F5B-BA78-420A-94D8-89AFC26E7780";
shapes = (
{
closed = 1;
nodes = (
(452,0,l),
(452,274,l),
(799,714,l),
(685,714,l),
(381,320,l),
(433,320,l),
(124,714,l),
(4,714,l),
(352,274,l),
(352,0,l)
);
}
);
width = 803;
},
{
anchors = (
{
name = bottom;
pos = (321,0);
},
{
name = top;
pos = (321,714);
},
{
name = topleft;
pos = (33,714);
}
);
layerId = "CF630257-B204-4765-8982-527F59E4E5D4";
shapes = (
{
closed = 1;
nodes = (
(353,0,l),
(353,276,l),
(619,714,l),
(553,714,l),
(311,312,l),
(339,312,l),
(95,714,l),
(24,714,l),
(292,276,l),
(292,0,l)
);
}
);
width = 643;
},
{
anchors = (
{
name = bottom;
pos = (230,0);
},
{
name = top;
pos = (230,714);
},
{
name = topleft;
pos = (1,714);
}
);
layerId = "89792DEA-715D-4C6B-9843-C33DBACDCF53";
shapes = (
{
closed = 1;
nodes = (
(259,0,l),
(259,293,l),
(442,714,l),
(383,714,l),
(221,328,l),
(241,328,l),
(81,714,l),
(17,714,l),
(201,291,l),
(201,0,l)
);
}
);
width = 459;
},
{
anchors = (
{
name = bottom;
pos = (240,0);
},
{
name = top;
pos = (240,714);
},
{
name = topleft;
pos = (21,714);
}
);
layerId = "F5B2086A-EC1C-45D9-9613-A3504CEE232E";
shapes = (
{
closed = 1;
nodes = (
(281,0,l),
(281,290,l),
(464,714,l),
(380,714,l),
(228,341,l),
(256,341,l),
(105,714,l),
(14,714,l),
(197,288,l),
(197,0,l)
);
}
);
width = 478;
},
{
anchors = (
{
name = bottom;
pos = (331,0);
},
{
name = top;
pos = (331,714);
},
{
name = topleft;
pos = (30,714);
}
);
layerId = "FEA946D2-303E-4050-8628-E645DE71E218";
shapes = (
{
closed = 1;
nodes = (
(377,0,l),
(377,276,l),
(643,714,l),
(542,714,l),
(317,315,l),
(358,315,l),
(129,714,l),
(18,714,l),
(283,276,l),
(283,0,l)
);
}
);
width = 661;
},
{
anchors = (
{
name = bottom;
pos = (280,0);
},
{
name = top;
pos = (280,714);
},
{
name = topleft;
pos = (-43,714);
}
);
layerId = "F74FB5BD-F4A6-4696-AECE-814F0CF1BFBE";
shapes = (
{
closed = 1;
nodes = (
(377,0,l),
(377,276,l),
(554,714,l),
(365,714,l),
(256,386,l),
(308,386,l),
(211,714,l),
(5,714,l),
(183,275,l),
(183,0,l)
);
}
);
width = 560;
},
{
anchors = (
{
name = bottom;
pos = (352,0);
},
{
name = top;
pos = (352,714);
},
{
name = topleft;
pos = (3,714);
}
);
layerId = "3E78BF7E-2ACA-4E8F-B7F7-8733FDFDD1D6";
shapes = (
{
closed = 1;
nodes = (
(453,0,l),
(453,271,l),
(703,714,l),
(504,714,l),
(325,353,l),
(401,353,l),
(224,714,l),
(4,714,l),
(253,269,l),
(253,0,l)
);
}
);
width = 707;
},
{
anchors = (
{
name = bottom;
pos = (453,0);
},
{
name = top;
pos = (453,714);
},
{
name = topleft;
pos = (105,714);
}
);
layerId = "CEA8704A-49A9-4D73-A586-1E9554ACC001";
shapes = (
{
closed = 1;
nodes = (
(564,0,l),
(564,264,l),
(895,714,l),
(661,714,l),
(408,352,l),
(520,352,l),
(266,714,l),
(10,714,l),
(343,264,l),
(343,0,l)
);
}
);
width = 906;
}
);
unicode = 89;
},
{
glyphname = Z;
kernLeft = Z;
kernRight = Z;
lastChange = "2024-12-06 10:39:41 +0000";
layers = (
{
anchors = (
{
name = bottom;
pos = (396,0);
},
{
name = center;
pos = (396,357);
},
{
name = top;
pos = (401,714);
}
);
layerId = m007;
shapes = (
{
closed = 1;
nodes = (
(739,0,l),
(739,57,l),
(94,57,l),
(108,39,l),
(727,643,l),
(727,714,l),
(63,714,l),
(63,657,l),
(681,657,l),
(667,675,l),
(48,71,l),
(48,0,l)
);
}
);
width = 787;
},
{
anchors = (
{
name = bottom;
pos = (399,0);
},
{
name = center;
pos = (397,357);
},
{
name = top;
pos = (407,714);
}
);
layerId = "7DF63F5B-BA78-420A-94D8-89AFC26E7780";
shapes = (
{
closed = 1;
nodes = (
(748,0,l),
(748,80,l),
(90,80,l),
(119,39,l),
(734,621,l),
(734,714,l),
(58,714,l),
(58,634,l),
(686,634,l),
(658,675,l),
(42,93,l),
(42,0,l)
);
}
);
width = 790;
},
{
anchors = (
{
name = bottom;
pos = (319,0);
},
{
name = center;
pos = (319,357);
},
{
name = top;
pos = (330,714);
}
);
layerId = "CF630257-B204-4765-8982-527F59E4E5D4";
shapes = (
{
closed = 1;
nodes = (
(582,0,l),
(582,53,l),
(108,53,l),
(112,41,l),
(570,651,l),
(570,714,l),
(76,714,l),
(76,661,l),
(516,661,l),
(512,673,l),
(54,63,l),
(54,0,l)
);
}
);
width = 636;
},
{
anchors = (
{
name = bottom;
pos = (227,0);
},
{
name = center;
pos = (227,357);
},
{
name = top;
pos = (234,714);
}
);
layerId = "89792DEA-715D-4C6B-9843-C33DBACDCF53";
shapes = (
{
closed = 1;
nodes = (
(413,0,l),
(413,48,l),
(86,48,l),
(96,35,l),
(401,660,l),
(401,714,l),
(56,714,l),
(56,666,l),
(351,666,l),
(347,679,l),
(42,54,l),
(42,0,l)
);
}
);
width = 455;
},
{
anchors = (
{
name = bottom;
pos = (232,0);
},
{
name = center;
pos = (231,357);
},
{
name = top;
pos = (236,714);
}
);
layerId = "F5B2086A-EC1C-45D9-9613-A3504CEE232E";
shapes = (
{
closed = 1;
nodes = (
(425,0,l),
(425,67,l),
(82,67,l),
(106,37,l),
(413,638,l),
(413,714,l),
(50,714,l),
(50,647,l),
(362,647,l),
(343,677,l),
(36,77,l),
(36,0,l)
);
}
);
width = 461;
},
{
anchors = (
{
name = bottom;
pos = (319,0);
},
{
name = center;
pos = (318,357);
},
{
name = top;
pos = (333,714);
}
);
layerId = "FEA946D2-303E-4050-8628-E645DE71E218";
shapes = (
{
closed = 1;
nodes = (
(591,0,l),
(591,80,l),
(104,80,l),
(122,39,l),
(576,621,l),
(576,714,l),
(70,714,l),
(70,634,l),
(523,634,l),
(504,675,l),
(50,93,l),
(50,0,l)
);
}
);
width = 641;
},
{
anchors = (
{
name = bottom;
pos = (255,0);
},
{
name = center;
pos = (252,357);
},
{
name = top;
pos = (259,714);
}
);
layerId = "F74FB5BD-F4A6-4696-AECE-814F0CF1BFBE";
shapes = (
{
closed = 1;
nodes = (
(478,0,l),
(478,153,l),
(72,153,l),
(159,43,l),
(469,546,l),
(469,714,l),
(31,714,l),
(31,561,l),
(414,561,l),
(326,671,l),
(16,167,l),
(16,0,l)
);
}
);
width = 494;
},
{
anchors = (
{
name = bottom;
pos = (342,0);
},
{
name = center;
pos = (321,357);
},
{
name = top;
pos = (342,714);
}
);
layerId = "3E78BF7E-2ACA-4E8F-B7F7-8733FDFDD1D6";
shapes = (
{
closed = 1;
nodes = (
(615,0,l),
(615,162,l),
(86,162,l),
(166,41,l),
(608,544,l),
(608,714,l),
(48,714,l),
(48,552,l),
(555,552,l),
(474,673,l),
(32,170,l),
(32,0,l)
);
}
);
width = 648;
},
{
anchors = (
{
name = bottom;
pos = (433,0);
},
{
name = center;
pos = (423,357);
},
{
name = top;
pos = (433,714);
}
);
layerId = "CEA8704A-49A9-4D73-A586-1E9554ACC001";
shapes = (
{
closed = 1;
nodes = (
(803,0,l),
(803,167,l),
(98,167,l),
(187,41,l),
(786,537,l),
(786,714,l),
(64,714,l),
(64,547,l),
(733,547,l),
(644,673,l),
(43,177,l),
(43,0,l)
);
}
);
width = 846;
}
);
unicode = 90;
},
{
glyphname = a;
kernLeft = a;
kernRight = a;
lastChange = "2024-12-06 10:39:41 +0000";
layers = (
{
anchors = (
{
name = bottom;
pos = (327,0);
},
{
name = ogonek;
pos = (602,0);
},
{
name = top;
pos = (341,514);
}
);
background = {
shapes = (
{
closed = 1;
nodes = (
(370,-13,o),
(469,37,o),
(519,135,c),
(519,0,l),
(611,0,l),
(611,352,ls),
(611,453,o),
(539,528,o),
(342,528,cs),
(161,528,o),
(67,465,o),
(56,372,c),
(152,372,l),
(163,422,o),
(219,457,o),
(341,457,cs),
(467,457,o),
(516,413,o),
(516,363,cs),
(516,362,ls),
(516,335,o),
(499,319,o),
(461,315,cs),
(215,287,ls),
(124,277,o),
(33,241,o),
(33,139,cs),
(33,45,o),
(108,-13,o),
(246,-13,cs)
);
},
{
closed = 1;
nodes = (
(184,60,o),
(133,88,o),
(133,147,cs),
(133,194,o),
(168,216,o),
(222,223,cs),
(431,250,ls),
(465,254,o),
(492,258,o),
(516,267,c),
(516,243,ls),
(516,153,o),
(419,60,o),
(274,60,cs)
);
}
);
};
layerId = m007;
shapes = (
{
closed = 1;
nodes = (
(386,-13,o),
(490,45,o),
(537,151,c),
(537,0,l),
(602,0,l),
(602,359,ls),
(602,451,o),
(537,528,o),
(343,528,cs),
(169,528,o),
(83,457,o),
(74,375,c),
(142,375,l),
(153,426,o),
(211,475,o),
(342,475,cs),
(487,475,o),
(537,421,o),
(537,365,cs),
(537,364,ls),
(537,335,o),
(518,318,o),
(477,313,cs),
(213,283,ls),
(131,273,o),
(43,238,o),
(43,139,cs),
(43,44,o),
(117,-13,o),
(255,-13,cs)
);
},
{
closed = 1;
nodes = (
(170,43,o),
(113,75,o),
(113,142,cs),
(113,196,o),
(155,221,o),
(214,228,cs),
(448,258,ls),
(485,263,o),
(511,267,o),
(537,275,c),
(537,248,ls),
(537,149,o),
(428,43,o),
(271,43,cs)
);
}
);
width = 661;
},
{
anchors = (
{
name = bottom;
pos = (335,0);
},
{
name = ogonek;
pos = (615,0);
},
{
name = top;
pos = (347,514);
}
);
layerId = "7DF63F5B-BA78-420A-94D8-89AFC26E7780";
shapes = (
{
closed = 1;
nodes = (
(374,-13,o),
(473,37,o),
(523,135,c),
(523,0,l),
(615,0,l),
(615,352,ls),
(615,453,o),
(543,528,o),
(346,528,cs),
(167,528,o),
(75,465,o),
(64,372,c),
(160,372,l),
(171,422,o),
(225,457,o),
(345,457,cs),
(471,457,o),
(520,413,o),
(520,363,cs),
(520,362,ls),
(520,335,o),
(503,319,o),
(465,315,cs),
(219,287,ls),
(129,277,o),
(37,241,o),
(37,139,cs),
(37,45,o),
(112,-13,o),
(250,-13,cs)
);
},
{
closed = 1;
nodes = (
(188,60,o),
(137,88,o),
(137,147,cs),
(137,194,o),
(172,215,o),
(226,222,cs),
(436,249,ls),
(469,253,o),
(496,257,o),
(520,266,c),
(520,243,ls),
(520,153,o),
(423,60,o),
(278,60,cs)
);
}
);
width = 667;
},
{
anchors = (
{
name = bottom;
pos = (264,0);
},
{
name = ogonek;
pos = (457,0);
},
{
name = top;
pos = (268,514);
}
);
guides = (
{
pos = (262,467);
},
{
angle = 9.6197;
pos = (218,235);
}
);
layerId = "CF630257-B204-4765-8982-527F59E4E5D4";
shapes = (
{
closed = 1;
nodes = (
(283,-12,o),
(357,8,o),
(398,106,c),
(398,0,l),
(459,0,l),
(459,355,ls),
(459,457,o),
(394,526,o),
(267,526,cs),
(146,526,o),
(76,458,o),
(69,381,c),
(132,381,l),
(139,432,o),
(184,476,o),
(267,476,cs),
(359,476,o),
(398,420,o),
(398,360,cs),
(398,359,ls),
(398,327,o),
(384,309,o),
(336,301,cs),
(214,281,ls),
(134,268,o),
(50,235,o),
(50,134,cs),
(50,41,o),
(118,-12,o),
(211,-12,cs)
);
},
{
closed = 1;
nodes = (
(159,37,o),
(112,71,o),
(112,138,cs),
(112,197,o),
(158,225,o),
(218,235,cs),
(336,255,ls),
(354,258,o),
(377,262,o),
(398,269,c),
(398,228,ls),
(398,114,o),
(321,37,o),
(224,37,cs)
);
}
);
width = 533;
},
{
anchors = (
{
name = bottom;
pos = (228,0);
},
{
name = ogonek;
pos = (385,0);
},
{
name = top;
pos = (233,514);
}
);
guides = (
{
angle = 180;
pos = (93,385);
},
{
angle = 16.8986;
pos = (234,247);
}
);
layerId = "89792DEA-715D-4C6B-9843-C33DBACDCF53";
shapes = (
{
closed = 1;
nodes = (
(241,-12,o),
(299,19,o),
(328,99,c),
(328,0,l),
(385,0,l),
(385,370,ls),
(385,463,o),
(335,526,o),
(230,526,cs),
(125,526,o),
(67,463,o),
(64,385,c),
(121,385,l),
(125,433,o),
(155,479,o),
(228,479,cs),
(301,479,o),
(328,426,o),
(328,373,cs),
(328,357,ls),
(328,331,o),
(314,317,o),
(280,307,cs),
(172,275,ls),
(104,255,o),
(41,211,o),
(41,128,cs),
(41,35,o),
(103,-12,o),
(177,-12,cs)
);
},
{
closed = 1;
nodes = (
(138,36,o),
(101,69,o),
(101,131,cs),
(101,184,o),
(135,217,o),
(194,235,cs),
(273,259,ls),
(292,265,o),
(311,271,o),
(328,279,c),
(328,220,ls),
(328,92,o),
(257,36,o),
(193,36,cs)
);
}
);
width = 450;
},
{
anchors = (
{
name = bottom;
pos = (233,0);
},
{
name = ogonek;
pos = (399,0);
},
{
name = top;
pos = (232,514);
}
);
guides = (
{
angle = 180;
pos = (95,379);
},
{
angle = 16.294;
pos = (203,230);
}
);
layerId = "F5B2086A-EC1C-45D9-9613-A3504CEE232E";
shapes = (
{
closed = 1;
nodes = (
(235,-12,o),
(291,16,o),
(318,89,c),
(318,0,l),
(399,0,l),
(399,367,ls),
(399,465,o),
(343,526,o),
(234,526,cs),
(132,526,o),
(60,471,o),
(53,379,c),
(136,379,l),
(141,428,o),
(172,463,o),
(233,463,cs),
(292,463,o),
(317,422,o),
(317,378,cs),
(317,364,ls),
(317,339,o),
(303,319,o),
(269,309,cs),
(181,283,ls),
(98,259,o),
(32,217,o),
(32,124,cs),
(32,37,o),
(95,-12,o),
(169,-12,cs)
);
},
{
closed = 1;
nodes = (
(149,53,o),
(115,83,o),
(115,134,cs),
(115,182,o),
(148,214,o),
(203,230,cs),
(268,249,ls),
(285,254,o),
(299,258,o),
(317,266,c),
(317,217,ls),
(317,108,o),
(259,53,o),
(197,53,cs)
);
}
);
width = 457;
},
{
anchors = (
{
name = bottom;
pos = (277,0);
},
{
name = ogonek;
pos = (481,0);
},
{
name = top;
pos = (283,514);
}
);
guides = (
{
angle = 9.4623;
pos = (237,230);
}
);
layerId = "FEA946D2-303E-4050-8628-E645DE71E218";
shapes = (
{
closed = 1;
nodes = (
(289,-13,o),
(355,9,o),
(396,91,c),
(396,0,l),
(482,0,l),
(482,353,ls),
(482,459,o),
(416,527,o),
(280,527,cs),
(156,527,o),
(74,468,o),
(64,378,c),
(155,378,l),
(165,427,o),
(204,454,o),
(280,454,cs),
(356,454,o),
(391,416,o),
(391,365,cs),
(391,364,ls),
(391,339,o),
(383,319,o),
(338,312,cs),
(222,295,ls),
(132,282,o),
(46,242,o),
(46,139,cs),
(46,48,o),
(112,-13,o),
(216,-13,cs)
);
},
{
closed = 1;
nodes = (
(179,60,o),
(139,92,o),
(139,143,cs),
(139,193,o),
(177,220,o),
(237,230,cs),
(339,247,ls),
(357,250,o),
(372,253,o),
(391,260,c),
(391,227,ls),
(391,127,o),
(332,60,o),
(240,60,cs)
);
}
);
width = 550;
},
{
anchors = (
{
name = bottom;
pos = (262,0);
},
{
name = ogonek;
pos = (473,0);
},
{
name = top;
pos = (268,514);
}
);
layerId = "F74FB5BD-F4A6-4696-AECE-814F0CF1BFBE";
shapes = (
{
closed = 1;
nodes = (
(213,-13,o),
(263,12,o),
(294,67,c),
(294,0,l),
(473,0,l),
(473,347,ls),
(473,464,o),
(396,527,o),
(268,527,cs),
(151,527,o),
(54,481,o),
(42,365,c),
(228,365,l),
(230,390,o),
(245,399,o),
(257,399,cs),
(272,399,o),
(283,390,o),
(283,373,cs),
(283,363,ls),
(283,338,o),
(268,322,o),
(239,311,cs),
(184,291,ls),
(99,258,o),
(16,217,o),
(16,118,cs),
(16,35,o),
(76,-13,o),
(148,-13,cs)
);
},
{
closed = 1;
nodes = (
(218,120,o),
(208,134,o),
(208,156,cs),
(208,179,o),
(221,194,o),
(248,211,cs),
(259,219,ls),
(267,224,o),
(273,228,o),
(284,234,c),
(284,205,ls),
(284,171,o),
(273,120,o),
(234,120,cs)
);
}
);
width = 504;
},
{
anchors = (
{
name = bottom;
pos = (288,0);
},
{
name = ogonek;
pos = (521,0);
},
{
name = top;
pos = (299,514);
}
);
layerId = "3E78BF7E-2ACA-4E8F-B7F7-8733FDFDD1D6";
shapes = (
{
closed = 1;
nodes = (
(253,-14,o),
(310,12,o),
(347,66,c),
(347,-1,l),
(523,-1,l),
(523,322,ls),
(523,467,o),
(445,528,o),
(295,528,cs),
(170,528,o),
(68,489,o),
(49,371,c),
(231,371,l),
(236,400,o),
(261,407,o),
(290,407,cs),
(317,407,o),
(339,394,o),
(339,364,cs),
(339,363,ls),
(339,338,o),
(323,323,o),
(295,317,cs),
(224,303,ls),
(132,286,o),
(29,252,o),
(29,129,cs),
(29,43,o),
(87,-14,o),
(181,-14,cs)
);
},
{
closed = 1;
nodes = (
(228,117,o),
(212,129,o),
(212,160,cs),
(212,184,o),
(226,202,o),
(261,213,cs),
(288,223,ls),
(307,229,o),
(330,235,o),
(339,239,c),
(339,230,ls),
(339,185,o),
(311,117,o),
(252,117,cs)
);
}
);
width = 568;
},
{
anchors = (
{
name = bottom;
pos = (370,0);
},
{
name = ogonek;
pos = (679,0);
},
{
name = top;
pos = (375,514);
}
);
layerId = "CEA8704A-49A9-4D73-A586-1E9554ACC001";
shapes = (
{
closed = 1;
nodes = (
(340,-14,o),
(423,10,o),
(477,81,c),
(477,0,l),
(679,0,l),
(679,323,ls),
(679,463,o),
(581,528,o),
(370,528,cs),
(192,528,o),
(69,478,o),
(47,360,c),
(258,360,l),
(267,389,o),
(312,398,o),
(365,398,cs),
(424,398,o),
(466,383,o),
(466,355,cs),
(466,354,ls),
(466,335,o),
(451,325,o),
(424,322,cs),
(251,305,ls),
(129,292,o),
(23,255,o),
(23,141,cs),
(23,48,o),
(99,-14,o),
(237,-14,cs)
);
},
{
closed = 1;
nodes = (
(267,122,o),
(241,138,o),
(241,165,cs),
(241,186,o),
(253,198,o),
(289,203,cs),
(393,216,ls),
(418,219,o),
(444,223,o),
(466,230,c),
(466,222,ls),
(466,170,o),
(412,122,o),
(315,122,cs)
);
}
);
width = 716;
}
);
metricRight = n;
unicode = 97;
},
{
glyphname = ae;
kernLeft = a;
kernRight = e;
lastChange = "2024-12-06 10:39:41 +0000";
layers = (
{
anchors = (
{
name = bottom;
pos = (602,0);
},
{
name = top;
pos = (602,514);
}
);
layerId = m007;
shapes = (
{
closed = 1;
nodes = (
(396,-13,o),
(504,44,o),
(562,144,c),
(606,51,o),
(700,-14,o),
(850,-14,cs),
(1014,-14,o),
(1106,50,o),
(1140,141,c),
(1069,141,l),
(1034,79,o),
(967,40,o),
(853,40,cs),
(700,40,o),
(614,126,o),
(607,240,c),
(1154,240,l),
(1165,440,o),
(1025,528,o),
(853,528,cs),
(730,528,o),
(633,483,o),
(589,411,c),
(566,481,o),
(489,528,o),
(343,528,cs),
(169,528,o),
(83,457,o),
(74,375,c),
(142,375,l),
(153,426,o),
(211,475,o),
(342,475,cs),
(486,475,o),
(537,421,o),
(537,365,cs),
(537,364,ls),
(537,335,o),
(518,318,o),
(477,313,cs),
(213,283,ls),
(131,273,o),
(43,238,o),
(43,139,cs),
(43,44,o),
(117,-13,o),
(255,-13,cs)
);
},
{
closed = 1;
nodes = (
(170,43,o),
(113,75,o),
(113,142,cs),
(113,196,o),
(154,221,o),
(213,228,cs),
(448,258,ls),
(485,263,o),
(511,267,o),
(537,275,c),
(537,248,ls),
(537,149,o),
(428,43,o),
(271,43,cs)
);
},
{
closed = 1;
nodes = (
(622,398,o),
(707,474,o),
(853,474,cs),
(985,474,o),
(1075,408,o),
(1085,292,c),
(608,292,l)
);
}
);
width = 1195;
},
{
anchors = (
{
name = bottom;
pos = (566,0);
},
{
name = top;
pos = (597,514);
}
);
layerId = "7DF63F5B-BA78-420A-94D8-89AFC26E7780";
shapes = (
{
closed = 1;
nodes = (
(383,-13,o),
(495,36,o),
(557,138,c),
(601,45,o),
(693,-14,o),
(844,-14,cs),
(1020,-14,o),
(1112,52,o),
(1143,142,c),
(1043,142,l),
(1013,89,o),
(951,59,o),
(848,59,cs),
(709,59,o),
(631,133,o),
(623,232,c),
(1156,232,l),
(1165,439,o),
(1029,528,o),
(846,528,cs),
(728,528,o),
(634,485,o),
(588,415,c),
(560,482,o),
(481,528,o),
(346,528,cs),
(167,528,o),
(75,465,o),
(64,372,c),
(160,372,l),
(171,422,o),
(225,457,o),
(345,457,cs),
(471,457,o),
(520,413,o),
(520,363,cs),
(520,362,ls),
(520,335,o),
(503,319,o),
(465,315,cs),
(219,287,ls),
(129,276,o),
(37,241,o),
(37,139,cs),
(37,45,o),
(112,-13,o),
(250,-13,cs)
);
},
{
closed = 1;
nodes = (
(188,60,o),
(137,88,o),
(137,147,cs),
(137,194,o),
(172,216,o),
(226,223,cs),
(436,250,ls),
(469,254,o),
(496,258,o),
(520,267,c),
(520,243,ls),
(520,153,o),
(423,60,o),
(278,60,cs)
);
},
{
closed = 1;
nodes = (
(641,390,o),
(716,455,o),
(847,455,cs),
(966,455,o),
(1046,401,o),
(1057,301,c),
(625,301,l)
);
}
);
width = 1191;
},
{
anchors = (
{
name = bottom;
pos = (458,0);
},
{
name = top;
pos = (458,514);
}
);
layerId = "CF630257-B204-4765-8982-527F59E4E5D4";
shapes = (
{
closed = 1;
nodes = (
(297,-12,o),
(389,26,o),
(426,134,c),
(460,40,o),
(538,-12,o),
(639,-12,cs),
(746,-12,o),
(828,41,o),
(855,128,c),
(793,128,l),
(767,65,o),
(715,39,o),
(641,39,cs),
(517,39,o),
(466,137,o),
(462,245,c),
(861,245,l),
(878,457,o),
(756,526,o),
(642,526,cs),
(543,526,o),
(482,477,o),
(446,412,c),
(425,486,o),
(365,526,o),
(267,526,cs),
(146,526,o),
(76,458,o),
(69,381,c),
(131,381,l),
(138,432,o),
(184,476,o),
(267,476,cs),
(359,476,o),
(398,420,o),
(398,360,cs),
(398,359,ls),
(398,328,o),
(384,310,o),
(336,303,cs),
(213,284,ls),
(145,272,o),
(50,242,o),
(50,134,cs),
(50,41,o),
(116,-12,o),
(217,-12,cs)
);
},
{
closed = 1;
nodes = (
(159,37,o),
(112,71,o),
(112,139,cs),
(112,198,o),
(157,227,o),
(218,238,cs),
(338,258,ls),
(357,261,o),
(377,264,o),
(398,275,c),
(398,228,ls),
(398,114,o),
(321,37,o),
(225,37,cs)
);
},
{
closed = 1;
nodes = (
(473,390,o),
(523,475,o),
(640,475,cs),
(749,475,o),
(802,411,o),
(804,292,c),
(464,292,l)
);
}
);
width = 909;
},
{
anchors = (
{
name = bottom;
pos = (374,0);
},
{
name = top;
pos = (374,514);
}
);
layerId = "89792DEA-715D-4C6B-9843-C33DBACDCF53";
shapes = (
{
closed = 1;
nodes = (
(249,-12,o),
(321,23,o),
(355,121,c),
(378,37,o),
(434,-12,o),
(517,-12,cs),
(607,-12,o),
(669,42,o),
(689,128,c),
(629,128,l),
(612,72,o),
(576,35,o),
(519,35,cs),
(421,35,o),
(391,139,o),
(390,244,c),
(697,244,l),
(706,454,o),
(624,526,o),
(519,526,cs),
(447,526,o),
(401,492,o),
(370,435,c),
(349,496,o),
(299,526,o),
(230,526,cs),
(128,526,o),
(69,464,o),
(67,387,c),
(123,387,l),
(128,434,o),
(157,480,o),
(228,480,cs),
(301,480,o),
(328,426,o),
(328,373,cs),
(328,357,ls),
(328,330,o),
(315,316,o),
(281,306,cs),
(172,274,ls),
(104,255,o),
(41,211,o),
(41,128,cs),
(41,35,o),
(103,-12,o),
(179,-12,cs)
);
},
{
closed = 1;
nodes = (
(138,36,o),
(101,69,o),
(101,131,cs),
(101,184,o),
(136,217,o),
(193,235,cs),
(274,258,ls),
(292,263,o),
(312,267,o),
(328,278,c),
(328,221,ls),
(328,93,o),
(257,36,o),
(193,36,cs)
);
},
{
closed = 1;
nodes = (
(397,394,o),
(429,479,o),
(519,479,cs),
(600,479,o),
(639,403,o),
(641,291,c),
(391,291,l)
);
}
);
width = 740;
},
{
anchors = (
{
name = bottom;
pos = (371,0);
},
{
name = top;
pos = (374,514);
}
);
layerId = "F5B2086A-EC1C-45D9-9613-A3504CEE232E";
shapes = (
{
closed = 1;
nodes = (
(249,-12,o),
(315,22,o),
(349,109,c),
(373,33,o),
(436,-12,o),
(514,-12,cs),
(620,-12,o),
(681,47,o),
(699,135,c),
(615,135,l),
(604,87,o),
(571,52,o),
(519,52,cs),
(436,52,o),
(408,140,o),
(405,237,c),
(706,237,l),
(714,453,o),
(633,526,o),
(519,526,cs),
(454,526,o),
(405,498,o),
(373,447,c),
(349,500,o),
(300,526,o),
(234,526,cs),
(131,526,o),
(60,472,o),
(53,381,c),
(136,381,l),
(141,429,o),
(172,463,o),
(233,463,cs),
(292,463,o),
(317,422,o),
(317,378,cs),
(317,364,ls),
(317,339,o),
(304,318,o),
(270,309,cs),
(181,283,ls),
(98,259,o),
(32,217,o),
(32,124,cs),
(32,37,o),
(95,-12,o),
(177,-12,cs)
);
},
{
closed = 1;
nodes = (
(149,53,o),
(115,83,o),
(115,134,cs),
(115,182,o),
(148,213,o),
(204,230,cs),
(269,249,ls),
(285,254,o),
(303,258,o),
(317,268,c),
(317,217,ls),
(317,108,o),
(259,53,o),
(197,53,cs)
);
},
{
closed = 1;
nodes = (
(413,391,o),
(443,462,o),
(519,462,cs),
(588,462,o),
(622,397,o),
(624,298,c),
(407,298,l)
);
}
);
width = 745;
},
{
anchors = (
{
name = bottom;
pos = (458,0);
},
{
name = top;
pos = (458,514);
}
);
layerId = "FEA946D2-303E-4050-8628-E645DE71E218";
shapes = (
{
closed = 1;
nodes = (
(299,-13,o),
(388,21,o),
(428,120,c),
(468,34,o),
(538,-13,o),
(639,-13,cs),
(764,-13,o),
(851,59,o),
(865,137,c),
(773,137,l),
(758,96,o),
(710,61,o),
(640,61,cs),
(528,61,o),
(493,141,o),
(488,235,c),
(868,235,l),
(879,456,o),
(767,527,o),
(640,527,cs),
(568,527,o),
(497,496,o),
(454,421,c),
(427,495,o),
(365,527,o),
(278,527,cs),
(156,527,o),
(73,468,o),
(63,378,c),
(154,378,l),
(163,427,o),
(204,454,o),
(280,454,cs),
(356,454,o),
(391,416,o),
(391,365,cs),
(391,364,ls),
(391,341,o),
(383,319,o),
(340,313,cs),
(232,297,ls),
(148,285,o),
(46,259,o),
(46,139,cs),
(46,48,o),
(113,-13,o),
(218,-13,cs)
);
},
{
closed = 1;
nodes = (
(179,60,o),
(139,91,o),
(139,143,cs),
(139,195,o),
(171,222,o),
(249,235,cs),
(339,249,ls),
(357,252,o),
(373,255,o),
(391,264,c),
(391,227,ls),
(391,130,o),
(332,60,o),
(240,60,cs)
);
},
{
closed = 1;
nodes = (
(500,388,o),
(545,453,o),
(640,453,cs),
(724,453,o),
(773,407,o),
(779,301,c),
(489,301,l)
);
}
);
width = 911;
},
{
anchors = (
{
name = bottom;
pos = (379,0);
},
{
name = top;
pos = (391,514);
}
);
layerId = "F74FB5BD-F4A6-4696-AECE-814F0CF1BFBE";
shapes = (
{
closed = 1;
nodes = (
(223,-13,o),
(290,1,o),
(343,78,c),
(375,32,o),
(428,-13,o),
(524,-13,cs),
(670,-13,o),
(728,55,o),
(750,163,c),
(563,163,l),
(558,132,o),
(552,109,o),
(523,109,cs),
(497,109,o),
(481,140,o),
(479,220,c),
(752,220,l),
(758,445,o),
(668,527,o),
(523,527,cs),
(474,527,o),
(426,514,o),
(396,485,c),
(364,514,o),
(324,527,o),
(268,527,cs),
(151,527,o),
(54,483,o),
(40,369,c),
(228,369,l),
(230,392,o),
(245,399,o),
(257,399,cs),
(272,399,o),
(283,390,o),
(283,373,cs),
(283,363,ls),
(283,338,o),
(268,322,o),
(239,311,cs),
(184,291,ls),
(99,258,o),
(16,217,o),
(16,118,cs),
(16,35,o),
(78,-13,o),
(156,-13,cs)
);
},
{
closed = 1;
nodes = (
(218,120,o),
(208,134,o),
(208,156,cs),
(208,179,o),
(222,196,o),
(248,211,cs),
(259,216,ls),
(268,222,o),
(275,227,o),
(284,233,c),
(284,205,ls),
(284,173,o),
(273,120,o),
(234,120,cs)
);
},
{
closed = 1;
nodes = (
(482,375,o),
(496,406,o),
(522,406,cs),
(547,406,o),
(560,374,o),
(561,310,c),
(480,310,l)
);
}
);
width = 766;
},
{
anchors = (
{
name = bottom;
pos = (457,0);
},
{
name = top;
pos = (457,514);
}
);
layerId = "3E78BF7E-2ACA-4E8F-B7F7-8733FDFDD1D6";
shapes = (
{
closed = 1;
nodes = (
(258,-14,o),
(351,-9,o),
(418,91,c),
(455,36,o),
(518,-14,o),
(642,-14,cs),
(791,-14,o),
(884,66,o),
(898,149,c),
(713,149,l),
(700,123,o),
(673,112,o),
(644,112,cs),
(587,112,o),
(555,148,o),
(546,213,c),
(898,213,l),
(900,441,o),
(790,528,o),
(638,528,cs),
(556,528,o),
(496,502,o),
(457,461,c),
(433,499,o),
(377,528,o),
(295,528,cs),
(170,528,o),
(68,489,o),
(49,371,c),
(231,371,l),
(237,400,o),
(261,407,o),
(290,407,cs),
(317,407,o),
(339,394,o),
(339,364,cs),
(339,363,ls),
(339,338,o),
(323,323,o),
(295,317,cs),
(226,303,ls),
(132,286,o),
(29,251,o),
(29,129,cs),
(29,43,o),
(93,-14,o),
(199,-14,cs)
);
},
{
closed = 1;
nodes = (
(231,117,o),
(212,129,o),
(212,160,cs),
(212,184,o),
(227,203,o),
(262,213,cs),
(302,225,ls),
(318,230,o),
(329,234,o),
(339,240,c),
(339,230,ls),
(339,185,o),
(312,117,o),
(253,117,cs)
);
},
{
closed = 1;
nodes = (
(559,365,o),
(586,402,o),
(638,402,cs),
(676,402,o),
(713,383,o),
(726,314,c),
(549,314,l)
);
}
);
width = 923;
},
{
anchors = (
{
name = bottom;
pos = (592,0);
},
{
name = top;
pos = (590,514);
}
);
layerId = "CEA8704A-49A9-4D73-A586-1E9554ACC001";
shapes = (
{
closed = 1;
nodes = (
(339,-14,o),
(461,2,o),
(548,105,c),
(600,39,o),
(675,-14,o),
(833,-14,cs),
(1055,-14,o),
(1146,64,o),
(1168,155,c),
(948,155,l),
(925,132,o),
(896,122,o),
(834,122,cs),
(751,122,o),
(708,161,o),
(692,214,c),
(1174,214,l),
(1175,430,o),
(1054,528,o),
(832,528,cs),
(726,528,o),
(650,505,o),
(595,457,c),
(550,503,o),
(482,528,o),
(370,528,cs),
(192,528,o),
(69,478,o),
(47,360,c),
(258,360,l),
(267,389,o),
(310,398,o),
(364,398,cs),
(423,398,o),
(466,383,o),
(466,355,cs),
(466,354,ls),
(466,335,o),
(451,325,o),
(424,322,cs),
(251,305,ls),
(129,293,o),
(23,255,o),
(23,141,cs),
(23,48,o),
(99,-14,o),
(237,-14,cs)
);
},
{
closed = 1;
nodes = (
(267,122,o),
(241,138,o),
(241,165,cs),
(241,186,o),
(254,199,o),
(289,203,cs),
(394,216,ls),
(419,219,o),
(444,223,o),
(466,231,c),
(466,222,ls),
(466,170,o),
(412,122,o),
(315,122,cs)
);
},
{
closed = 1;
nodes = (
(717,358,o),
(757,392,o),
(830,392,cs),
(898,392,o),
(945,366,o),
(962,314,c),
(698,314,l)
);
}
);
width = 1199;
}
);
metricLeft = a;
metricRight = e;
unicode = 230;
},
{
glyphname = b;
kernLeft = l;
kernRight = o;
lastChange = "2024-12-06 10:39:41 +0000";
layers = (
{
layerId = m007;
shapes = (
{
closed = 1;
nodes = (
(565,-14,o),
(695,90,o),
(695,258,cs),
(695,426,o),
(565,528,o),
(396,528,cs),
(294,528,o),
(186,487,o),
(132,381,c),
(132,714,l),
(66,714,l),
(66,0,l),
(132,0,l),
(132,133,l),
(186,28,o),
(294,-14,o),
(396,-14,cs)
);
},
{
closed = 1;
nodes = (
(243,39,o),
(131,131,o),
(131,258,cs),
(131,386,o),
(243,475,o),
(387,475,cs),
(530,475,o),
(624,386,o),
(624,258,cs),
(624,131,o),
(530,39,o),
(387,39,cs)
);
}
);
width = 735;
},
{
layerId = "7DF63F5B-BA78-420A-94D8-89AFC26E7780";
shapes = (
{
closed = 1;
nodes = (
(573,-14,o),
(704,87,o),
(704,258,cs),
(704,429,o),
(573,528,o),
(410,528,cs),
(305,528,o),
(206,489,o),
(154,400,c),
(154,714,l),
(59,714,l),
(59,0,l),
(154,0,l),
(154,114,l),
(206,26,o),
(305,-14,o),
(410,-14,cs)
);
},
{
closed = 1;
nodes = (
(252,60,o),
(153,143,o),
(153,258,cs),
(153,373,o),
(252,454,o),
(386,454,cs),
(519,454,o),
(604,373,o),
(604,258,cs),
(604,143,o),
(519,60,o),
(386,60,cs)
);
}
);
width = 739;
},
{
layerId = "CF630257-B204-4765-8982-527F59E4E5D4";
shapes = (
{
closed = 1;
nodes = (
(449,-12,o),
(541,88,o),
(541,259,cs),
(541,429,o),
(449,526,o),
(317,526,cs),
(247,526,o),
(174,491,o),
(139,418,c),
(139,714,l),
(78,714,l),
(78,0,l),
(139,0,l),
(139,96,l),
(174,23,o),
(247,-12,o),
(317,-12,cs)
);
},
{
closed = 1;
nodes = (
(186,39,o),
(134,141,o),
(134,259,cs),
(134,376,o),
(186,475,o),
(312,475,cs),
(422,475,o),
(480,376,o),
(480,259,cs),
(480,141,o),
(422,39,o),
(312,39,cs)
);
}
);
width = 587;
},
{
layerId = "89792DEA-715D-4C6B-9843-C33DBACDCF53";
shapes = (
{
closed = 1;
nodes = (
(363,-12,o),
(437,75,o),
(437,259,cs),
(437,443,o),
(363,526,o),
(263,526,cs),
(202,526,o),
(152,491,o),
(126,427,c),
(126,714,l),
(70,714,l),
(70,0,l),
(126,0,l),
(126,90,l),
(152,27,o),
(202,-12,o),
(263,-12,cs)
);
},
{
closed = 1;
nodes = (
(170,35,o),
(121,110,o),
(121,259,cs),
(121,408,o),
(170,479,o),
(252,479,cs),
(329,479,o),
(377,408,o),
(377,259,cs),
(377,110,o),
(329,35,o),
(252,35,cs)
);
}
);
width = 479;
},
{
layerId = "F5B2086A-EC1C-45D9-9613-A3504CEE232E";
shapes = (
{
closed = 1;
nodes = (
(375,-12,o),
(448,73,o),
(448,259,cs),
(448,445,o),
(375,526,o),
(279,526,cs),
(219,526,o),
(172,495,o),
(146,437,c),
(146,714,l),
(64,714,l),
(64,0,l),
(146,0,l),
(146,81,l),
(172,21,o),
(219,-12,o),
(279,-12,cs)
);
},
{
closed = 1;
nodes = (
(185,52,o),
(140,118,o),
(140,259,cs),
(140,399,o),
(185,462,o),
(252,462,cs),
(319,462,o),
(364,400,o),
(364,259,cs),
(364,118,o),
(319,52,o),
(252,52,cs)
);
}
);
width = 486;
},
{
layerId = "FEA946D2-303E-4050-8628-E645DE71E218";
shapes = (
{
closed = 1;
nodes = (
(466,-13,o),
(559,96,o),
(559,259,cs),
(559,420,o),
(466,527,o),
(337,527,cs),
(263,527,o),
(200,497,o),
(163,434,c),
(163,714,l),
(72,714,l),
(72,0,l),
(163,0,l),
(163,82,l),
(200,19,o),
(263,-13,o),
(337,-13,cs)
);
},
{
closed = 1;
nodes = (
(216,62,o),
(158,144,o),
(158,258,cs),
(158,371,o),
(216,452,o),
(312,452,cs),
(408,452,o),
(465,373,o),
(465,259,cs),
(465,144,o),
(408,62,o),
(312,62,cs)
);
}
);
width = 601;
},
{
layerId = "F74FB5BD-F4A6-4696-AECE-814F0CF1BFBE";
shapes = (
{
closed = 1;
nodes = (
(419,-13,o),
(490,52,o),
(490,257,cs),
(490,461,o),
(419,527,o),
(341,527,cs),
(292,527,o),
(248,510,o),
(221,463,c),
(221,714,l),
(32,714,l),
(32,0,l),
(221,0,l),
(221,52,l),
(248,3,o),
(292,-13,o),
(341,-13,cs)
);
},
{
closed = 1;
nodes = (
(223,131,o),
(210,164,o),
(210,257,cs),
(210,351,o),
(223,383,o),
(253,383,cs),
(283,383,o),
(296,351,o),
(296,257,cs),
(296,164,o),
(283,131,o),
(253,131,cs)
);
}
);
width = 504;
},
{
layerId = "3E78BF7E-2ACA-4E8F-B7F7-8733FDFDD1D6";
shapes = (
{
closed = 1;
nodes = (
(498,-14,o),
(597,68,o),
(597,257,cs),
(597,446,o),
(498,528,o),
(398,528,cs),
(326,528,o),
(271,501,o),
(239,460,c),
(239,714,l),
(50,714,l),
(50,0,l),
(239,0,l),
(239,54,l),
(271,13,o),
(326,-14,o),
(398,-14,cs)
);
},
{
closed = 1;
nodes = (
(268,125,o),
(236,173,o),
(236,257,cs),
(236,341,o),
(268,389,o),
(322,389,cs),
(376,389,o),
(407,341,o),
(407,257,cs),
(407,173,o),
(376,125,o),
(322,125,cs)
);
}
);
width = 622;
},
{
layerId = "CEA8704A-49A9-4D73-A586-1E9554ACC001";
shapes = (
{
closed = 1;
nodes = (
(621,-14,o),
(754,73,o),
(754,258,cs),
(754,443,o),
(621,528,o),
(480,528,cs),
(370,528,o),
(297,493,o),
(256,452,c),
(256,714,l),
(43,714,l),
(43,0,l),
(256,0,l),
(256,62,l),
(297,20,o),
(370,-14,o),
(480,-14,cs)
);
},
{
closed = 1;
nodes = (
(300,133,o),
(254,192,o),
(254,257,cs),
(254,322,o),
(300,381,o),
(395,381,cs),
(489,381,o),
(537,322,o),
(537,257,cs),
(537,192,o),
(489,133,o),
(395,133,cs)
);
}
);
width = 779;
}
);
metricLeft = l;
metricRight = o;
unicode = 98;
},
{
glyphname = c;
kernLeft = o;
kernRight = c;
lastChange = "2024-12-06 10:39:41 +0000";
layers = (
{
anchors = (
{
name = bottom;
pos = (356,0);
},
{
name = top;
pos = (356,514);
}
);
layerId = m007;
shapes = (
{
closed = 1;
nodes = (
(512,-14,o),
(621,57,o),
(648,158,c),
(577,158,l),
(545,94,o),
(482,40,o),
(357,40,cs),
(196,40,o),
(110,134,o),
(110,258,cs),
(110,383,o),
(196,474,o),
(357,474,cs),
(482,474,o),
(552,415,o),
(577,356,c),
(648,356,l),
(628,451,o),
(512,528,o),
(356,528,cs),
(168,528,o),
(40,425,o),
(40,258,cs),
(40,91,o),
(168,-14,o),
(356,-14,cs)
);
}
);
width = 688;
},
{
anchors = (
{
name = bottom;
pos = (359,0);
},
{
name = top;
pos = (359,514);
}
);
layerId = "7DF63F5B-BA78-420A-94D8-89AFC26E7780";
shapes = (
{
closed = 1;
nodes = (
(525,-14,o),
(634,59,o),
(660,163,c),
(560,163,l),
(529,106,o),
(471,60,o),
(359,60,cs),
(211,60,o),
(134,144,o),
(134,258,cs),
(134,371,o),
(211,454,o),
(359,454,cs),
(471,454,o),
(535,405,o),
(560,351,c),
(660,351,l),
(640,453,o),
(525,528,o),
(359,528,cs),
(162,528,o),
(35,423,o),
(35,258,cs),
(35,92,o),
(162,-14,o),
(359,-14,cs)
);
}
);
width = 695;
},
{
anchors = (
{
name = bottom;
pos = (283,0);
},
{
name = top;
pos = (283,514);
}
);
guides = (
{
angle = 180;
pos = (437,351);
},
{
pos = (437,144);
}
);
layerId = "CF630257-B204-4765-8982-527F59E4E5D4";
shapes = (
{
closed = 1;
nodes = (
(394,-12,o),
(474,49,o),
(497,149,c),
(435,149,l),
(412,73,o),
(361,39,o),
(284,39,cs),
(159,39,o),
(107,146,o),
(107,258,cs),
(107,369,o),
(159,475,o),
(284,475,cs),
(359,475,o),
(413,436,o),
(435,360,c),
(497,360,l),
(482,461,o),
(394,526,o),
(283,526,cs),
(138,526,o),
(46,409,o),
(46,257,cs),
(46,104,o),
(138,-12,o),
(283,-12,cs)
);
}
);
width = 543;
},
{
anchors = (
{
name = bottom;
pos = (229,0);
},
{
name = top;
pos = (229,514);
}
);
layerId = "89792DEA-715D-4C6B-9843-C33DBACDCF53";
shapes = (
{
closed = 1;
nodes = (
(320,-12,o),
(379,53,o),
(395,150,c),
(338,150,l),
(324,79,o),
(282,35,o),
(229,35,cs),
(130,35,o),
(101,140,o),
(101,257,cs),
(101,375,o),
(130,479,o),
(229,479,cs),
(297,479,o),
(328,412,o),
(336,362,c),
(394,362,l),
(384,454,o),
(325,526,o),
(229,526,cs),
(108,526,o),
(42,426,o),
(42,257,cs),
(42,88,o),
(108,-12,o),
(229,-12,cs)
);
}
);
width = 437;
},
{
anchors = (
{
name = bottom;
pos = (233,0);
},
{
name = top;
pos = (233,514);
}
);
layerId = "F5B2086A-EC1C-45D9-9613-A3504CEE232E";
shapes = (
{
closed = 1;
nodes = (
(335,-12,o),
(395,55,o),
(411,155,c),
(327,155,l),
(316,94,o),
(281,52,o),
(233,52,cs),
(150,52,o),
(121,141,o),
(121,257,cs),
(121,373,o),
(150,462,o),
(233,462,cs),
(293,462,o),
(320,403,o),
(326,356,c),
(410,356,l),
(401,454,o),
(340,526,o),
(233,526,cs),
(107,526,o),
(38,427,o),
(38,257,cs),
(38,87,o),
(107,-12,o),
(233,-12,cs)
);
}
);
width = 449;
},
{
anchors = (
{
name = bottom;
pos = (290,0);
},
{
name = top;
pos = (290,514);
}
);
layerId = "FEA946D2-303E-4050-8628-E645DE71E218";
shapes = (
{
closed = 1;
nodes = (
(412,-13,o),
(491,55,o),
(510,153,c),
(417,153,l),
(398,92,o),
(356,62,o),
(289,62,cs),
(183,62,o),
(135,150,o),
(135,258,cs),
(135,365,o),
(183,452,o),
(289,452,cs),
(355,452,o),
(404,418,o),
(418,356,c),
(511,356,l),
(495,463,o),
(409,527,o),
(290,527,cs),
(139,527,o),
(42,410,o),
(42,257,cs),
(42,103,o),
(139,-13,o),
(289,-13,cs)
);
}
);
width = 553;
},
{
anchors = (
{
name = bottom;
pos = (248,0);
},
{
name = top;
pos = (248,514);
}
);
layerId = "F74FB5BD-F4A6-4696-AECE-814F0CF1BFBE";
shapes = (
{
closed = 1;
nodes = (
(395,-13,o),
(460,65,o),
(474,186,c),
(286,186,l),
(283,151,o),
(276,123,o),
(248,123,cs),
(219,123,o),
(207,153,o),
(207,257,cs),
(207,361,o),
(219,391,o),
(248,391,cs),
(274,391,o),
(284,367,o),
(287,330,c),
(475,330,l),
(462,453,o),
(391,527,o),
(248,527,cs),
(102,527,o),
(14,430,o),
(14,257,cs),
(14,84,o),
(102,-13,o),
(248,-13,cs)
);
}
);
width = 489;
},
{
anchors = (
{
name = bottom;
pos = (293,0);
},
{
name = top;
pos = (293,514);
}
);
layerId = "3E78BF7E-2ACA-4E8F-B7F7-8733FDFDD1D6";
shapes = (
{
closed = 1;
nodes = (
(455,-14,o),
(537,67,o),
(549,175,c),
(361,175,l),
(352,138,o),
(326,121,o),
(292,121,cs),
(247,121,o),
(214,163,o),
(214,258,cs),
(214,353,o),
(247,393,o),
(292,393,cs),
(325,393,o),
(353,374,o),
(359,336,c),
(547,336,l),
(532,458,o),
(442,528,o),
(293,528,cs),
(127,528,o),
(25,414,o),
(25,257,cs),
(25,99,o),
(127,-14,o),
(293,-14,cs)
);
}
);
width = 574;
},
{
anchors = (
{
name = bottom;
pos = (382,0);
},
{
name = top;
pos = (382,514);
}
);
layerId = "CEA8704A-49A9-4D73-A586-1E9554ACC001";
shapes = (
{
closed = 1;
nodes = (
(589,-14,o),
(706,66,o),
(723,187,c),
(503,187,l),
(482,158,o),
(440,133,o),
(381,133,cs),
(285,133,o),
(242,187,o),
(242,257,cs),
(242,328,o),
(285,381,o),
(381,381,cs),
(440,381,o),
(484,364,o),
(503,326,c),
(723,326,l),
(703,459,o),
(590,528,o),
(382,528,cs),
(152,528,o),
(25,416,o),
(25,257,cs),
(25,98,o),
(152,-14,o),
(382,-14,cs)
);
}
);
width = 748;
}
);
metricLeft = o;
metricRight = o;
unicode = 99;
},
{
glyphname = d;
kernLeft = o;
kernRight = l;
lastChange = "2024-12-06 10:39:41 +0000";
layers = (
{
anchors = (
{
name = bottom;
pos = (206,0);
},
{
name = center;
pos = (511,604);
},
{
name = top;
pos = (206,714);
},
{
name = topright;
pos = (788,714);
}
);
layerId = m007;
shapes = (
{
closed = 1;
nodes = (
(441,-14,o),
(549,28,o),
(603,133,c),
(603,0,l),
(668,0,l),
(668,714,l),
(603,714,l),
(603,381,l),
(549,487,o),
(441,528,o),
(339,528,cs),
(169,528,o),
(40,426,o),
(40,258,cs),
(40,90,o),
(169,-14,o),
(339,-14,cs)
);
},
{
closed = 1;
nodes = (
(204,39,o),
(110,131,o),
(110,258,cs),
(110,386,o),
(204,475,o),
(348,475,cs),
(492,475,o),
(604,386,o),
(604,258,cs),
(604,131,o),
(492,39,o),
(348,39,cs)
);
}
);
width = 734;
},
{
anchors = (
{
name = bottom;
pos = (203,0);
},
{
name = center;
pos = (512,612);
},
{
name = top;
pos = (203,714);
},
{
name = topright;
pos = (802,714);
}
);
background = {
shapes = (
{
closed = 1;
nodes = (
(436,-14,o),
(535,24,o),
(588,110,c),
(588,0,l),
(683,0,l),
(683,714,l),
(588,714,l),
(588,404,l),
(535,490,o),
(436,528,o),
(331,528,cs),
(168,528,o),
(39,429,o),
(39,258,cs),
(39,87,o),
(168,-14,o),
(331,-14,cs)
);
},
{
closed = 1;
nodes = (
(222,59,o),
(138,143,o),
(138,258,cs),
(138,373,o),
(222,455,o),
(357,455,cs),
(491,455,o),
(589,373,o),
(589,258,cs),
(589,143,o),
(491,59,o),
(357,59,cs)
);
}
);
};
layerId = "7DF63F5B-BA78-420A-94D8-89AFC26E7780";
shapes = (
{
closed = 1;
nodes = (
(433,-14,o),
(532,26,o),
(584,114,c),
(584,0,l),
(679,0,l),
(679,714,l),
(584,714,l),
(584,400,l),
(532,489,o),
(433,528,o),
(328,528,cs),
(165,528,o),
(35,429,o),
(35,258,cs),
(35,87,o),
(165,-14,o),
(328,-14,cs)
);
},
{
closed = 1;
nodes = (
(219,60,o),
(135,143,o),
(135,258,cs),
(135,373,o),
(219,454,o),
(353,454,cs),
(486,454,o),
(585,373,o),
(585,258,cs),
(585,143,o),
(486,60,o),
(353,60,cs)
);
}
);
width = 738;
},
{
anchors = (
{
name = bottom;
pos = (247,0);
},
{
name = center;
pos = (407,620);
},
{
name = top;
pos = (247,714);
},
{
name = topright;
pos = (627,714);
}
);
layerId = "CF630257-B204-4765-8982-527F59E4E5D4";
shapes = (
{
closed = 1;
nodes = (
(340,-12,o),
(413,23,o),
(448,95,c),
(448,0,l),
(509,0,l),
(509,714,l),
(448,714,l),
(448,418,l),
(413,491,o),
(340,526,o),
(269,526,cs),
(138,526,o),
(46,429,o),
(46,259,cs),
(46,88,o),
(138,-12,o),
(269,-12,cs)
);
},
{
closed = 1;
nodes = (
(164,39,o),
(107,141,o),
(107,259,cs),
(107,376,o),
(164,475,o),
(274,475,cs),
(401,475,o),
(453,376,o),
(453,259,cs),
(453,141,o),
(401,39,o),
(274,39,cs)
);
}
);
width = 587;
},
{
anchors = (
{
name = bottom;
pos = (206,0);
},
{
name = center;
pos = (329,619);
},
{
name = top;
pos = (221,714);
},
{
name = topright;
pos = (482,714);
}
);
layerId = "89792DEA-715D-4C6B-9843-C33DBACDCF53";
shapes = (
{
closed = 1;
nodes = (
(276,-12,o),
(326,27,o),
(352,90,c),
(352,0,l),
(408,0,l),
(408,714,l),
(352,714,l),
(352,427,l),
(326,491,o),
(276,526,o),
(215,526,cs),
(115,526,o),
(42,443,o),
(42,259,cs),
(42,75,o),
(115,-12,o),
(215,-12,cs)
);
},
{
closed = 1;
nodes = (
(148,35,o),
(101,110,o),
(101,259,cs),
(101,408,o),
(148,479,o),
(226,479,cs),
(308,479,o),
(357,408,o),
(357,259,cs),
(357,110,o),
(308,35,o),
(226,35,cs)
);
}
);
width = 478;
},
{
anchors = (
{
name = bottom;
pos = (203,0);
},
{
name = center;
pos = (332,615);
},
{
name = top;
pos = (215,714);
},
{
name = topright;
pos = (492,714);
}
);
layerId = "F5B2086A-EC1C-45D9-9613-A3504CEE232E";
shapes = (
{
closed = 1;
nodes = (
(266,-12,o),
(313,21,o),
(340,81,c),
(340,0,l),
(421,0,l),
(421,714,l),
(340,714,l),
(340,437,l),
(313,495,o),
(266,526,o),
(206,526,cs),
(110,526,o),
(38,445,o),
(38,259,cs),
(38,73,o),
(110,-12,o),
(206,-12,cs)
);
},
{
closed = 1;
nodes = (
(166,52,o),
(121,118,o),
(121,259,cs),
(121,400,o),
(166,462,o),
(233,462,cs),
(301,462,o),
(346,399,o),
(346,259,cs),
(346,118,o),
(301,52,o),
(233,52,cs)
);
}
);
width = 485;
},
{
anchors = (
{
name = bottom;
pos = (262,0);
},
{
name = center;
pos = (420,614);
},
{
name = top;
pos = (262,714);
},
{
name = topright;
pos = (643,714);
}
);
layerId = "FEA946D2-303E-4050-8628-E645DE71E218";
shapes = (
{
closed = 1;
nodes = (
(337,-13,o),
(400,19,o),
(437,82,c),
(437,0,l),
(528,0,l),
(528,714,l),
(437,714,l),
(437,434,l),
(400,497,o),
(337,527,o),
(263,527,cs),
(135,527,o),
(42,420,o),
(42,259,cs),
(42,96,o),
(135,-13,o),
(263,-13,cs)
);
},
{
closed = 1;
nodes = (
(192,62,o),
(136,144,o),
(136,259,cs),
(136,373,o),
(192,452,o),
(288,452,cs),
(384,452,o),
(442,371,o),
(442,258,cs),
(442,144,o),
(384,62,o),
(288,62,cs)
);
}
);
width = 600;
},
{
anchors = (
{
name = bottom;
pos = (173,0);
},
{
name = center;
pos = (335,605);
},
{
name = top;
pos = (172,714);
},
{
name = topright;
pos = (533,714);
}
);
layerId = "F74FB5BD-F4A6-4696-AECE-814F0CF1BFBE";
shapes = (
{
closed = 1;
nodes = (
(211,-13,o),
(256,3,o),
(282,52,c),
(282,0,l),
(472,0,l),
(472,714,l),
(282,714,l),
(282,463,l),
(256,510,o),
(211,527,o),
(163,527,cs),
(85,527,o),
(14,461,o),
(14,257,cs),
(14,52,o),
(85,-13,o),
(163,-13,cs)
);
},
{
closed = 1;
nodes = (
(220,131,o),
(208,164,o),
(208,257,cs),
(208,351,o),
(220,383,o),
(251,383,cs),
(281,383,o),
(293,351,o),
(293,257,cs),
(293,164,o),
(281,131,o),
(251,131,cs)
);
}
);
width = 504;
},
{
anchors = (
{
name = bottom;
pos = (223,0);
},
{
name = center;
pos = (419,605);
},
{
name = top;
pos = (223,714);
},
{
name = topright;
pos = (693,714);
}
);
layerId = "3E78BF7E-2ACA-4E8F-B7F7-8733FDFDD1D6";
shapes = (
{
closed = 1;
nodes = (
(296,-14,o),
(351,13,o),
(383,54,c),
(383,0,l),
(572,0,l),
(572,714,l),
(383,714,l),
(383,460,l),
(351,501,o),
(296,528,o),
(224,528,cs),
(124,528,o),
(25,446,o),
(25,257,cs),
(25,68,o),
(124,-14,o),
(224,-14,cs)
);
},
{
closed = 1;
nodes = (
(246,125,o),
(215,173,o),
(215,257,cs),
(215,341,o),
(246,389,o),
(300,389,cs),
(354,389,o),
(386,341,o),
(386,257,cs),
(386,173,o),
(354,125,o),
(300,125,cs)
);
}
);
width = 622;
},
{
anchors = (
{
name = bottom;
pos = (203,0);
},
{
name = center;
pos = (524,613);
},
{
name = top;
pos = (203,714);
},
{
name = topright;
pos = (874,714);
}
);
layerId = "CEA8704A-49A9-4D73-A586-1E9554ACC001";
shapes = (
{
closed = 1;
nodes = (
(409,-14,o),
(481,20,o),
(522,62,c),
(522,0,l),
(735,0,l),
(735,714,l),
(522,714,l),
(522,452,l),
(481,493,o),
(409,528,o),
(298,528,cs),
(157,528,o),
(25,443,o),
(25,258,cs),
(25,73,o),
(157,-14,o),
(298,-14,cs)
);
},
{
closed = 1;
nodes = (
(289,133,o),
(242,192,o),
(242,257,cs),
(242,322,o),
(289,381,o),
(384,381,cs),
(478,381,o),
(524,322,o),
(524,257,cs),
(524,192,o),
(478,133,o),
(384,133,cs)
);
}
);
width = 779;
}
);
metricLeft = o;
metricRight = l;
unicode = 100;
},
{
glyphname = eth;
kernLeft = o;
kernRight = l;
lastChange = "2024-12-06 10:39:41 +0000";
layers = (
{
layerId = m007;
shapes = (
{
closed = 1;
nodes = (
(544,-15,o),
(670,97,o),
(670,279,cs),
(670,426,o),
(579,582,o),
(397,714,c),
(310,714,l),
(449,609,o),
(523,533,o),
(570,429,c),
(516,495,o),
(432,526,o),
(345,526,cs),
(166,526,o),
(40,423,o),
(40,258,cs),
(40,91,o),
(167,-15,o),
(352,-15,cs)
);
},
{
closed = 1;
nodes = (
(199,39,o),
(110,126,o),
(110,259,cs),
(110,388,o),
(199,473,o),
(352,473,cs),
(512,473,o),
(599,370,o),
(599,258,cs),
(599,133,o),
(512,39,o),
(352,39,cs)
);
},
{
closed = 1;
nodes = (
(581,653,l),
(565,699,l),
(279,605,l),
(295,559,l)
);
}
);
width = 721;
},
{
layerId = "7DF63F5B-BA78-420A-94D8-89AFC26E7780";
shapes = (
{
closed = 1;
nodes = (
(556,-15,o),
(681,97,o),
(681,282,cs),
(681,431,o),
(593,585,o),
(412,714,c),
(294,714,l),
(426,616,o),
(509,538,o),
(558,439,c),
(506,497,o),
(428,525,o),
(345,525,cs),
(161,525,o),
(35,421,o),
(35,257,cs),
(35,93,o),
(162,-15,o),
(356,-15,cs)
);
},
{
closed = 1;
nodes = (
(214,59,o),
(134,140,o),
(134,258,cs),
(134,373,o),
(214,452,o),
(356,452,cs),
(503,452,o),
(581,360,o),
(581,257,cs),
(581,144,o),
(503,59,o),
(356,59,cs)
);
},
{
closed = 1;
nodes = (
(593,650,l),
(575,702,l),
(273,607,l),
(291,554,l)
);
}
);
width = 727;
},
{
guides = (
{
pos = (313,715);
}
);
layerId = "CF630257-B204-4765-8982-527F59E4E5D4";
shapes = (
{
closed = 1;
nodes = (
(432,-12,o),
(521,114,o),
(521,298,cs),
(521,426,o),
(498,572,o),
(336,714,c),
(262,714,l),
(397,601,o),
(439,520,o),
(463,399,c),
(422,495,o),
(351,526,o),
(273,526,cs),
(138,526,o),
(46,424,o),
(46,261,cs),
(46,98,o),
(139,-12,o),
(276,-12,cs)
);
},
{
closed = 1;
nodes = (
(162,36,o),
(107,148,o),
(107,262,cs),
(107,376,o),
(162,478,o),
(276,478,cs),
(406,478,o),
(458,376,o),
(458,261,cs),
(458,146,o),
(406,36,o),
(276,36,cs)
);
},
{
closed = 1;
nodes = (
(493,651,l),
(478,692,l),
(212,605,l),
(225,564,l)
);
}
);
width = 572;
},
{
layerId = "89792DEA-715D-4C6B-9843-C33DBACDCF53";
shapes = (
{
closed = 1;
nodes = (
(352,-12,o),
(419,95,o),
(419,293,cs),
(419,426,o),
(412,555,o),
(274,714,c),
(210,714,l),
(297,622,o),
(347,540,o),
(365,420,c),
(339,500,o),
(285,526,o),
(228,526,cs),
(109,526,o),
(42,427,o),
(42,258,cs),
(42,88,o),
(109,-12,o),
(228,-12,cs)
);
},
{
closed = 1;
nodes = (
(132,35,o),
(101,142,o),
(101,258,cs),
(101,374,o),
(132,479,o),
(228,479,cs),
(328,479,o),
(359,374,o),
(359,258,cs),
(359,142,o),
(328,35,o),
(228,35,cs)
);
},
{
closed = 1;
nodes = (
(427,649,l),
(413,689,l),
(167,607,l),
(179,567,l)
);
}
);
width = 483;
},
{
layerId = "F5B2086A-EC1C-45D9-9613-A3504CEE232E";
shapes = (
{
closed = 1;
nodes = (
(360,-12,o),
(435,91,o),
(435,305,cs),
(435,435,o),
(414,566,o),
(283,714,c),
(196,714,l),
(275,628,o),
(328,550,o),
(346,456,c),
(319,506,o),
(278,526,o),
(227,526,cs),
(108,526,o),
(38,427,o),
(38,257,cs),
(38,87,o),
(108,-12,o),
(233,-12,cs)
);
},
{
closed = 1;
nodes = (
(152,52,o),
(121,141,o),
(121,257,cs),
(121,373,o),
(152,462,o),
(233,462,cs),
(317,462,o),
(345,371,o),
(345,257,cs),
(345,143,o),
(317,52,o),
(233,52,cs)
);
},
{
closed = 1;
nodes = (
(434,646,l),
(418,694,l),
(157,608,l),
(172,560,l)
);
}
);
width = 485;
},
{
layerId = "FEA946D2-303E-4050-8628-E645DE71E218";
shapes = (
{
closed = 1;
nodes = (
(434,-13,o),
(533,112,o),
(533,308,cs),
(533,438,o),
(503,578,o),
(344,714,c),
(242,714,l),
(348,621,o),
(419,536,o),
(440,424,c),
(395,509,o),
(325,526,o),
(269,526,cs),
(138,526,o),
(42,422,o),
(42,258,cs),
(42,94,o),
(138,-13,o),
(282,-13,cs)
);
},
{
closed = 1;
nodes = (
(186,62,o),
(136,143,o),
(136,259,cs),
(136,373,o),
(186,451,o),
(282,451,cs),
(389,451,o),
(437,362,o),
(437,258,cs),
(437,151,o),
(389,62,o),
(282,62,cs)
);
},
{
closed = 1;
nodes = (
(507,647,l),
(487,707,l),
(193,610,l),
(213,550,l)
);
}
);
width = 578;
},
{
layerId = "F74FB5BD-F4A6-4696-AECE-814F0CF1BFBE";
shapes = (
{
closed = 1;
nodes = (
(395,-13,o),
(489,85,o),
(489,303,cs),
(489,491,o),
(440,598,o),
(317,714,c),
(130,714,l),
(202,642,o),
(266,578,o),
(297,479,c),
(271,517,o),
(231,524,o),
(203,524,cs),
(101,524,o),
(14,446,o),
(14,256,cs),
(14,66,o),
(100,-13,o),
(246,-13,cs)
);
},
{
closed = 1;
nodes = (
(222,121,o),
(207,149,o),
(207,256,cs),
(207,362,o),
(222,389,o),
(248,389,cs),
(274,389,o),
(289,362,o),
(289,256,cs),
(289,149,o),
(274,121,o),
(248,121,cs)
);
},
{
closed = 1;
nodes = (
(457,644,l),
(437,709,l),
(128,610,l),
(151,544,l)
);
}
);
width = 519;
},
{
layerId = "3E78BF7E-2ACA-4E8F-B7F7-8733FDFDD1D6";
shapes = (
{
closed = 1;
nodes = (
(455,-15,o),
(547,87,o),
(547,301,cs),
(547,470,o),
(486,592,o),
(335,714,c),
(145,714,l),
(207,663,o),
(349,543,o),
(374,447,c),
(334,502,o),
(294,513,o),
(247,513,cs),
(114,513,o),
(25,414,o),
(25,250,cs),
(25,86,o),
(114,-13,o),
(278,-14,cs)
);
},
{
closed = 1;
nodes = (
(236,123,o),
(215,171,o),
(215,250,cs),
(215,328,o),
(236,377,o),
(287,377,cs),
(336,377,o),
(357,329,o),
(357,250,cs),
(357,171,o),
(336,123,o),
(287,123,cs)
);
},
{
closed = 1;
nodes = (
(499,638,l),
(472,716,l),
(133,607,l),
(159,529,l)
);
}
);
width = 581;
},
{
layerId = "CEA8704A-49A9-4D73-A586-1E9554ACC001";
shapes = (
{
closed = 1;
nodes = (
(612,-15,o),
(735,96,o),
(735,290,cs),
(735,459,o),
(657,598,o),
(488,714,c),
(237,714,l),
(348,642,o),
(471,564,o),
(527,456,c),
(474,506,o),
(411,522,o),
(342,522,cs),
(150,522,o),
(25,413,o),
(25,254,cs),
(25,99,o),
(151,-14,o),
(380,-15,cs)
);
},
{
closed = 1;
nodes = (
(286,132,o),
(242,189,o),
(242,254,cs),
(242,319,o),
(286,376,o),
(380,376,cs),
(474,376,o),
(517,320,o),
(517,254,cs),
(517,188,o),
(474,132,o),
(380,132,cs)
);
},
{
closed = 1;
nodes = (
(649,635,l),
(627,715,l),
(260,613,l),
(281,534,l)
);
}
);
width = 770;
}
);
metricLeft = o;
unicode = 240;
},
{
glyphname = e;
kernLeft = o;
kernRight = e;
lastChange = "2025-01-15 14:16:13 +0000";
layers = (
{
anchors = (
{
name = bottom;
pos = (357,0);
},
{
name = ogonek;
pos = (474,0);
},
{
name = top;
pos = (357,514);
}
);
background = {
shapes = (
{
closed = 1;
nodes = (
(520,-14,o),
(630,56,o),
(657,165,c),
(586,165,l),
(554,93,o),
(490,37,o),
(365,37,cs),
(204,37,o),
(118,134,o),
(118,258,cs),
(118,383,o),
(204,477,o),
(365,477,cs),
(490,477,o),
(561,416,o),
(586,349,c),
(657,349,l),
(637,452,o),
(520,528,o),
(364,528,cs),
(176,528,o),
(48,425,o),
(48,258,cs),
(48,91,o),
(176,-14,o),
(364,-14,cs)
);
}
);
};
layerId = m007;
shapes = (
{
closed = 1;
nodes = (
(518,-14,o),
(610,50,o),
(645,141,c),
(573,141,l),
(538,79,o),
(471,40,o),
(357,40,cs),
(196,40,o),
(110,134,o),
(110,258,cs),
(110,383,o),
(196,474,o),
(357,474,cs),
(489,474,o),
(579,408,o),
(589,292,c),
(78,292,l),
(78,240,l),
(658,240,l),
(669,440,o),
(529,528,o),
(357,528,cs),
(168,528,o),
(40,425,o),
(40,258,cs),
(40,91,o),
(168,-14,o),
(354,-14,cs)
);
}
);
width = 699;
},
{
anchors = (
{
name = bottom;
pos = (358,0);
},
{
name = ogonek;
pos = (482,0);
},
{
name = top;
pos = (358,514);
}
);
layerId = "7DF63F5B-BA78-420A-94D8-89AFC26E7780";
shapes = (
{
closed = 1;
nodes = (
(532,-14,o),
(624,52,o),
(656,142,c),
(556,142,l),
(525,89,o),
(463,59,o),
(359,59,cs),
(210,59,o),
(132,143,o),
(132,258,cs),
(132,373,o),
(210,455,o),
(358,455,cs),
(477,455,o),
(557,401,o),
(568,301,c),
(93,301,l),
(93,232,l),
(667,232,l),
(676,439,o),
(540,528,o),
(358,528,cs),
(162,528,o),
(35,423,o),
(35,258,cs),
(35,92,o),
(162,-14,o),
(356,-14,cs)
);
}
);
width = 702;
},
{
anchors = (
{
name = bottom;
pos = (285,0);
},
{
name = ogonek;
pos = (361,0);
},
{
name = top;
pos = (285,514);
}
);
guides = (
{
pos = (460,125);
}
);
layerId = "CF630257-B204-4765-8982-527F59E4E5D4";
shapes = (
{
closed = 1;
nodes = (
(394,-12,o),
(473,41,o),
(500,128,c),
(438,128,l),
(412,65,o),
(361,39,o),
(285,39,cs),
(159,39,o),
(107,139,o),
(107,257,cs),
(107,375,o),
(159,475,o),
(285,475,cs),
(393,475,o),
(447,412,o),
(449,292,c),
(71,292,l),
(71,245,l),
(506,245,l),
(523,457,o),
(401,526,o),
(285,526,cs),
(138,526,o),
(46,410,o),
(46,257,cs),
(46,103,o),
(133,-12,o),
(284,-12,cs)
);
}
);
width = 554;
},
{
anchors = (
{
name = bottom;
pos = (230,0);
},
{
name = ogonek;
pos = (296,0);
},
{
name = top;
pos = (230,514);
}
);
layerId = "89792DEA-715D-4C6B-9843-C33DBACDCF53";
shapes = (
{
closed = 1;
nodes = (
(318,-12,o),
(380,42,o),
(400,128,c),
(340,128,l),
(323,72,o),
(288,35,o),
(230,35,cs),
(133,35,o),
(101,138,o),
(101,257,cs),
(101,376,o),
(133,479,o),
(230,479,cs),
(311,479,o),
(350,403,o),
(351,291,c),
(69,291,l),
(69,244,l),
(408,244,l),
(417,454,o),
(336,526,o),
(230,526,cs),
(109,526,o),
(42,426,o),
(42,257,cs),
(42,88,o),
(108,-12,o),
(230,-12,cs)
);
}
);
width = 451;
},
{
anchors = (
{
name = bottom;
pos = (236,0);
},
{
name = ogonek;
pos = (307,0);
},
{
name = top;
pos = (236,514);
}
);
layerId = "F5B2086A-EC1C-45D9-9613-A3504CEE232E";
shapes = (
{
closed = 1;
nodes = (
(337,-12,o),
(398,47,o),
(415,135,c),
(331,135,l),
(320,87,o),
(288,52,o),
(236,52,cs),
(150,52,o),
(121,140,o),
(121,257,cs),
(121,374,o),
(150,462,o),
(236,462,cs),
(303,462,o),
(338,397,o),
(340,298,c),
(90,298,l),
(90,237,l),
(422,237,l),
(430,453,o),
(349,526,o),
(236,526,cs),
(109,526,o),
(38,428,o),
(38,257,cs),
(38,86,o),
(109,-12,o),
(236,-12,cs)
);
}
);
width = 461;
},
{
anchors = (
{
name = bottom;
pos = (288,0);
},
{
name = ogonek;
pos = (371,0);
},
{
name = top;
pos = (288,514);
}
);
layerId = "FEA946D2-303E-4050-8628-E645DE71E218";
shapes = (
{
closed = 1;
nodes = (
(415,-13,o),
(499,59,o),
(513,137,c),
(421,137,l),
(406,96,o),
(359,61,o),
(288,61,cs),
(173,61,o),
(135,146,o),
(135,257,cs),
(135,368,o),
(173,453,o),
(288,453,cs),
(372,453,o),
(421,406,o),
(427,301,c),
(107,301,l),
(107,235,l),
(516,235,l),
(528,456,o),
(416,527,o),
(288,527,cs),
(137,527,o),
(42,416,o),
(42,257,cs),
(42,98,o),
(137,-13,o),
(288,-13,cs)
);
}
);
width = 559;
},
{
anchors = (
{
name = bottom;
pos = (248,0);
},
{
name = ogonek;
pos = (345,0);
},
{
name = top;
pos = (248,514);
}
);
layerId = "F74FB5BD-F4A6-4696-AECE-814F0CF1BFBE";
shapes = (
{
closed = 1;
nodes = (
(395,-13,o),
(453,55,o),
(473,163,c),
(288,163,l),
(283,132,o),
(276,109,o),
(248,109,cs),
(215,109,o),
(204,149,o),
(204,257,cs),
(204,365,o),
(214,406,o),
(247,406,cs),
(271,406,o),
(285,374,o),
(286,310,c),
(150,310,l),
(150,220,l),
(476,220,l),
(483,445,o),
(392,527,o),
(248,527,cs),
(101,527,o),
(14,429,o),
(14,257,cs),
(14,85,o),
(101,-13,o),
(248,-13,cs)
);
}
);
width = 490;
},
{
anchors = (
{
name = bottom;
pos = (295,0);
},
{
name = ogonek;
pos = (395,0);
},
{
name = top;
pos = (297,514);
}
);
layerId = "3E78BF7E-2ACA-4E8F-B7F7-8733FDFDD1D6";
shapes = (
{
closed = 1;
nodes = (
(457,-14,o),
(541,66,o),
(554,149,c),
(369,149,l),
(357,123,o),
(331,112,o),
(299,112,cs),
(231,112,o),
(200,163,o),
(200,257,cs),
(200,350,o),
(232,402,o),
(293,402,cs),
(335,402,o),
(370,383,o),
(383,314,c),
(148,314,l),
(148,213,l),
(554,213,l),
(557,441,o),
(446,528,o),
(294,528,cs),
(134,528,o),
(25,413,o),
(25,257,cs),
(25,101,o),
(135,-14,o),
(295,-14,cs)
);
}
);
width = 579;
},
{
anchors = (
{
name = bottom;
pos = (368,0);
},
{
name = ogonek;
pos = (519,0);
},
{
name = top;
pos = (374,514);
}
);
layerId = "CEA8704A-49A9-4D73-A586-1E9554ACC001";
shapes = (
{
closed = 1;
nodes = (
(599,-14,o),
(690,64,o),
(712,155,c),
(492,155,l),
(469,132,o),
(429,122,o),
(378,122,cs),
(279,122,o),
(231,177,o),
(231,257,cs),
(231,337,o),
(279,392,o),
(374,392,cs),
(442,392,o),
(489,367,o),
(504,314,c),
(162,314,l),
(162,214,l),
(718,214,l),
(719,430,o),
(598,528,o),
(376,528,cs),
(150,528,o),
(25,416,o),
(25,257,cs),
(25,98,o),
(152,-14,o),
(377,-14,cs)
);
}
);
width = 743;
}
);
metricLeft = o;
metricRight = o;
unicode = 101;
},
{
glyphname = f;
kernLeft = f;
kernRight = f;
lastChange = "2024-12-10 10:01:36 +0000";
layers = (
{
layerId = m007;
shapes = (
{
closed = 1;
nodes = (
(201,0,l),
(201,461,l),
(384,461,l),
(384,514,l),
(201,514,l),
(201,558,ls),
(201,619,o),
(236,661,o),
(288,661,cs),
(384,661,l),
(384,714,l),
(282,714,ls),
(191,714,o),
(136,649,o),
(136,559,cs),
(136,514,l),
(14,514,l),
(14,461,l),
(136,461,l),
(136,0,l)
);
}
);
width = 402;
},
{
layerId = "7DF63F5B-BA78-420A-94D8-89AFC26E7780";
shapes = (
{
closed = 1;
nodes = (
(228,0,l),
(228,443,l),
(406,443,l),
(406,514,l),
(228,514,l),
(228,550,ls),
(228,606,o),
(262,643,o),
(311,643,cs),
(406,643,l),
(406,714,l),
(289,714,ls),
(193,714,o),
(134,648,o),
(134,558,cs),
(134,514,l),
(12,514,l),
(12,443,l),
(134,443,l),
(134,0,l)
);
}
);
width = 422;
},
{
layerId = "CF630257-B204-4765-8982-527F59E4E5D4";
shapes = (
{
closed = 1;
nodes = (
(189,0,l),
(189,465,l),
(320,465,l),
(320,514,l),
(189,514,l),
(189,589,ls),
(189,633,o),
(216,665,o),
(256,665,cs),
(320,665,l),
(320,714,l),
(248,714,ls),
(177,714,o),
(128,659,o),
(128,587,cs),
(128,514,l),
(24,514,l),
(24,465,l),
(128,465,l),
(128,0,l)
);
}
);
width = 342;
},
{
layerId = "89792DEA-715D-4C6B-9843-C33DBACDCF53";
shapes = (
{
closed = 1;
nodes = (
(153,0,l),
(153,467,l),
(250,467,l),
(250,514,l),
(153,514,l),
(153,591,ls),
(153,643,o),
(179,667,o),
(219,667,cs),
(250,667,l),
(250,714,l),
(209,714,ls),
(147,714,o),
(97,677,o),
(97,593,cs),
(97,514,l),
(22,514,l),
(22,467,l),
(97,467,l),
(97,0,l)
);
}
);
width = 269;
},
{
layerId = "F5B2086A-EC1C-45D9-9613-A3504CEE232E";
shapes = (
{
closed = 1;
nodes = (
(176,0,l),
(176,449,l),
(272,449,l),
(272,514,l),
(176,514,l),
(176,576,ls),
(176,623,o),
(200,649,o),
(240,649,cs),
(272,649,l),
(272,714,l),
(218,714,ls),
(143,714,o),
(95,668,o),
(95,581,cs),
(95,514,l),
(22,514,l),
(22,449,l),
(95,449,l),
(95,0,l)
);
}
);
width = 292;
},
{
layerId = "FEA946D2-303E-4050-8628-E645DE71E218";
shapes = (
{
closed = 1;
nodes = (
(210,0,l),
(210,442,l),
(345,442,l),
(345,514,l),
(210,514,l),
(210,564,ls),
(210,610,o),
(236,641,o),
(276,641,cs),
(345,641,l),
(345,714,l),
(259,714,ls),
(166,714,o),
(119,652,o),
(119,566,cs),
(119,514,l),
(20,514,l),
(20,442,l),
(119,442,l),
(119,0,l)
);
}
);
width = 369;
},
{
layerId = "F74FB5BD-F4A6-4696-AECE-814F0CF1BFBE";
shapes = (
{
closed = 1;
nodes = (
(266,0,l),
(266,379,l),
(348,379,l),
(348,514,l),
(266,514,l),
(266,527,ls),
(266,554,o),
(282,578,o),
(317,578,cs),
(348,578,l),
(348,714,l),
(248,714,ls),
(132,714,o),
(76,636,o),
(76,543,cs),
(76,514,l),
(9,514,l),
(9,379,l),
(76,379,l),
(76,0,l)
);
}
);
width = 362;
},
{
layerId = "3E78BF7E-2ACA-4E8F-B7F7-8733FDFDD1D6";
shapes = (
{
closed = 1;
nodes = (
(300,0,l),
(300,374,l),
(419,374,l),
(419,514,l),
(300,514,l),
(300,518,ls),
(300,559,o),
(323,577,o),
(362,577,cs),
(419,577,l),
(419,714,l),
(297,714,ls),
(174,714,o),
(111,640,o),
(111,538,cs),
(111,514,l),
(20,514,l),
(20,374,l),
(111,374,l),
(111,0,l)
);
}
);
width = 442;
},
{
layerId = "CEA8704A-49A9-4D73-A586-1E9554ACC001";
shapes = (
{
closed = 1;
nodes = (
(337,0,l),
(337,380,l),
(492,380,l),
(492,514,l),
(337,514,l),
(337,518,ls),
(337,554,o),
(359,577,o),
(401,577,cs),
(492,577,l),
(492,714,l),
(317,714,ls),
(197,714,o),
(124,645,o),
(124,523,cs),
(124,514,l),
(12,514,l),
(12,380,l),
(124,380,l),
(124,0,l)
);
}
);
width = 511;
}
);
unicode = 102;
},
{
glyphname = g;
kernLeft = g;
kernRight = g;
lastChange = "2024-12-06 10:39:41 +0000";
layers = (
{
anchors = (
{
name = bottom;
pos = (376,-224);
},
{
name = top;
pos = (373,514);
}
);
guides = (
{
pos = (205,16);
}
);
layerId = m007;
shapes = (
{
closed = 1;
nodes = (
(523,-204,o),
(668,-127,o),
(668,16,cs),
(668,514,l),
(603,514,l),
(603,397,l),
(548,489,o),
(443,528,o),
(339,528,cs),
(169,528,o),
(40,426,o),
(40,273,cs),
(40,120,o),
(169,16,o),
(339,16,cs),
(443,16,o),
(548,56,o),
(603,150,c),
(603,24,ls),
(603,-79,o),
(508,-151,o),
(362,-151,cs),
(239,-151,o),
(171,-118,o),
(142,-46,c),
(70,-46,l),
(92,-146,o),
(195,-204,o),
(360,-204,cs)
);
},
{
closed = 1;
nodes = (
(204,69,o),
(110,152,o),
(110,273,cs),
(110,395,o),
(204,475,o),
(348,475,cs),
(492,475,o),
(604,395,o),
(604,273,cs),
(604,152,o),
(492,69,o),
(348,69,cs)
);
}
);
width = 732;
},
{
anchors = (
{
name = bottom;
pos = (373,-224);
},
{
name = top;
pos = (375,514);
}
);
layerId = "7DF63F5B-BA78-420A-94D8-89AFC26E7780";
shapes = (
{
closed = 1;
nodes = (
(528,-204,o),
(679,-131,o),
(679,18,cs),
(679,514,l),
(584,514,l),
(584,408,l),
(531,491,o),
(432,528,o),
(328,528,cs),
(164,528,o),
(35,430,o),
(35,270,cs),
(35,110,o),
(164,10,o),
(328,10,cs),
(432,10,o),
(531,48,o),
(584,131,c),
(584,22,ls),
(584,-72,o),
(497,-133,o),
(366,-133,cs),
(254,-133,o),
(192,-107,o),
(165,-43,c),
(66,-43,l),
(88,-147,o),
(197,-204,o),
(364,-204,cs)
);
},
{
closed = 1;
nodes = (
(218,85,o),
(134,157,o),
(134,270,cs),
(134,384,o),
(218,455,o),
(353,455,cs),
(486,455,o),
(585,384,o),
(585,270,cs),
(585,157,o),
(486,85,o),
(353,85,cs)
);
}
);
width = 737;
},
{
anchors = (
{
name = bottom;
pos = (289,-224);
},
{
name = top;
pos = (289,514);
}
);
layerId = "CF630257-B204-4765-8982-527F59E4E5D4";
shapes = (
{
closed = 1;
nodes = (
(389,-202,o),
(511,-152,o),
(511,9,cs),
(511,514,l),
(450,514,l),
(450,410,l),
(417,490,o),
(348,526,o),
(272,526,cs),
(143,526,o),
(46,417,o),
(46,269,cs),
(46,121,o),
(143,14,o),
(272,14,cs),
(348,14,o),
(415,46,o),
(450,132,c),
(450,18,ls),
(450,-104,o),
(372,-152,o),
(288,-152,cs),
(198,-152,o),
(145,-119,o),
(128,-58,c),
(67,-58,l),
(84,-150,o),
(163,-202,o),
(287,-202,cs)
);
},
{
closed = 1;
nodes = (
(164,65,o),
(107,164,o),
(107,270,cs),
(107,376,o),
(164,475,o),
(273,475,cs),
(402,475,o),
(455,376,o),
(455,270,cs),
(455,164,o),
(402,65,o),
(273,65,cs)
);
}
);
width = 589;
},
{
anchors = (
{
name = bottom;
pos = (232,-228);
},
{
name = top;
pos = (236,514);
}
);
layerId = "89792DEA-715D-4C6B-9843-C33DBACDCF53";
shapes = (
{
closed = 1;
nodes = (
(323,-202,o),
(408,-154,o),
(408,-24,cs),
(408,514,l),
(352,514,l),
(352,424,l),
(327,490,o),
(278,526,o),
(215,526,cs),
(116,526,o),
(42,440,o),
(42,267,cs),
(42,95,o),
(116,8,o),
(215,8,cs),
(278,8,o),
(326,43,o),
(352,109,c),
(352,-18,ls),
(352,-105,o),
(311,-155,o),
(241,-155,cs),
(177,-155,o),
(139,-117,o),
(126,-60,c),
(70,-60,l),
(83,-145,o),
(141,-202,o),
(239,-202,cs)
);
},
{
closed = 1;
nodes = (
(148,57,o),
(101,129,o),
(101,267,cs),
(101,406,o),
(148,477,o),
(226,477,cs),
(308,477,o),
(357,406,o),
(357,267,cs),
(357,129,o),
(308,57,o),
(226,57,cs)
);
}
);
width = 477;
},
{
anchors = (
{
name = bottom;
pos = (235,-228);
},
{
name = top;
pos = (238,514);
}
);
layerId = "F5B2086A-EC1C-45D9-9613-A3504CEE232E";
shapes = (
{
closed = 1;
nodes = (
(338,-202,o),
(420,-150,o),
(420,-23,cs),
(420,514,l),
(339,514,l),
(339,437,l),
(314,495,o),
(268,526,o),
(207,526,cs),
(112,526,o),
(38,442,o),
(38,268,cs),
(38,95,o),
(112,11,o),
(207,11,cs),
(268,11,o),
(313,42,o),
(339,100,c),
(339,-24,ls),
(339,-97,o),
(301,-137,o),
(243,-137,cs),
(188,-137,o),
(151,-107,o),
(142,-55,c),
(60,-55,l),
(70,-144,o),
(135,-202,o),
(241,-202,cs)
);
},
{
closed = 1;
nodes = (
(166,75,o),
(121,136,o),
(121,268,cs),
(121,402,o),
(166,462,o),
(232,462,cs),
(300,462,o),
(345,402,o),
(345,268,cs),
(345,136,o),
(300,75,o),
(232,75,cs)
);
}
);
width = 483;
},
{
anchors = (
{
name = bottom;
pos = (293,-224);
},
{
name = top;
pos = (294,514);
}
);
layerId = "FEA946D2-303E-4050-8628-E645DE71E218";
shapes = (
{
closed = 1;
nodes = (
(407,-202,o),
(525,-145,o),
(525,14,cs),
(525,514,l),
(434,514,l),
(434,437,l),
(400,496,o),
(335,527,o),
(265,527,cs),
(143,527,o),
(42,422,o),
(42,269,cs),
(42,117,o),
(143,10,o),
(265,10,cs),
(335,10,o),
(394,37,o),
(434,104,c),
(434,13,ls),
(434,-91,o),
(362,-130,o),
(288,-130,cs),
(204,-130,o),
(161,-104,o),
(144,-49,c),
(51,-49,l),
(65,-147,o),
(151,-202,o),
(285,-202,cs)
);
},
{
closed = 1;
nodes = (
(195,86,o),
(135,155,o),
(135,270,cs),
(135,387,o),
(195,452,o),
(286,452,cs),
(377,452,o),
(439,387,o),
(439,270,cs),
(439,155,o),
(377,86,o),
(286,86,cs)
);
}
);
width = 597;
},
{
anchors = (
{
name = bottom;
pos = (242,-228);
},
{
name = top;
pos = (251,514);
}
);
layerId = "F74FB5BD-F4A6-4696-AECE-814F0CF1BFBE";
shapes = (
{
closed = 1;
nodes = (
(378,-203,o),
(472,-144,o),
(472,-25,cs),
(472,514,l),
(282,514,l),
(282,469,l),
(262,508,o),
(220,527,o),
(171,527,cs),
(86,527,o),
(14,454,o),
(14,274,cs),
(14,94,o),
(86,21,o),
(171,21,cs),
(220,21,o),
(262,37,o),
(282,78,c),
(282,-35,ls),
(282,-61,o),
(270,-74,o),
(249,-74,cs),
(228,-74,o),
(218,-63,o),
(217,-37,c),
(29,-37,l),
(33,-140,o),
(111,-203,o),
(248,-203,cs)
);
},
{
closed = 1;
nodes = (
(220,163,o),
(206,191,o),
(206,272,cs),
(206,358,o),
(220,386,o),
(249,386,cs),
(277,386,o),
(291,358,o),
(291,272,cs),
(291,191,o),
(277,163,o),
(249,163,cs)
);
}
);
width = 510;
},
{
anchors = (
{
name = bottom;
pos = (287,-224);
},
{
name = top;
pos = (312,514);
}
);
layerId = "3E78BF7E-2ACA-4E8F-B7F7-8733FDFDD1D6";
shapes = (
{
closed = 1;
nodes = (
(441,-204,o),
(557,-140,o),
(557,3,cs),
(557,514,l),
(367,514,l),
(367,465,l),
(339,504,o),
(294,528,o),
(227,528,cs),
(113,528,o),
(25,436,o),
(25,274,cs),
(25,114,o),
(113,22,o),
(227,22,cs),
(294,22,o),
(338,43,o),
(367,84,c),
(367,2,ls),
(367,-53,o),
(336,-72,o),
(291,-72,cs),
(245,-72,o),
(222,-59,o),
(216,-38,c),
(29,-38,l),
(42,-134,o),
(127,-204,o),
(291,-204,cs)
);
},
{
closed = 1;
nodes = (
(245,158,o),
(211,196,o),
(211,274,cs),
(211,354,o),
(245,393,o),
(292,393,cs),
(339,393,o),
(372,354,o),
(372,274,cs),
(372,196,o),
(339,158,o),
(292,158,cs)
);
}
);
width = 607;
},
{
anchors = (
{
name = bottom;
pos = (372,-224);
},
{
name = top;
pos = (393,514);
}
);
layerId = "CEA8704A-49A9-4D73-A586-1E9554ACC001";
shapes = (
{
closed = 1;
nodes = (
(560,-204,o),
(735,-145,o),
(735,36,cs),
(735,514,l),
(522,514,l),
(522,451,l),
(481,493,o),
(409,528,o),
(302,528,cs),
(157,528,o),
(25,447,o),
(25,273,cs),
(25,101,o),
(157,16,o),
(302,16,cs),
(409,16,o),
(481,52,o),
(522,93,c),
(522,18,ls),
(522,-47,o),
(468,-74,o),
(395,-74,cs),
(331,-74,o),
(283,-60,o),
(271,-32,c),
(60,-32,l),
(77,-150,o),
(216,-204,o),
(393,-204,cs)
);
},
{
closed = 1;
nodes = (
(294,162,o),
(242,207,o),
(242,272,cs),
(242,338,o),
(294,383,o),
(384,383,cs),
(475,383,o),
(524,338,o),
(524,272,cs),
(524,207,o),
(475,162,o),
(384,162,cs)
);
}
);
width = 779;
}
);
metricLeft = o;
metricRight = "=|n";
unicode = 103;
},
{
glyphname = h;
kernLeft = l;
kernRight = n;
lastChange = "2024-12-06 10:39:41 +0000";
layers = (
{
anchors = (
{
name = bottom;
pos = (273,0);
},
{
name = center;
pos = (223,604);
},
{
name = top;
pos = (99,714);
}
);
layerId = m007;
shapes = (
{
closed = 1;
nodes = (
(132,0,l),
(132,268,ls),
(132,384,o),
(220,475,o),
(360,475,cs),
(499,475,o),
(561,398,o),
(561,274,cs),
(561,0,l),
(626,0,l),
(626,287,ls),
(626,446,o),
(528,528,o),
(372,528,cs),
(265,528,o),
(175,488,o),
(132,376,c),
(132,714,l),
(66,714,l),
(66,0,l)
);
}
);
width = 685;
},
{
anchors = (
{
name = bottom;
pos = (275,0);
},
{
name = center;
pos = (226,612);
},
{
name = top;
pos = (107,714);
}
);
layerId = "7DF63F5B-BA78-420A-94D8-89AFC26E7780";
shapes = (
{
closed = 1;
nodes = (
(154,0,l),
(154,262,ls),
(154,370,o),
(235,455,o),
(362,455,cs),
(489,455,o),
(545,383,o),
(545,267,cs),
(545,0,l),
(640,0,l),
(640,286,ls),
(640,444,o),
(546,528,o),
(391,528,cs),
(284,528,o),
(198,489,o),
(154,394,c),
(154,714,l),
(59,714,l),
(59,0,l)
);
}
);
width = 692;
},
{
anchors = (
{
name = bottom;
pos = (278,0);
},
{
name = center;
pos = (182,620);
},
{
name = top;
pos = (108,714);
}
);
layerId = "CF630257-B204-4765-8982-527F59E4E5D4";
shapes = (
{
closed = 1;
nodes = (
(139,0,l),
(139,294,ls),
(139,406,o),
(215,474,o),
(292,474,cs),
(367,474,o),
(431,423,o),
(431,321,cs),
(431,0,l),
(492,0,l),
(492,329,ls),
(492,460,o),
(402,526,o),
(309,526,cs),
(236,526,o),
(168,492,o),
(139,413,c),
(139,714,l),
(78,714,l),
(78,0,l)
);
}
);
width = 566;
},
{
anchors = (
{
name = bottom;
pos = (259,0);
},
{
name = center;
pos = (149,619);
},
{
name = top;
pos = (98,714);
}
);
layerId = "89792DEA-715D-4C6B-9843-C33DBACDCF53";
shapes = (
{
closed = 1;
nodes = (
(126,0,l),
(126,307,ls),
(126,430,o),
(195,479,o),
(251,479,cs),
(313,479,o),
(344,434,o),
(344,367,cs),
(344,0,l),
(400,0,l),
(400,373,ls),
(400,461,o),
(352,526,o),
(265,526,cs),
(209,526,o),
(153,500,o),
(126,420,c),
(126,714,l),
(70,714,l),
(70,0,l)
);
}
);
width = 465;
},
{
anchors = (
{
name = bottom;
pos = (267,0);
},
{
name = center;
pos = (153,615);
},
{
name = top;
pos = (105,714);
}
);
layerId = "F5B2086A-EC1C-45D9-9613-A3504CEE232E";
shapes = (
{
closed = 1;
nodes = (
(146,0,l),
(146,313,ls),
(146,416,o),
(204,459,o),
(256,459,cs),
(311,459,o),
(338,419,o),
(338,360,cs),
(338,0,l),
(419,0,l),
(419,373,ls),
(419,463,o),
(374,526,o),
(288,526,cs),
(229,526,o),
(173,500,o),
(146,429,c),
(146,714,l),
(64,714,l),
(64,0,l)
);
}
);
width = 477;
},
{
anchors = (
{
name = bottom;
pos = (287,0);
},
{
name = center;
pos = (180,614);
},
{
name = top;
pos = (117,714);
}
);
layerId = "FEA946D2-303E-4050-8628-E645DE71E218";
shapes = (
{
closed = 1;
nodes = (
(163,0,l),
(163,295,ls),
(163,386,o),
(228,450,o),
(303,450,cs),
(373,450,o),
(422,403,o),
(422,314,cs),
(422,0,l),
(513,0,l),
(513,320,ls),
(513,458,o),
(438,527,o),
(332,527,cs),
(257,527,o),
(195,492,o),
(163,426,c),
(163,714,l),
(72,714,l),
(72,0,l)
);
}
);
width = 581;
},
{
anchors = (
{
name = bottom;
pos = (294,0);
},
{
name = center;
pos = (168,605);
},
{
name = top;
pos = (126,714);
}
);
layerId = "F74FB5BD-F4A6-4696-AECE-814F0CF1BFBE";
shapes = (
{
closed = 1;
nodes = (
(221,0,l),
(221,308,ls),
(221,338,o),
(233,366,o),
(262,366,cs),
(288,366,o),
(298,346,o),
(298,312,cs),
(298,0,l),
(489,0,l),
(489,382,ls),
(489,474,o),
(448,527,o),
(370,527,cs),
(305,527,o),
(252,497,o),
(221,441,c),
(221,714,l),
(32,714,l),
(32,0,l)
);
}
);
width = 520;
},
{
anchors = (
{
name = bottom;
pos = (317,0);
},
{
name = center;
pos = (202,605);
},
{
name = top;
pos = (144,714);
}
);
layerId = "3E78BF7E-2ACA-4E8F-B7F7-8733FDFDD1D6";
shapes = (
{
closed = 1;
nodes = (
(240,0,l),
(240,275,ls),
(240,323,o),
(265,379,o),
(322,379,cs),
(361,379,o),
(384,346,o),
(384,296,cs),
(384,0,l),
(574,0,l),
(574,326,ls),
(574,456,o),
(524,528,o),
(414,528,cs),
(344,528,o),
(279,499,o),
(240,440,c),
(240,714,l),
(50,714,l),
(50,0,l)
);
}
);
width = 619;
},
{
anchors = (
{
name = bottom;
pos = (297,0);
},
{
name = center;
pos = (255,613);
},
{
name = top;
pos = (150,714);
}
);
layerId = "CEA8704A-49A9-4D73-A586-1E9554ACC001";
shapes = (
{
closed = 1;
nodes = (
(256,0,l),
(256,237,ls),
(256,319,o),
(304,371,o),
(382,371,cs),
(462,371,o),
(493,322,o),
(493,239,cs),
(493,0,l),
(706,0,l),
(706,283,ls),
(706,436,o),
(626,528,o),
(479,528,cs),
(372,528,o),
(303,491,o),
(256,436,c),
(256,714,l),
(43,714,l),
(43,0,l)
);
}
);
width = 743;
}
);
metricLeft = l;
metricRight = n;
unicode = 104;
},
